<svg width="110" height="110" viewBox="0 0 150 150" fill="none" xmlns="http://www.w3.org/2000/svg">
<path d="M75 0L139.952 37.5V112.5L75 150L10.0481 112.5V37.5L75 0Z" fill="none"/>
<path d="M48.75 40H101.25L96.475 93.9075L74.9425 100L53.53 93.905L48.75 40ZM91.475 51.0325L58.525 51.025L59.0575 57.58L84.37 57.585L83.7325 64.375H67.1325L67.7325 70.8075H83.1875L82.2725 79.615L74.9975 81.625L67.6075 79.6L67.1375 74.325H60.6125L61.3375 83.9625L75 88.22L88.4325 84.395L91.475 51.0325Z" fill="#F9EEE7"/>
<path d="M65.936 121.168C65.1987 121.168 64.5127 121.033 63.878 120.762C63.2527 120.491 62.7067 120.118 62.24 119.642C61.7827 119.157 61.4233 118.587 61.162 117.934C60.9007 117.281 60.77 116.562 60.77 115.778C60.77 115.003 60.896 114.289 61.148 113.636C61.4093 112.973 61.7733 112.404 62.24 111.928C62.7067 111.443 63.2527 111.069 63.878 110.808C64.5033 110.537 65.1893 110.402 65.936 110.402C66.6733 110.402 67.3313 110.528 67.91 110.78C68.498 111.032 68.9927 111.363 69.394 111.774C69.7953 112.175 70.0847 112.614 70.262 113.09L68.778 113.79C68.554 113.23 68.1947 112.777 67.7 112.432C67.2147 112.077 66.6267 111.9 65.936 111.9C65.2453 111.9 64.634 112.063 64.102 112.39C63.57 112.717 63.1547 113.169 62.856 113.748C62.5667 114.327 62.422 115.003 62.422 115.778C62.422 116.553 62.5667 117.234 62.856 117.822C63.1547 118.401 63.57 118.853 64.102 119.18C64.634 119.497 65.2453 119.656 65.936 119.656C66.6267 119.656 67.2147 119.483 67.7 119.138C68.1947 118.793 68.554 118.34 68.778 117.78L70.262 118.48C70.0847 118.947 69.7953 119.385 69.394 119.796C68.9927 120.207 68.498 120.538 67.91 120.79C67.3313 121.042 66.6733 121.168 65.936 121.168ZM75.6148 121.168C74.9615 121.168 74.3548 121.047 73.7948 120.804C73.2348 120.552 72.7588 120.211 72.3668 119.782C71.9748 119.353 71.6855 118.858 71.4988 118.298L72.8988 117.71C73.1508 118.354 73.5195 118.849 74.0048 119.194C74.4901 119.539 75.0501 119.712 75.6848 119.712C76.0581 119.712 76.3848 119.656 76.6648 119.544C76.9448 119.423 77.1595 119.255 77.3088 119.04C77.4675 118.825 77.5468 118.578 77.5468 118.298C77.5468 117.915 77.4395 117.612 77.2248 117.388C77.0101 117.164 76.6928 116.987 76.2728 116.856L74.3128 116.24C73.5288 115.997 72.9315 115.629 72.5208 115.134C72.1101 114.63 71.9048 114.042 71.9048 113.37C71.9048 112.782 72.0495 112.269 72.3388 111.83C72.6281 111.382 73.0248 111.032 73.5288 110.78C74.0421 110.528 74.6255 110.402 75.2788 110.402C75.9041 110.402 76.4735 110.514 76.9868 110.738C77.5001 110.953 77.9388 111.251 78.3028 111.634C78.6761 112.017 78.9468 112.46 79.1148 112.964L77.7428 113.566C77.5375 113.015 77.2155 112.591 76.7768 112.292C76.3475 111.993 75.8481 111.844 75.2788 111.844C74.9335 111.844 74.6301 111.905 74.3688 112.026C74.1075 112.138 73.9021 112.306 73.7528 112.53C73.6128 112.745 73.5428 112.997 73.5428 113.286C73.5428 113.622 73.6501 113.921 73.8648 114.182C74.0795 114.443 74.4061 114.639 74.8448 114.77L76.6648 115.344C77.4955 115.596 78.1208 115.96 78.5408 116.436C78.9608 116.903 79.1708 117.486 79.1708 118.186C79.1708 118.765 79.0168 119.278 78.7088 119.726C78.4101 120.174 77.9948 120.529 77.4628 120.79C76.9308 121.042 76.3148 121.168 75.6148 121.168ZM84.6793 121.168C84.0259 121.168 83.4193 121.047 82.8593 120.804C82.2993 120.552 81.8233 120.211 81.4313 119.782C81.0393 119.353 80.7499 118.858 80.5633 118.298L81.9633 117.71C82.2153 118.354 82.5839 118.849 83.0693 119.194C83.5546 119.539 84.1146 119.712 84.7493 119.712C85.1226 119.712 85.4493 119.656 85.7293 119.544C86.0093 119.423 86.2239 119.255 86.3733 119.04C86.5319 118.825 86.6113 118.578 86.6113 118.298C86.6113 117.915 86.5039 117.612 86.2893 117.388C86.0746 117.164 85.7573 116.987 85.3373 116.856L83.3773 116.24C82.5933 115.997 81.9959 115.629 81.5853 115.134C81.1746 114.63 80.9693 114.042 80.9693 113.37C80.9693 112.782 81.1139 112.269 81.4033 111.83C81.6926 111.382 82.0893 111.032 82.5933 110.78C83.1066 110.528 83.6899 110.402 84.3433 110.402C84.9686 110.402 85.5379 110.514 86.0513 110.738C86.5646 110.953 87.0033 111.251 87.3673 111.634C87.7406 112.017 88.0113 112.46 88.1793 112.964L86.8073 113.566C86.6019 113.015 86.2799 112.591 85.8413 112.292C85.4119 111.993 84.9126 111.844 84.3433 111.844C83.9979 111.844 83.6946 111.905 83.4333 112.026C83.1719 112.138 82.9666 112.306 82.8173 112.53C82.6773 112.745 82.6073 112.997 82.6073 113.286C82.6073 113.622 82.7146 113.921 82.9293 114.182C83.1439 114.443 83.4706 114.639 83.9093 114.77L85.7293 115.344C86.5599 115.596 87.1853 115.96 87.6053 116.436C88.0253 116.903 88.2353 117.486 88.2353 118.186C88.2353 118.765 88.0813 119.278 87.7733 119.726C87.4746 120.174 87.0593 120.529 86.5273 120.79C85.9953 121.042 85.3793 121.168 84.6793 121.168Z" fill="white"/>
</svg>
