<svg width="110" height="110" viewBox="0 0 150 150" fill="none" xmlns="http://www.w3.org/2000/svg">
<path d="M75 0L139.952 37.5V112.5L75 150L10.0481 112.5V37.5L75 0Z" fill="none"/>
<g clip-path="url(#clip0_244_375)">
<path d="M62.9302 88.9001C60.6452 87.1 58.2052 85.375 56.5402 82.95C53.0352 78.67 50.3352 73.715 48.4902 68.5075C47.3752 65.1201 46.9902 61.4876 45.5552 58.2326C44.0502 55.8726 45.8127 53.2876 48.4002 52.5326C49.5502 52.3151 51.5802 51.2276 49.1327 52.0051C46.9377 53.6151 46.7252 50.5426 48.9752 50.3501C50.5127 50.1451 51.0752 48.8876 50.5502 47.7576C48.9002 46.6826 54.5502 45.5001 51.7077 43.8976C48.7502 40.7001 55.8502 40.0876 54.1002 43.7126C53.6827 46.5001 59.0602 43.2001 57.8127 46.4201C59.0802 47.9676 62.5627 46.7701 62.4752 48.9426C64.3252 49.0676 64.9577 50.6226 66.6926 50.7426C68.4927 51.5551 71.7477 52.1925 72.3577 54.2176C70.5751 55.6326 66.4477 51.3051 66.2502 55.2126C66.7877 60.9876 66.6502 66.935 68.7602 72.4325C69.7602 75.7626 72.1852 78.3825 74.3702 80.9776C76.4627 83.5175 79.2976 85.3025 82.1877 86.81C84.7227 88.005 87.4552 88.7975 90.2201 89.295C91.3401 88.4375 93.3201 85.2525 95.0651 86.595C95.1476 88.105 91.5951 89.7525 94.8977 89.585C96.8377 89 98.1827 91.085 99.7802 89.205C101.25 90.9475 105.895 88.09 104.848 91.655C103.433 92.565 101.368 92.015 99.9501 93.27C97.6126 92.1025 95.7501 94.315 93.1627 94.035C90.2863 94.5323 87.3717 94.7749 84.4527 94.76C79.6726 94.385 74.7902 94.225 70.2427 92.56C67.6827 91.8175 65.1827 90.3575 62.9302 88.9001ZM66.9676 90.65C69.4676 91.73 71.9127 92.87 74.6527 93.215C79.0027 93.815 83.4951 94.75 87.8601 93.9C85.8851 93.0075 83.8401 94.25 81.8727 93.2625C79.5126 93.77 76.9802 93.1325 74.5802 92.82C71.8502 91.605 68.9052 90.77 66.3527 89.19C63.1602 88.025 68.0026 90.685 68.8652 90.9025C70.8601 92.035 66.6727 90.32 66.0802 89.85C64.4102 88.9125 64.1952 89.1075 65.9152 90.06C66.2627 90.26 66.6052 90.475 66.9652 90.6475L66.9676 90.65ZM62.2077 87.285C64.6327 88.1825 62.1977 85.58 61.0827 85.73C60.5927 84.8775 59.2052 84.3375 60.1827 83.88C58.4227 84.49 58.3402 81.555 57.5077 81.9725C55.6477 81.3851 56.7827 79.2976 54.5677 78.0226C54.3652 76.6726 52.3627 75.5025 51.7227 73.4675C51.4402 72.4275 49.4602 69.4351 50.6777 72.2176C51.7127 74.8975 53.5352 77.1925 55.0527 79.4851C56.2277 81.6675 57.6202 83.95 59.7652 85.31C60.4902 86.005 61.1852 87.0676 62.2077 87.285ZM55.2252 79.6175C55.3077 79.2525 55.6677 80.41 55.2252 79.6175V79.6175ZM65.1101 88.36C64.3351 88.06 65.6476 88.12 65.1101 88.36V88.36ZM66.4251 88.84C65.8251 89.21 66.2901 88.1775 66.4251 88.84V88.84ZM68.0751 89.5275C66.8652 89.0575 68.8552 88.7775 68.0751 89.5275V89.5275ZM70.8927 91.1025C69.3677 90.835 71.3702 90.3975 70.8927 91.1025V91.1025ZM65.4751 87.32C63.9002 87.3101 66.6926 86.5326 65.4751 87.32V87.32ZM66.7102 87.9351C66.2702 88.1226 66.6751 87.5201 66.7102 87.9351V87.9351ZM72.8852 91.7901C73.8777 92.4151 78.6852 93.165 75.6727 92.0475C75.1727 92.1525 70.0977 90.6125 72.8827 91.7901H72.8852ZM63.0827 84.155C61.5427 83.6925 62.9827 83.7375 63.0827 84.155V84.155ZM65.9577 85.83C64.4052 85.43 66.7077 85.305 65.9577 85.83V85.83ZM68.3727 87.3125C66.6327 86.905 69.4477 86.9076 68.3727 87.3125V87.3125ZM61.9127 82.88C63.0777 83.775 66.6127 82.995 63.6977 82.3475C62.3727 81.64 59.3802 81.1576 61.4177 82.7725L61.9127 82.88ZM70.0127 87.8251C67.9752 87.35 70.4952 87 70.0127 87.8251V87.8251ZM67.5527 85.8675C70.4027 86.675 65.1576 84.0675 66.8502 85.5725L67.2252 85.7425L67.5527 85.8675ZM72.4852 88.7175C70.0477 88.35 75.1852 88.7425 72.4852 88.7175V88.7175ZM60.8752 81.3175C60.2102 81.3625 60.7702 80.8175 60.8752 81.3175V81.3175ZM77.0501 91.28C76.1677 91.955 77.1202 90.3725 77.0501 91.28V91.28ZM65.4751 84.14C64.6351 84.12 65.3151 83.6625 65.4751 84.14V84.14ZM61.1302 81.005C59.0102 80.3225 62.6802 80.9125 61.1302 81.005V81.005ZM55.9802 77.675C54.2952 76.34 55.7877 76.9325 55.9802 77.675V77.675ZM69.4977 86.2626C69.2127 85.9375 69.3626 86.3326 69.4977 86.2626V86.2626ZM77.9127 91.425C77.4552 91.6125 77.8876 90.9325 77.9127 91.425V91.425ZM68.7527 85.4925C67.4327 85.3 68.9027 84.855 68.7527 85.4925V85.4925ZM62.4877 81.5126C60.6377 80.7351 63.6377 81.3876 62.4877 81.5126V81.5126ZM73.0902 88.105C71.3402 87.755 74.8852 87.3925 73.0902 88.105V88.105ZM67.5751 84.3625C69.6427 84.6275 65.1126 82.9551 67.1227 84.2126L67.5751 84.3625ZM74.7652 88.7825C76.6977 87.6275 76.0602 91.4875 78.0427 89.1076C79.9977 87.6825 76.3552 90.875 78.7677 89.365C80.5077 88.1975 83.0827 89.915 84.7077 90.4775C85.8777 90.42 87.0151 91.49 88.2151 90.84C90.5226 90.215 83.7001 89.915 85.4902 88.815C83.3776 89.4275 81.8152 88.08 80.7776 86.7275C78.4076 86.1775 75.6677 84.97 74.4851 82.8725C74.0051 82.085 75.1852 82.9825 74.0702 81.6975C72.6452 80.4275 71.9301 78.9851 70.9701 77.4426C69.8277 76.8326 69.6952 75.035 69.5777 77.3825C69.5877 75.9001 68.1952 74.9025 67.8577 75.3176C67.8526 73.89 69.3452 74.605 68.2977 73.55C68.0727 72.07 67.3327 70.5251 67.1101 68.8576C66.7652 68.0526 67.0602 66.33 65.9277 68.1525C65.5152 70.0775 65.7901 65.785 66.4327 67.2025C67.2752 65.7526 66.1327 65.9276 66.0826 66.1276C66.6327 64.9076 66.4327 63.1776 65.9402 63.8376C66.2327 62.545 66.4027 59.0826 65.5027 59.6975C66.0477 58.3475 66.5377 53.515 64.1677 55.3575C63.2077 55.37 61.5477 55.7075 60.7602 56.0975C63.2252 57.455 60.5102 56.5876 59.5102 56.3726C59.3802 57.6276 58.3852 57.085 57.1452 57.0975C59.1277 57.3426 56.1802 59.1226 55.0427 58.4326C53.5677 59.1376 56.3177 60.9001 55.0727 61.4451C55.2227 62.2651 52.8102 61.1451 52.9977 63.045C51.5652 62.4425 52.8027 65.295 53.5202 64.33C55.9577 64.99 55.2352 66.4951 55.2952 67.9226C54.9002 68.755 53.3352 65.965 54.9452 66.0951C53.6777 64.0275 53.5427 65.3451 52.4852 66.3076C52.2352 66.3776 55.1827 67.6751 53.3352 68.3151C54.9602 68.5651 55.0052 69.99 55.3352 70.8901C56.3102 71.9076 56.1102 69.7651 57.2827 70.99C56.5427 69.9 53.3652 67.92 55.9227 68.555C55.9102 67.455 55.4602 66.5725 56.2452 66.595C57.0202 65.1901 55.4327 70.0625 57.1827 68.275C57.6652 68.0625 57.7827 66.8675 58.6577 68.3875C59.9202 69.6325 59.1127 70.5325 57.3302 69.395C57.6477 70.4775 59.7152 70.8625 59.3277 72.5575C59.7402 74.045 60.3152 73.4976 60.8177 73.4125C61.2127 74.8575 61.4352 73.795 61.4552 73.105C63.2552 73.4925 62.8352 74.555 63.4002 75.305C64.6427 75.865 61.6202 71.5 63.7552 73.99C66.0002 76.015 64.5977 76.8651 62.5802 76.5401C63.8552 76.4375 64.2677 78.265 65.8627 78.2001C67.3177 78.8925 68.3001 81.55 65.7952 80.4425C64.9251 79.66 61.8452 78.6925 64.3627 80.1825C66.6852 81.2575 68.5252 81.9025 70.7652 83.25C72.3652 84.3951 73.0602 85.7051 73.6651 85.965C72.3202 86.6076 69.6077 85.45 71.6227 85.095C70.3652 84.8675 68.9527 84.2325 70.1552 85.795C71.1802 86.6525 73.7802 86.56 74.2477 86.6575C73.8502 87.5275 73.1727 87.5975 74.2626 87.665C73.0477 88.315 74.6527 88.4125 74.7652 88.7825ZM72.2801 81.7625C71.5401 80.9875 71.3477 79.5376 72.1477 80.8001C72.5577 80.965 73.4601 83.1675 72.2801 81.7625ZM80.3751 86.905C80.3901 87.255 80.8377 86.8775 80.3751 86.905V86.905ZM71.1102 79.8651C71.0852 78.695 71.3777 80.765 71.1102 79.8651V79.8651ZM70.3051 78.7825C69.3752 76.9825 71.4802 79.2925 70.3051 78.7825V78.7825ZM60.5552 72.0525C60.8252 72.9876 61.1027 71.9025 60.5552 72.0525V72.0525ZM68.3152 76.2575C68.6502 74.9976 68.7102 77.3176 68.3152 76.2575V76.2575ZM62.8352 72.445C62.4477 71.75 63.6427 73.095 62.8352 72.445V72.445ZM67.5401 73.955C66.6602 71.98 68.1651 72.875 67.7351 74.28L67.5401 73.955ZM59.4252 68.5425C59.0302 67.8925 58.3802 65.9925 58.5902 65.4125C58.7802 66.3575 60.6002 69.48 59.4827 66.7076C58.2477 64.3825 60.9577 67.4626 61.2377 68.0426C61.3627 68.6175 60.4752 67.885 61.0777 69.2375C59.9777 67.695 60.4277 70.0875 59.4252 68.5425ZM56.9177 66.8151C57.0177 65.3076 57.4927 67.8475 56.9177 66.8151V66.8151ZM58.0427 67.2025C58.5827 66.0651 58.9577 68.7875 58.0427 67.2025V67.2025ZM55.3327 65.1025C54.3977 64.1775 53.7227 63.3201 55.3752 64.5275C56.0127 64.5526 53.9602 62.5826 55.5252 63.9025C57.1752 64.2026 56.3427 66.6075 55.3327 65.1025ZM56.7577 65.0651C57.0452 65.5951 57.3002 64.5276 56.7577 65.0651V65.0651ZM57.6327 65.3476C56.8127 63.805 58.6327 65.9925 57.6327 65.3476V65.3476ZM55.8902 63.6801C53.1752 61.2651 59.3027 64.945 56.3327 64.13L55.8902 63.6801ZM63.6652 68.2001C62.4902 67.4951 63.3577 63.2401 63.7577 66.1501C64.9002 65.7801 63.6952 67.65 64.5452 67.635C64.4127 68.8176 64.0302 69.2425 63.6702 68.2001H63.6652ZM66.5402 69.9001C66.6602 68.6175 66.7877 70.7751 66.5402 69.9001V69.9001ZM66.0402 69.4051C66.0577 70.0501 66.1752 68.8551 66.0402 69.4051V69.4051ZM56.4252 62.8876C54.6827 60.4801 61.4927 65.3201 57.5427 63.4976C57.1302 63.3901 56.6327 63.3475 56.4252 62.8876ZM61.9652 65.8251C61.8002 63.8001 62.3327 66.16 61.9652 65.8251V65.8251ZM66.1702 68.5225C66.1952 69.285 66.4952 67.3675 66.1702 68.5225V68.5225ZM56.6902 61.9676C57.7277 61.7476 60.9852 63.7901 57.9902 62.5526C57.6602 62.1826 56.9502 62.3526 56.6902 61.9676ZM65.5902 66.4051C65.7002 64.3301 66.2101 65.1675 65.5951 66.7L65.5902 66.4051ZM57.4627 61.2475C57.8852 60.6276 56.3377 58.4475 57.6852 60.465C58.2652 60.9275 59.3652 61.2401 58.3927 61.4326C59.9177 62.7801 58.0177 61.7976 57.4627 61.2475ZM65.1502 65.7575C65.4077 67.14 65.4427 63.3975 65.1502 65.7575V65.7575ZM56.5802 59.0675C56.7502 59.4975 56.9027 58.93 56.5802 59.0675V59.0675ZM58.5852 60.2625C59.1002 59.1775 59.5352 61.47 58.5852 60.2625V60.2625ZM64.2427 63.41C64.2377 62.9925 64.3502 64.015 64.2427 63.41V63.41ZM63.9152 62.685C63.1302 60.7451 64.6452 63.71 63.9152 62.685V62.685ZM63.4327 61.4101C63.3002 60.6101 63.8827 62.4201 63.4327 61.4101V61.4101ZM64.2177 60.135C63.6777 59.185 64.8976 55.9526 65.0326 57.9601C64.4651 59.5226 64.8701 60.3975 65.2652 58.3C65.9977 56.65 65.1077 61.5575 64.2152 60.1375L64.2177 60.135ZM65.0226 55.3276C65.0727 55.6751 65.2577 55.0401 65.0226 55.3276V55.3276ZM63.6752 81.8601C63.3552 81.5826 63.7152 82.035 63.6752 81.8601V81.8601ZM66.4501 83.26C67.9876 83.66 67.9802 83.0225 66.5877 82.835C65.8377 82.135 63.4727 81.3975 65.5877 82.7475C65.7302 83.1026 66.1752 83.095 66.4477 83.2625L66.4501 83.26ZM60.9727 79.625C61.8227 80.2575 64.1727 81.4226 62.1827 79.8651C62.8552 79.085 60.8977 78.67 61.5477 78.15C59.8977 77.14 60.2477 77.23 61.4027 77.2601C59.4177 76.375 61.6877 76.44 61.5777 75.9851C60.8152 75.835 57.7777 74.6351 59.5677 76.085C57.7527 75.16 59.1352 76.43 58.5877 76.295C56.7302 75.7901 60.2377 77.7076 58.2927 77.2325C59.3552 78.0751 61.1577 79.3925 58.7427 78.125C58.4227 78.5825 60.4677 79.275 60.9727 79.625ZM63.8727 81.2925C62.1452 79.9025 67.3977 82.4275 63.8727 81.2925V81.2925ZM78.7227 90.2876C78.2402 90.8876 78.7727 89.5876 78.7227 90.2876V90.2876ZM80.2502 90.93C81.0627 90.1426 80.2826 92.1875 81.6002 90.7375C81.6127 89.7 81.5577 89.0875 80.0852 90.3475C79.6802 90.5725 79.5002 91.53 80.2502 90.93ZM56.0202 75.7126C54.2702 74.7375 55.7702 74.73 56.0202 75.7126V75.7126ZM57.6502 76.7825C55.4902 75.8725 57.0452 75.7775 57.6502 76.7825V76.7825ZM66.9252 82.375C67.8302 83.175 71.0802 82.965 68.0252 82.4751C67.5702 81.8001 65.1477 81.965 66.9252 82.375ZM79.6676 90.2475C78.3176 90.7675 81.0626 89.0775 79.6676 90.2475V90.2475ZM82.5676 92.2375C81.9677 92.4025 82.5752 91.8625 82.5676 92.2375V92.2375ZM82.5702 91.7125C81.0751 91.8101 84.1127 90.0775 82.5702 91.7125V91.7125ZM52.0127 72.3575C50.6977 70.4825 51.1952 69.6376 49.9252 68.1075C49.6852 66.9326 47.7502 64.2751 48.9252 67.0926C50.0002 68.74 50.3202 71.2901 52.0127 72.3575ZM82.0877 91.1926C80.9226 90.3925 84.9252 89.3575 82.0877 91.1926V91.1926ZM84.2527 92.0425C83.3526 91.7875 85.6777 90.8225 84.2527 92.0425V92.0425ZM55.5377 73.6376C54.4877 73.5601 55.9452 73.0325 55.5377 73.6376V73.6376ZM83.8002 91.46C85.1777 90.5725 83.4851 90.71 83.5502 91.54L83.8002 91.46ZM65.1252 79.685C64.3977 79.735 65.0752 79.085 65.1252 79.685V79.685ZM66.2752 80.3526C65.7152 80.47 65.9127 79.6101 66.2752 80.3526V80.3526ZM86.0101 92.0625C87.7726 90.7875 84.9402 91.8176 85.6402 92.3025L86.0101 92.0625ZM85.3352 91.7375C83.8177 92.2701 86.7702 90.5326 85.3352 91.7375V91.7375ZM88.7851 94.0325C87.6127 93.825 89.7501 93.3875 88.7851 94.0325V94.0325ZM56.4252 73.2C57.7177 73.49 61.5902 76.385 59.3052 73.4C58.1352 73.055 58.8377 70.1925 57.6427 70.7001C58.4427 72.0375 58.3027 72.6075 56.6177 71.765C54.5052 70.7325 55.4327 72.275 55.8427 72.7001C55.2827 72.83 56.5902 73.1901 56.4252 73.2ZM50.5352 68.5501C50.7652 67.5926 48.4027 63.2826 49.4202 66.39C49.7852 67.0401 49.7452 68.2751 50.5352 68.5501ZM61.3452 75.215C60.6802 74.6575 61.3127 75.135 61.3452 75.215V75.215ZM62.9852 75.5951C61.1727 75.1851 62.9852 74.5826 62.9852 75.5951V75.5951ZM77.1877 84.5525C76.1177 84.5375 76.9177 83.8575 77.1877 84.5525V84.5525ZM77.8702 85.05C77.4776 85.125 77.7701 84.6625 77.8702 85.05V85.05ZM83.5001 88.6C82.8251 88.55 84.0401 88.2 83.5001 88.6V88.6ZM53.4752 69.3001C51.8152 68.8751 55.0252 68.7001 53.4752 69.3001V69.3001ZM75.9352 83.455C74.9476 83.705 75.9177 82.4525 75.9352 83.455V83.455ZM52.8602 67.8776C51.9427 67.6525 53.8577 67.5401 52.8602 67.8776V67.8776ZM55.7502 69.2775C55.4452 69.4025 55.7327 68.945 55.7502 69.2775V69.2775ZM90.9752 90.8775C92.2551 90.6175 95.1702 91.5275 95.6402 90.5375C94.0902 90.5 90.2652 89.4425 90.0852 90.7875L90.4252 90.8451L90.9752 90.8775ZM56.6677 69.5075C55.8752 69.47 56.6902 68.49 56.6677 69.5075V69.5075ZM49.0752 64.2376C47.7627 63.9426 48.7302 62.3001 49.0752 64.2376V64.2376ZM50.8852 64.6926C49.2277 64.1326 50.9077 64.0676 50.8852 64.6926V64.6926ZM51.9202 65.2001C51.6202 64.9576 51.6852 65.5051 51.9202 65.2001V65.2001ZM58.4327 69.375C57.7077 69.1676 58.7377 69.0951 58.4327 69.375V69.375ZM51.2327 64.055C49.1327 63.8351 51.0577 62.5926 51.2327 64.055V64.055ZM47.5177 61.6451C47.1577 61.9001 47.4677 60.9701 47.5177 61.6451V61.6451ZM48.0677 61.2276C47.5927 61.3276 47.9802 60.4276 48.0677 61.2276V61.2276ZM51.1177 63.0501C52.4127 62.5426 48.7677 62 50.8577 62.95L51.1177 63.0501ZM91.9527 88.2725C90.9027 88.0375 92.7777 87.515 91.9527 88.2725V88.2725ZM96.8876 90.83C96.0527 90.955 97.2176 89.85 96.8876 90.83V90.83ZM51.4327 61.4501C50.4077 61.6376 51.5702 60.5001 51.4327 61.4501V61.4501ZM47.0927 58.5451C46.8602 57.2076 46.8927 54.86 49.1227 55.655C46.1452 56.245 51.1827 59.355 50.5477 56.9C51.7977 56.96 52.9977 56.16 52.3377 57.375C54.8052 57.1 56.5127 54.9651 58.8977 55.2626C60.7527 55.0176 62.7827 54.8326 64.7827 54.085C66.4277 53.965 68.0077 52.1951 67.1077 51.1475C64.8677 50.9576 62.5202 51.2376 60.0402 51.7301C57.2952 52.3001 54.8002 53.385 52.0277 53.8526C49.3277 54.215 52.5702 54.8525 51.7977 54.9925C50.3877 55.4825 53.4777 55.8125 51.6152 56.3275C50.4652 56.1075 49.2652 55.7125 49.7577 54.5025C47.1702 54.835 44.8952 55.9101 46.9402 58.5425H47.0902L47.0927 58.5451ZM53.3277 55.37C53.9352 53.135 56.5777 57.2076 54.3227 55.665C54.0527 55.465 53.6102 55.3 53.3277 55.3651V55.37ZM53.4452 54.285C53.9102 54.6501 54.3202 53.635 53.4452 54.285V54.285ZM54.5577 54.305C54.6377 53.2775 57.1027 54.85 54.9652 54.675L54.5577 54.305ZM56.0777 53.6925C56.2377 54.2675 56.6327 53.0426 56.0777 53.6925V53.6925ZM56.4677 53.4325C57.3927 52.3225 61.7052 52.7251 58.5477 53.3251C57.7027 52.6876 57.0527 53.7 56.4677 53.4325ZM62.0927 52.5651C61.9552 49.5301 64.8902 53.6451 62.0927 52.5651V52.5651ZM63.6927 52.555C64.2752 51.0251 65.9577 51.9425 63.9627 52.2476C64.0052 52.41 63.9027 53.0375 63.6927 52.555ZM50.8052 60.6676C48.9527 59.7425 52.5477 59.6 50.8052 60.6676V60.6676ZM52.0927 61.0275C50.7652 60.7626 52.7052 60.3776 52.0927 61.0275V61.0275ZM48.2927 58.3275C47.1152 58.0375 49.2902 57.565 48.2927 58.3275V58.3275ZM99.7977 90.5525C99.0377 90.9525 99.8277 89.665 99.7977 90.5525V90.5525ZM94.5652 86.9775C93.8902 87.07 94.7152 85.9575 94.5652 86.9775V86.9775ZM101.24 90.8975C102.633 90.8975 105.46 90.465 102.428 90.465C101.953 90.54 99.6576 90.525 101.24 90.8975ZM53.2252 60.3975C54.3502 60.3225 54.9902 59.1551 53.0077 59.2225C49.9327 58.9051 55.7177 60.2726 52.6127 59.8825C52.1952 60.1576 53.2027 60.475 53.2252 60.4V60.3975ZM54.2202 60.9025C53.8702 61.2875 54.1002 60.1775 54.2202 60.9025V60.9025ZM55.3952 57.76C54.7202 57.5975 55.8877 57.1525 55.3952 57.76V57.76ZM51.6452 51.4901C53.6602 50.805 56.4127 50.0376 57.3627 51.8276C56.3952 50.6626 56.9727 49.5176 57.8877 51.2201C59.1777 52.9426 59.8252 50.4376 58.9827 49.8576C59.9402 51.0476 61.0302 51.6075 59.6252 49.9325C61.1502 48.0975 56.5677 50.1751 55.5252 50.1526C55.0252 50.3776 50.3452 51.345 51.6452 51.4901ZM52.8252 49.2326C53.9752 48.3651 56.7952 49.7476 54.9852 48.37C54.8102 48.2151 51.0202 49.4151 52.8252 49.2326ZM57.0102 49.4051C58.3552 49.4375 56.4327 47.6001 58.0327 48.4301C57.7702 47.5726 56.1677 47.4126 55.3827 47.0701C54.9427 47.8551 56.2852 49.415 57.0102 49.4051ZM53.5602 45.6051C52.7452 45.9251 54.0252 44.9751 53.5602 45.6051V45.6051ZM55.2702 46.0151C57.4352 45.7276 54.7202 45.0826 54.8352 45.9901L55.2702 46.0151ZM52.0777 43.5151C50.5527 41.5251 54.9427 43.8501 53.3952 41.7651C52.0902 40.7276 50.8377 42.9351 52.0777 43.5151ZM71.6376 54.0526C72.3377 52.8126 68.7502 52.3825 71.1677 53.615C71.3927 53.69 71.3426 54.14 71.6376 54.0526Z" fill="#F9EEE7"/>
</g>
<path d="M59.078 122V111.57H65.868V113.04H60.73V116.176H65.308V117.646H60.73V122H59.078ZM67.0998 122V111.402H68.6818V122H67.0998ZM72.7994 122.168C72.2861 122.168 71.8334 122.079 71.4414 121.902C71.0588 121.715 70.7601 121.463 70.5454 121.146C70.3308 120.819 70.2234 120.437 70.2234 119.998C70.2234 119.587 70.3121 119.219 70.4894 118.892C70.6761 118.565 70.9608 118.29 71.3434 118.066C71.7261 117.842 72.2068 117.683 72.7854 117.59L75.4174 117.156V118.402L73.0934 118.808C72.6734 118.883 72.3654 119.018 72.1694 119.214C71.9734 119.401 71.8754 119.643 71.8754 119.942C71.8754 120.231 71.9828 120.469 72.1974 120.656C72.4214 120.833 72.7061 120.922 73.0514 120.922C73.4808 120.922 73.8541 120.829 74.1714 120.642C74.4981 120.455 74.7501 120.208 74.9274 119.9C75.1048 119.583 75.1934 119.233 75.1934 118.85V116.904C75.1934 116.531 75.0534 116.227 74.7734 115.994C74.5028 115.751 74.1388 115.63 73.6814 115.63C73.2614 115.63 72.8928 115.742 72.5754 115.966C72.2674 116.181 72.0388 116.461 71.8894 116.806L70.5734 116.148C70.7134 115.775 70.9421 115.448 71.2594 115.168C71.5768 114.879 71.9454 114.655 72.3654 114.496C72.7948 114.337 73.2474 114.258 73.7234 114.258C74.3208 114.258 74.8481 114.37 75.3054 114.594C75.7721 114.818 76.1314 115.131 76.3834 115.532C76.6448 115.924 76.7754 116.381 76.7754 116.904V122H75.2634V120.628L75.5854 120.67C75.4081 120.978 75.1794 121.244 74.8994 121.468C74.6288 121.692 74.3161 121.865 73.9614 121.986C73.6161 122.107 73.2288 122.168 72.7994 122.168ZM81.4252 122.168C80.6505 122.168 79.9692 121.977 79.3812 121.594C78.8025 121.211 78.3965 120.698 78.1632 120.054L79.3812 119.48C79.5865 119.909 79.8665 120.25 80.2212 120.502C80.5852 120.754 80.9865 120.88 81.4252 120.88C81.7985 120.88 82.1018 120.796 82.3352 120.628C82.5685 120.46 82.6852 120.231 82.6852 119.942C82.6852 119.755 82.6338 119.606 82.5312 119.494C82.4285 119.373 82.2978 119.275 82.1392 119.2C81.9898 119.125 81.8358 119.069 81.6772 119.032L80.4872 118.696C79.8338 118.509 79.3438 118.229 79.0172 117.856C78.6998 117.473 78.5412 117.03 78.5412 116.526C78.5412 116.069 78.6578 115.672 78.8912 115.336C79.1245 114.991 79.4465 114.725 79.8572 114.538C80.2678 114.351 80.7298 114.258 81.2432 114.258C81.9338 114.258 82.5498 114.431 83.0912 114.776C83.6325 115.112 84.0152 115.583 84.2392 116.19L83.0212 116.764C82.8718 116.4 82.6338 116.111 82.3072 115.896C81.9898 115.681 81.6305 115.574 81.2292 115.574C80.8838 115.574 80.6085 115.658 80.4032 115.826C80.1978 115.985 80.0952 116.195 80.0952 116.456C80.0952 116.633 80.1418 116.783 80.2352 116.904C80.3285 117.016 80.4498 117.109 80.5992 117.184C80.7485 117.249 80.9025 117.305 81.0612 117.352L82.2932 117.716C82.9185 117.893 83.3992 118.173 83.7352 118.556C84.0712 118.929 84.2392 119.377 84.2392 119.9C84.2392 120.348 84.1178 120.745 83.8752 121.09C83.6418 121.426 83.3152 121.692 82.8952 121.888C82.4752 122.075 81.9852 122.168 81.4252 122.168ZM85.7892 122V111.402H87.3712V118.5L86.7552 118.346L90.5492 114.426H92.5232L89.6672 117.464L92.6492 122H90.8292L88.1692 117.982L89.1072 117.856L86.8672 120.236L87.3712 119.186V122H85.7892Z" fill="white"/>
<defs>
<clipPath id="clip0_244_375">
<rect width="60" height="60" fill="white" transform="translate(45 38)"/>
</clipPath>
</defs>
</svg>
