<svg width="110" height="110" viewBox="0 0 150 150" fill="none" xmlns="http://www.w3.org/2000/svg">
<path d="M75 0L139.952 37.5V112.5L75 150L10.0481 112.5V37.5L75 0Z" fill="none"/>
<g clip-path="url(#clip0_244_362)">
<path d="M103.865 64.3248L77.6675 38.1298C76.1575 36.6223 73.7125 36.6223 72.1975 38.1298L66.77 43.5673L73.67 50.4673C75.2825 49.9298 77.1175 50.2923 78.3925 51.5698C79.6825 52.8573 80.0375 54.7148 79.4875 56.3198L86.1325 62.9698C87.745 62.4123 89.6 62.7748 90.8825 64.0573C92.685 65.8573 92.685 68.7673 90.8825 70.5673C89.085 72.3648 86.18 72.3648 84.3825 70.5673C83.035 69.2148 82.6975 67.2248 83.3725 65.5773L77.15 59.3873V75.6998C77.59 75.9148 78.005 76.2073 78.37 76.5698C80.1525 78.3723 80.1525 81.2773 78.37 83.0698C76.5725 84.8723 73.6475 84.8723 71.8475 83.0698C70.05 81.2723 70.05 78.3723 71.8475 76.5748C72.3025 76.1248 72.815 75.7848 73.36 75.5598V59.0873C72.8175 58.8598 72.3 58.5323 71.86 58.0848C70.4975 56.7223 70.17 54.7298 70.87 53.0623L64.09 46.2498L46.125 64.2023C44.625 65.7148 44.625 68.1623 46.125 69.6748L72.325 95.8673C73.835 97.3773 76.28 97.3773 77.79 95.8673L103.865 69.7923C105.377 68.2848 105.377 65.8373 103.865 64.3248Z" fill="#111000"/>
</g>
<path d="M71.2169 121.168C70.4796 121.168 69.7936 121.033 69.1589 120.762C68.5336 120.491 67.9829 120.118 67.5069 119.642C67.0403 119.157 66.6763 118.587 66.4149 117.934C66.1536 117.281 66.0229 116.562 66.0229 115.778C66.0229 115.003 66.1489 114.289 66.4009 113.636C66.6623 112.973 67.0263 112.404 67.4929 111.928C67.9596 111.443 68.5056 111.069 69.1309 110.808C69.7563 110.537 70.4423 110.402 71.1889 110.402C71.9263 110.402 72.5843 110.528 73.1629 110.78C73.7509 111.032 74.2456 111.363 74.6469 111.774C75.0483 112.175 75.3376 112.614 75.5149 113.09L74.0449 113.804C73.8303 113.235 73.4756 112.777 72.9809 112.432C72.4863 112.077 71.8889 111.9 71.1889 111.9C70.4983 111.9 69.8869 112.063 69.3549 112.39C68.8229 112.717 68.4076 113.169 68.1089 113.748C67.8196 114.327 67.6749 115.003 67.6749 115.778C67.6749 116.553 67.8243 117.234 68.1229 117.822C68.4309 118.401 68.8509 118.853 69.3829 119.18C69.9149 119.497 70.5263 119.656 71.2169 119.656C71.7956 119.656 72.3229 119.539 72.7989 119.306C73.2843 119.063 73.6716 118.727 73.9609 118.298C74.2503 117.859 74.3949 117.351 74.3949 116.772V116.058L75.1369 116.73H71.1889V115.33H76.0329V116.31C76.0329 117.075 75.9023 117.761 75.6409 118.368C75.3796 118.965 75.0249 119.474 74.5769 119.894C74.1289 120.314 73.6156 120.631 73.0369 120.846C72.4583 121.061 71.8516 121.168 71.2169 121.168ZM77.5656 121V113.426H79.1476V121H77.5656ZM77.5656 112.39V110.57H79.1476V112.39H77.5656ZM84.2732 121.084C83.4799 121.084 82.8639 120.86 82.4252 120.412C81.9866 119.964 81.7672 119.334 81.7672 118.522V114.854H80.4372V113.426H80.6472C81.0019 113.426 81.2772 113.323 81.4732 113.118C81.6692 112.913 81.7672 112.633 81.7672 112.278V111.69H83.3492V113.426H85.0712V114.854H83.3492V118.452C83.3492 118.713 83.3912 118.937 83.4752 119.124C83.5592 119.301 83.6946 119.441 83.8812 119.544C84.0679 119.637 84.3106 119.684 84.6092 119.684C84.6839 119.684 84.7679 119.679 84.8612 119.67C84.9546 119.661 85.0432 119.651 85.1272 119.642V121C84.9966 121.019 84.8519 121.037 84.6932 121.056C84.5346 121.075 84.3946 121.084 84.2732 121.084Z" fill="#111000"/>
<defs>
<clipPath id="clip0_244_362">
<rect width="60" height="60" fill="#111000" transform="translate(45 37)"/>
</clipPath>
</defs>
</svg>
