<svg width="110" height="110" viewBox="0 0 150 150" fill="none" xmlns="http://www.w3.org/2000/svg">
<path d="M75 0L139.952 37.5V112.5L75 150L10.0481 112.5V37.5L75 0Z" fill="none"/>
<path d="M45 40H105L99.5429 93.9075L74.9343 100L50.4657 93.905L45 40ZM65.0886 64.375L64.4257 57.58L93.1657 57.5875L93.8229 51.0325L56.1771 51.025L58.1714 71.05H84.2457L83.3143 79.615L75 81.625L66.5571 79.6L66.02 74.325H58.5657L59.5086 84.7525L75 88.3775L90.3686 84.77L92.4943 64.3775H65.0886V64.375Z" fill="#F9EEE7"/>
<path d="M57.078 123V112.57H58.73V117.162H63.56V112.57H65.198V123H63.56V118.632H58.73V123H57.078ZM69.2073 123V114.04H66.4353V112.57H73.5753V114.04H70.8453V123H69.2073ZM74.8104 123V112.57H76.3504L80.2704 118.002H79.5004L83.3504 112.57H84.8904V123H83.2524V114.516L83.8684 114.684L79.9344 120.06H79.7664L75.9164 114.684L76.4624 114.516V123H74.8104ZM87.0468 123V112.57H88.6988V121.53H93.2068V123H87.0468Z" fill="white"/>
</svg>
