<svg width="110" height="110" viewBox="0 0 150 150" fill="none" xmlns="http://www.w3.org/2000/svg">
<path d="M75 0L139.952 37.5V112.5L75 150L10.0481 112.5V37.5L75 0Z" fill="none"/>
<g clip-path="url(#clip0_244_377)">
<path d="M45 35H105V95H45V35ZM100.085 80.69C99.6475 77.9525 97.865 75.6525 92.5775 73.5075C90.7375 72.645 88.6925 72.045 88.085 70.6575C87.8575 69.8325 87.8225 69.3825 87.97 68.895C88.345 67.28 90.2575 66.795 91.7575 67.245C92.7325 67.545 93.6325 68.295 94.1975 69.495C96.7825 67.805 96.7825 67.805 98.585 66.6825C97.91 65.6325 97.575 65.18 97.12 64.7325C95.545 62.97 93.4475 62.07 90.035 62.1475L88.2725 62.37C86.5825 62.7825 84.9725 63.6825 83.9975 64.8825C81.1475 68.11 81.97 73.735 85.42 76.06C88.8325 78.61 93.8225 79.17 94.46 81.5725C95.06 84.4975 92.285 85.435 89.545 85.0975C87.5175 84.6475 86.395 83.6325 85.1575 81.7575L80.5825 84.385C81.1075 85.585 81.7075 86.1075 82.6075 87.1575C86.9575 91.5475 97.8325 91.3225 99.785 84.6475C99.8575 84.4225 100.385 82.885 99.97 80.5225L100.085 80.69ZM77.6275 62.5775H72.0075C72.0075 67.4225 71.985 72.2375 71.985 77.09C71.985 80.17 72.1425 82.9975 71.64 83.8675C70.815 85.59 68.69 85.37 67.725 85.0675C66.735 84.5775 66.2325 83.9025 65.65 82.93C65.4925 82.6675 65.375 82.44 65.3325 82.44L60.77 85.2525C61.5325 86.8275 62.645 88.1825 64.08 89.045C66.2175 90.32 69.09 90.7325 72.0975 90.0575C74.055 89.4925 75.7425 88.33 76.625 86.53C77.9 84.205 77.63 81.355 77.6175 78.165C77.6475 73.03 77.6175 67.8925 77.6175 62.7175L77.6275 62.5775Z" fill="#111000"/>
</g>
<path d="M40.616 116V114.46H41.218C41.6847 114.46 42.058 114.325 42.338 114.054C42.618 113.774 42.758 113.401 42.758 112.934V105.57H44.396V112.878C44.396 113.513 44.2653 114.063 44.004 114.53C43.752 114.997 43.3833 115.361 42.898 115.622C42.422 115.874 41.862 116 41.218 116H40.616ZM48.6471 116.168C48.1337 116.168 47.6811 116.079 47.2891 115.902C46.9064 115.715 46.6077 115.463 46.3931 115.146C46.1784 114.819 46.0711 114.437 46.0711 113.998C46.0711 113.587 46.1597 113.219 46.3371 112.892C46.5237 112.565 46.8084 112.29 47.1911 112.066C47.5737 111.842 48.0544 111.683 48.6331 111.59L51.2651 111.156V112.402L48.9411 112.808C48.5211 112.883 48.2131 113.018 48.0171 113.214C47.8211 113.401 47.7231 113.643 47.7231 113.942C47.7231 114.231 47.8304 114.469 48.0451 114.656C48.2691 114.833 48.5537 114.922 48.8991 114.922C49.3284 114.922 49.7017 114.829 50.0191 114.642C50.3457 114.455 50.5977 114.208 50.7751 113.9C50.9524 113.583 51.0411 113.233 51.0411 112.85V110.904C51.0411 110.531 50.9011 110.227 50.6211 109.994C50.3504 109.751 49.9864 109.63 49.5291 109.63C49.1091 109.63 48.7404 109.742 48.4231 109.966C48.1151 110.181 47.8864 110.461 47.7371 110.806L46.4211 110.148C46.5611 109.775 46.7897 109.448 47.1071 109.168C47.4244 108.879 47.7931 108.655 48.2131 108.496C48.6424 108.337 49.0951 108.258 49.5711 108.258C50.1684 108.258 50.6957 108.37 51.1531 108.594C51.6197 108.818 51.9791 109.131 52.2311 109.532C52.4924 109.924 52.6231 110.381 52.6231 110.904V116H51.1111V114.628L51.4331 114.67C51.2557 114.978 51.0271 115.244 50.7471 115.468C50.4764 115.692 50.1637 115.865 49.8091 115.986C49.4637 116.107 49.0764 116.168 48.6471 116.168ZM56.5341 116L53.5661 108.426H55.2881L57.5701 114.6H56.9401L59.2221 108.426H60.9581L57.9761 116H56.5341ZM64.0279 116.168C63.5146 116.168 63.0619 116.079 62.6699 115.902C62.2873 115.715 61.9886 115.463 61.7739 115.146C61.5593 114.819 61.4519 114.437 61.4519 113.998C61.4519 113.587 61.5406 113.219 61.7179 112.892C61.9046 112.565 62.1893 112.29 62.5719 112.066C62.9546 111.842 63.4353 111.683 64.0139 111.59L66.6459 111.156V112.402L64.3219 112.808C63.9019 112.883 63.5939 113.018 63.3979 113.214C63.2019 113.401 63.1039 113.643 63.1039 113.942C63.1039 114.231 63.2113 114.469 63.4259 114.656C63.6499 114.833 63.9346 114.922 64.2799 114.922C64.7093 114.922 65.0826 114.829 65.3999 114.642C65.7266 114.455 65.9786 114.208 66.1559 113.9C66.3333 113.583 66.4219 113.233 66.4219 112.85V110.904C66.4219 110.531 66.2819 110.227 66.0019 109.994C65.7313 109.751 65.3673 109.63 64.9099 109.63C64.4899 109.63 64.1213 109.742 63.8039 109.966C63.4959 110.181 63.2673 110.461 63.1179 110.806L61.8019 110.148C61.9419 109.775 62.1706 109.448 62.4879 109.168C62.8053 108.879 63.1739 108.655 63.5939 108.496C64.0233 108.337 64.4759 108.258 64.9519 108.258C65.5493 108.258 66.0766 108.37 66.5339 108.594C67.0006 108.818 67.3599 109.131 67.6119 109.532C67.8733 109.924 68.0039 110.381 68.0039 110.904V116H66.4919V114.628L66.8139 114.67C66.6366 114.978 66.4079 115.244 66.1279 115.468C65.8573 115.692 65.5446 115.865 65.1899 115.986C64.8446 116.107 64.4573 116.168 64.0279 116.168ZM73.6617 116.168C73.0084 116.168 72.4017 116.047 71.8417 115.804C71.2817 115.552 70.8057 115.211 70.4137 114.782C70.0217 114.353 69.7324 113.858 69.5457 113.298L70.9457 112.71C71.1977 113.354 71.5664 113.849 72.0517 114.194C72.537 114.539 73.097 114.712 73.7317 114.712C74.105 114.712 74.4317 114.656 74.7117 114.544C74.9917 114.423 75.2064 114.255 75.3557 114.04C75.5144 113.825 75.5937 113.578 75.5937 113.298C75.5937 112.915 75.4864 112.612 75.2717 112.388C75.057 112.164 74.7397 111.987 74.3197 111.856L72.3597 111.24C71.5757 110.997 70.9784 110.629 70.5677 110.134C70.157 109.63 69.9517 109.042 69.9517 108.37C69.9517 107.782 70.0964 107.269 70.3857 106.83C70.675 106.382 71.0717 106.032 71.5757 105.78C72.089 105.528 72.6724 105.402 73.3257 105.402C73.951 105.402 74.5204 105.514 75.0337 105.738C75.547 105.953 75.9857 106.251 76.3497 106.634C76.723 107.017 76.9937 107.46 77.1617 107.964L75.7897 108.566C75.5844 108.015 75.2624 107.591 74.8237 107.292C74.3944 106.993 73.895 106.844 73.3257 106.844C72.9804 106.844 72.677 106.905 72.4157 107.026C72.1544 107.138 71.949 107.306 71.7997 107.53C71.6597 107.745 71.5897 107.997 71.5897 108.286C71.5897 108.622 71.697 108.921 71.9117 109.182C72.1264 109.443 72.453 109.639 72.8917 109.77L74.7117 110.344C75.5424 110.596 76.1677 110.96 76.5877 111.436C77.0077 111.903 77.2177 112.486 77.2177 113.186C77.2177 113.765 77.0637 114.278 76.7557 114.726C76.457 115.174 76.0417 115.529 75.5097 115.79C74.9777 116.042 74.3617 116.168 73.6617 116.168ZM82.5161 116.168C81.7601 116.168 81.0881 115.995 80.5001 115.65C79.9215 115.295 79.4595 114.819 79.1141 114.222C78.7781 113.625 78.6101 112.948 78.6101 112.192C78.6101 111.445 78.7781 110.773 79.1141 110.176C79.4501 109.579 79.9121 109.112 80.5001 108.776C81.0881 108.431 81.7601 108.258 82.5161 108.258C83.0295 108.258 83.5101 108.351 83.9581 108.538C84.4061 108.715 84.7935 108.963 85.1201 109.28C85.4561 109.597 85.7035 109.966 85.8621 110.386L84.4761 111.03C84.3175 110.638 84.0608 110.325 83.7061 110.092C83.3608 109.849 82.9641 109.728 82.5161 109.728C82.0868 109.728 81.6995 109.835 81.3541 110.05C81.0181 110.255 80.7521 110.549 80.5561 110.932C80.3601 111.305 80.2621 111.73 80.2621 112.206C80.2621 112.682 80.3601 113.111 80.5561 113.494C80.7521 113.867 81.0181 114.161 81.3541 114.376C81.6995 114.591 82.0868 114.698 82.5161 114.698C82.9735 114.698 83.3701 114.581 83.7061 114.348C84.0515 114.105 84.3081 113.783 84.4761 113.382L85.8621 114.04C85.7128 114.441 85.4701 114.805 85.1341 115.132C84.8075 115.449 84.4201 115.701 83.9721 115.888C83.5241 116.075 83.0388 116.168 82.5161 116.168ZM87.4084 116V108.426H88.9204V109.952L88.7804 109.728C88.9484 109.233 89.219 108.879 89.5924 108.664C89.9657 108.44 90.4137 108.328 90.9364 108.328H91.3984V109.77H90.7404C90.2177 109.77 89.793 109.933 89.4664 110.26C89.149 110.577 88.9904 111.035 88.9904 111.632V116H87.4084ZM92.4806 116V108.426H94.0626V116H92.4806ZM92.4806 107.39V105.57H94.0626V107.39H92.4806ZM95.9123 118.8V108.426H97.4243V109.994L97.2423 109.63C97.5223 109.201 97.8956 108.865 98.3623 108.622C98.8289 108.379 99.3609 108.258 99.9583 108.258C100.677 108.258 101.321 108.431 101.89 108.776C102.469 109.121 102.922 109.593 103.248 110.19C103.584 110.787 103.752 111.459 103.752 112.206C103.752 112.953 103.584 113.625 103.248 114.222C102.922 114.819 102.474 115.295 101.904 115.65C101.335 115.995 100.686 116.168 99.9583 116.168C99.3703 116.168 98.8336 116.047 98.3483 115.804C97.8723 115.561 97.5036 115.211 97.2423 114.754L97.4943 114.46V118.8H95.9123ZM99.8043 114.698C100.252 114.698 100.649 114.591 100.994 114.376C101.34 114.161 101.61 113.867 101.806 113.494C102.012 113.111 102.114 112.682 102.114 112.206C102.114 111.73 102.012 111.305 101.806 110.932C101.61 110.559 101.34 110.265 100.994 110.05C100.649 109.835 100.252 109.728 99.8043 109.728C99.3656 109.728 98.9689 109.835 98.6143 110.05C98.2689 110.265 97.9936 110.559 97.7883 110.932C97.5923 111.305 97.4943 111.73 97.4943 112.206C97.4943 112.682 97.5923 113.111 97.7883 113.494C97.9936 113.867 98.2689 114.161 98.6143 114.376C98.9689 114.591 99.3656 114.698 99.8043 114.698ZM108.43 116.084C107.637 116.084 107.021 115.86 106.582 115.412C106.144 114.964 105.924 114.334 105.924 113.522V109.854H104.594V108.426H104.804C105.159 108.426 105.434 108.323 105.63 108.118C105.826 107.913 105.924 107.633 105.924 107.278V106.69H107.506V108.426H109.228V109.854H107.506V113.452C107.506 113.713 107.548 113.937 107.632 114.124C107.716 114.301 107.852 114.441 108.038 114.544C108.225 114.637 108.468 114.684 108.766 114.684C108.841 114.684 108.925 114.679 109.018 114.67C109.112 114.661 109.2 114.651 109.284 114.642V116C109.154 116.019 109.009 116.037 108.85 116.056C108.692 116.075 108.552 116.084 108.43 116.084Z" fill="#000"/>
<defs>
<clipPath id="clip0_244_377">
<rect width="60" height="60" fill="#000" transform="translate(45 35)"/>
</clipPath>
</defs>
</svg>
