<svg width="110" height="110" viewBox="0 0 150 150" fill="none" xmlns="http://www.w3.org/2000/svg">
<path d="M75 0L139.952 37.5V112.5L75 150L10.0481 112.5V37.5L75 0Z" fill="none"/>
<g clip-path="url(#clip0_244_369)">
<path d="M91.6625 93.945C86.895 97.1375 81.1625 99 75 99C58.4425 99 45 85.5575 45 69C45 52.4425 58.4425 39 75 39C91.5575 39 105 52.4425 105 69C105 77.9575 101.065 86.0025 94.8325 91.5025L68.0475 57H63V80.99H67.0375V62.1275L91.6625 93.945ZM83.3325 72.6125L87.3325 77.765V57H83.3325V72.6125Z" fill="#F9EEE7"/>
</g>
<path d="M52.078 122V111.57H53.408L59.26 119.648L58.63 119.746V111.57H60.268V122H58.938L53.128 113.866L53.73 113.754V122H52.078ZM65.8296 122.168C65.0736 122.168 64.4016 121.995 63.8136 121.65C63.2349 121.295 62.7823 120.819 62.4556 120.222C62.1289 119.615 61.9656 118.939 61.9656 118.192C61.9656 117.427 62.1289 116.75 62.4556 116.162C62.7916 115.574 63.2396 115.112 63.7996 114.776C64.3596 114.431 64.9943 114.258 65.7036 114.258C66.2729 114.258 66.7816 114.356 67.2296 114.552C67.6776 114.748 68.0556 115.019 68.3636 115.364C68.6716 115.7 68.9049 116.087 69.0636 116.526C69.2316 116.965 69.3156 117.431 69.3156 117.926C69.3156 118.047 69.3109 118.173 69.3016 118.304C69.2923 118.435 69.2736 118.556 69.2456 118.668H63.2116V117.408H68.3496L67.5936 117.982C67.6869 117.525 67.6543 117.119 67.4956 116.764C67.3463 116.4 67.1129 116.115 66.7956 115.91C66.4876 115.695 66.1236 115.588 65.7036 115.588C65.2836 115.588 64.9103 115.695 64.5836 115.91C64.2569 116.115 64.0049 116.414 63.8276 116.806C63.6503 117.189 63.5803 117.655 63.6176 118.206C63.5709 118.719 63.6409 119.167 63.8276 119.55C64.0236 119.933 64.2943 120.231 64.6396 120.446C64.9943 120.661 65.3956 120.768 65.8436 120.768C66.3009 120.768 66.6883 120.665 67.0056 120.46C67.3323 120.255 67.5889 119.989 67.7756 119.662L69.0636 120.292C68.9143 120.647 68.6809 120.969 68.3636 121.258C68.0556 121.538 67.6823 121.762 67.2436 121.93C66.8143 122.089 66.3429 122.168 65.8296 122.168ZM69.9668 122L72.6128 118.206L69.9668 114.426H71.8288L73.9988 117.59H73.1028L75.2728 114.426H77.1348L74.4748 118.206L77.1208 122H75.2588L73.1168 118.822H73.9848L71.8288 122H69.9668ZM81.491 122.084C80.6977 122.084 80.0817 121.86 79.643 121.412C79.2043 120.964 78.985 120.334 78.985 119.522V115.854H77.655V114.426H77.865C78.2197 114.426 78.495 114.323 78.691 114.118C78.887 113.913 78.985 113.633 78.985 113.278V112.69H80.567V114.426H82.289V115.854H80.567V119.452C80.567 119.713 80.609 119.937 80.693 120.124C80.777 120.301 80.9123 120.441 81.099 120.544C81.2857 120.637 81.5283 120.684 81.827 120.684C81.9017 120.684 81.9857 120.679 82.079 120.67C82.1723 120.661 82.261 120.651 82.345 120.642V122C82.2143 122.019 82.0697 122.037 81.911 122.056C81.7523 122.075 81.6123 122.084 81.491 122.084ZM86.0281 122V120.46H86.6301C87.0968 120.46 87.4701 120.325 87.7501 120.054C88.0301 119.774 88.1701 119.401 88.1701 118.934V111.57H89.8081V118.878C89.8081 119.513 89.6774 120.063 89.4161 120.53C89.1641 120.997 88.7954 121.361 88.3101 121.622C87.8341 121.874 87.2741 122 86.6301 122H86.0281ZM95.5992 122.168C94.9459 122.168 94.3392 122.047 93.7792 121.804C93.2192 121.552 92.7432 121.211 92.3512 120.782C91.9592 120.353 91.6699 119.858 91.4832 119.298L92.8832 118.71C93.1352 119.354 93.5039 119.849 93.9892 120.194C94.4745 120.539 95.0345 120.712 95.6692 120.712C96.0425 120.712 96.3692 120.656 96.6492 120.544C96.9292 120.423 97.1439 120.255 97.2932 120.04C97.4519 119.825 97.5312 119.578 97.5312 119.298C97.5312 118.915 97.4239 118.612 97.2092 118.388C96.9945 118.164 96.6772 117.987 96.2572 117.856L94.2972 117.24C93.5132 116.997 92.9159 116.629 92.5052 116.134C92.0945 115.63 91.8892 115.042 91.8892 114.37C91.8892 113.782 92.0339 113.269 92.3232 112.83C92.6125 112.382 93.0092 112.032 93.5132 111.78C94.0265 111.528 94.6099 111.402 95.2632 111.402C95.8885 111.402 96.4579 111.514 96.9712 111.738C97.4845 111.953 97.9232 112.251 98.2872 112.634C98.6605 113.017 98.9312 113.46 99.0992 113.964L97.7272 114.566C97.5219 114.015 97.1999 113.591 96.7612 113.292C96.3319 112.993 95.8325 112.844 95.2632 112.844C94.9179 112.844 94.6145 112.905 94.3532 113.026C94.0919 113.138 93.8865 113.306 93.7372 113.53C93.5972 113.745 93.5272 113.997 93.5272 114.286C93.5272 114.622 93.6345 114.921 93.8492 115.182C94.0639 115.443 94.3905 115.639 94.8292 115.77L96.6492 116.344C97.4799 116.596 98.1052 116.96 98.5252 117.436C98.9452 117.903 99.1552 118.486 99.1552 119.186C99.1552 119.765 99.0012 120.278 98.6932 120.726C98.3945 121.174 97.9792 121.529 97.4472 121.79C96.9152 122.042 96.2992 122.168 95.5992 122.168Z" fill="white"/>
<defs>
<clipPath id="clip0_244_369">
<rect width="60" height="60" fill="white" transform="translate(45 39)"/>
</clipPath>
</defs>
</svg>
