<svg width="150" height="150" viewBox="0 0 150 150" fill="none" xmlns="http://www.w3.org/2000/svg">
<path d="M75 0L139.952 37.5V112.5L75 150L10.0481 112.5V37.5L75 0Z" fill="#001C55"/>
<g clip-path="url(#clip0_244_367)">
<path d="M74.995 90.9999C74.1925 90.9999 73.3925 90.7899 72.69 90.3824L65.35 86.0399C64.255 85.4274 64.79 85.2099 65.15 85.0824C66.6125 84.5749 66.9075 84.4574 68.47 83.5724C68.6325 83.4799 68.8475 83.5149 69.015 83.6149L74.655 86.9624C74.86 87.0749 75.1475 87.0749 75.335 86.9624L97.3225 74.2724C97.5275 74.1549 97.6575 73.9199 97.6575 73.6774V48.3024C97.6575 48.0549 97.525 47.8224 97.315 47.6974L75.3375 35.0174C75.135 34.8999 74.865 34.8999 74.66 35.0174L52.6875 47.6999C52.475 47.8224 52.34 48.0624 52.34 48.3024V73.6774C52.34 73.9199 52.475 74.1499 52.6875 74.2649L58.71 77.7449C61.9775 79.3799 63.98 77.4549 63.98 75.5199V50.4674C63.98 50.1124 64.265 49.8349 64.62 49.8349H67.4075C67.755 49.8349 68.045 50.1149 68.045 50.4674V75.5199C68.045 79.8824 65.67 82.3824 61.535 82.3824C60.265 82.3824 59.2625 82.3824 56.47 81.0049L50.7 77.6874C49.275 76.8649 48.395 75.3249 48.395 73.6774V48.3024C48.395 46.6549 49.2775 45.1149 50.7 44.2949L72.6875 31.5899C74.08 30.8024 75.9275 30.8024 77.3075 31.5899L99.2925 44.2949C100.718 45.1174 101.603 46.6549 101.603 48.3024V73.6774C101.603 75.3249 100.718 76.8599 99.2925 77.6874L77.3075 90.3824C76.6075 90.7899 75.81 90.9999 74.995 90.9999ZM92.7475 65.9824C92.7475 61.2324 89.5375 59.9674 82.78 59.0749C75.9525 58.1724 75.2575 57.7049 75.2575 56.1074C75.2575 54.7874 75.845 53.0249 80.9025 53.0249C85.42 53.0249 87.085 53.9974 87.77 57.0424C87.83 57.3299 88.0925 57.5399 88.3875 57.5399H91.24C91.4175 57.5399 91.585 57.4624 91.705 57.3374C91.825 57.2024 91.89 57.0299 91.8725 56.8474C91.43 51.6024 87.945 49.1574 80.9025 49.1574C74.6325 49.1574 70.8925 51.8024 70.8925 56.2399C70.8925 61.0524 74.6125 62.3824 80.63 62.9774C87.83 63.6824 88.3875 64.7349 88.3875 66.1499C88.3875 68.6074 86.415 69.6549 81.7825 69.6549C75.965 69.6549 74.685 68.1949 74.255 65.2999C74.205 64.9899 73.94 64.7624 73.6225 64.7624H70.78C70.4275 64.7624 70.145 65.0424 70.145 65.3949C70.145 69.0999 72.16 73.5149 81.7825 73.5149C88.7525 73.5174 92.7475 70.7749 92.7475 65.9824Z" fill="#F9EEE7"/>
</g>
<path d="M49.078 117V106.57H50.408L56.26 114.648L55.63 114.746V106.57H57.268V117H55.938L50.128 108.866L50.73 108.754V117H49.078ZM62.9276 117.168C62.1996 117.168 61.5323 116.995 60.9256 116.65C60.3283 116.305 59.8523 115.833 59.4976 115.236C59.1429 114.639 58.9656 113.962 58.9656 113.206C58.9656 112.441 59.1429 111.764 59.4976 111.176C59.8523 110.579 60.3283 110.112 60.9256 109.776C61.5229 109.431 62.1903 109.258 62.9276 109.258C63.6743 109.258 64.3416 109.431 64.9296 109.776C65.5269 110.112 65.9983 110.579 66.3436 111.176C66.6983 111.764 66.8756 112.441 66.8756 113.206C66.8756 113.971 66.6983 114.653 66.3436 115.25C65.9889 115.847 65.5129 116.319 64.9156 116.664C64.3183 117 63.6556 117.168 62.9276 117.168ZM62.9276 115.698C63.3756 115.698 63.7723 115.591 64.1176 115.376C64.4629 115.161 64.7336 114.867 64.9296 114.494C65.1349 114.111 65.2376 113.682 65.2376 113.206C65.2376 112.73 65.1349 112.305 64.9296 111.932C64.7336 111.559 64.4629 111.265 64.1176 111.05C63.7723 110.835 63.3756 110.728 62.9276 110.728C62.4889 110.728 62.0923 110.835 61.7376 111.05C61.3923 111.265 61.1169 111.559 60.9116 111.932C60.7156 112.305 60.6176 112.73 60.6176 113.206C60.6176 113.682 60.7156 114.111 60.9116 114.494C61.1169 114.867 61.3923 115.161 61.7376 115.376C62.0923 115.591 62.4889 115.698 62.9276 115.698ZM71.9201 117.168C71.1921 117.168 70.5388 116.995 69.9601 116.65C69.3908 116.295 68.9381 115.819 68.6021 115.222C68.2754 114.625 68.1121 113.953 68.1121 113.206C68.1121 112.459 68.2801 111.787 68.6161 111.19C68.9521 110.593 69.4048 110.121 69.9741 109.776C70.5434 109.431 71.1874 109.258 71.9061 109.258C72.5128 109.258 73.0494 109.379 73.5161 109.622C73.9828 109.865 74.3514 110.201 74.6221 110.63L74.3841 110.994V106.402H75.9521V117H74.4541V115.46L74.6361 115.754C74.3748 116.211 74.0014 116.561 73.5161 116.804C73.0308 117.047 72.4988 117.168 71.9201 117.168ZM72.0741 115.698C72.5128 115.698 72.9048 115.591 73.2501 115.376C73.6048 115.161 73.8801 114.867 74.0761 114.494C74.2814 114.111 74.3841 113.682 74.3841 113.206C74.3841 112.73 74.2814 112.305 74.0761 111.932C73.8801 111.559 73.6048 111.265 73.2501 111.05C72.9048 110.835 72.5128 110.728 72.0741 110.728C71.6354 110.728 71.2388 110.835 70.8841 111.05C70.5294 111.265 70.2541 111.559 70.0581 111.932C69.8621 112.305 69.7641 112.73 69.7641 113.206C69.7641 113.682 69.8621 114.111 70.0581 114.494C70.2541 114.867 70.5248 115.161 70.8701 115.376C71.2248 115.591 71.6261 115.698 72.0741 115.698ZM81.355 117.168C80.599 117.168 79.927 116.995 79.339 116.65C78.7603 116.295 78.3077 115.819 77.981 115.222C77.6543 114.615 77.491 113.939 77.491 113.192C77.491 112.427 77.6543 111.75 77.981 111.162C78.317 110.574 78.765 110.112 79.325 109.776C79.885 109.431 80.5197 109.258 81.229 109.258C81.7983 109.258 82.307 109.356 82.755 109.552C83.203 109.748 83.581 110.019 83.889 110.364C84.197 110.7 84.4303 111.087 84.589 111.526C84.757 111.965 84.841 112.431 84.841 112.926C84.841 113.047 84.8363 113.173 84.827 113.304C84.8177 113.435 84.799 113.556 84.771 113.668H78.737V112.408H83.875L83.119 112.982C83.2123 112.525 83.1797 112.119 83.021 111.764C82.8717 111.4 82.6383 111.115 82.321 110.91C82.013 110.695 81.649 110.588 81.229 110.588C80.809 110.588 80.4357 110.695 80.109 110.91C79.7823 111.115 79.5303 111.414 79.353 111.806C79.1757 112.189 79.1057 112.655 79.143 113.206C79.0963 113.719 79.1663 114.167 79.353 114.55C79.549 114.933 79.8197 115.231 80.165 115.446C80.5197 115.661 80.921 115.768 81.369 115.768C81.8263 115.768 82.2137 115.665 82.531 115.46C82.8577 115.255 83.1143 114.989 83.301 114.662L84.589 115.292C84.4397 115.647 84.2063 115.969 83.889 116.258C83.581 116.538 83.2077 116.762 82.769 116.93C82.3397 117.089 81.8683 117.168 81.355 117.168ZM88.5242 117V115.46H89.1262C89.5929 115.46 89.9662 115.325 90.2462 115.054C90.5262 114.774 90.6662 114.401 90.6662 113.934V106.57H92.3042V113.878C92.3042 114.513 92.1735 115.063 91.9122 115.53C91.6602 115.997 91.2915 116.361 90.8062 116.622C90.3302 116.874 89.7702 117 89.1262 117H88.5242ZM98.0953 117.168C97.4419 117.168 96.8353 117.047 96.2753 116.804C95.7153 116.552 95.2393 116.211 94.8473 115.782C94.4553 115.353 94.1659 114.858 93.9793 114.298L95.3793 113.71C95.6313 114.354 95.9999 114.849 96.4853 115.194C96.9706 115.539 97.5306 115.712 98.1653 115.712C98.5386 115.712 98.8653 115.656 99.1453 115.544C99.4253 115.423 99.6399 115.255 99.7893 115.04C99.9479 114.825 100.027 114.578 100.027 114.298C100.027 113.915 99.9199 113.612 99.7053 113.388C99.4906 113.164 99.1733 112.987 98.7533 112.856L96.7933 112.24C96.0093 111.997 95.4119 111.629 95.0013 111.134C94.5906 110.63 94.3853 110.042 94.3853 109.37C94.3853 108.782 94.5299 108.269 94.8193 107.83C95.1086 107.382 95.5053 107.032 96.0093 106.78C96.5226 106.528 97.1059 106.402 97.7593 106.402C98.3846 106.402 98.9539 106.514 99.4673 106.738C99.9806 106.953 100.419 107.251 100.783 107.634C101.157 108.017 101.427 108.46 101.595 108.964L100.223 109.566C100.018 109.015 99.6959 108.591 99.2573 108.292C98.8279 107.993 98.3286 107.844 97.7593 107.844C97.4139 107.844 97.1106 107.905 96.8493 108.026C96.5879 108.138 96.3826 108.306 96.2333 108.53C96.0933 108.745 96.0233 108.997 96.0233 109.286C96.0233 109.622 96.1306 109.921 96.3453 110.182C96.5599 110.443 96.8866 110.639 97.3253 110.77L99.1453 111.344C99.9759 111.596 100.601 111.96 101.021 112.436C101.441 112.903 101.651 113.486 101.651 114.186C101.651 114.765 101.497 115.278 101.189 115.726C100.891 116.174 100.475 116.529 99.9433 116.79C99.4113 117.042 98.7953 117.168 98.0953 117.168Z" fill="white"/>
<defs>
<clipPath id="clip0_244_367">
<rect width="60" height="60" fill="white" transform="translate(45 31)"/>
</clipPath>
</defs>
</svg>
