<svg width="110" height="110" viewBox="0 0 150 150" fill="none" xmlns="http://www.w3.org/2000/svg">
<path d="M75 0L139.952 37.5V112.5L75 150L10.0481 112.5V37.5L75 0Z" fill="none"/>
<path d="M70.7876 45.19L60.7621 40.1293L49.7596 45.6205L60.0561 50.7913L70.7876 45.19ZM75.3829 47.5092L85.8941 52.815L74.9886 58.2915L64.6761 53.112L75.3829 47.5092ZM89.4211 40.206L100.219 45.6205L90.5619 50.471L80.0291 45.158L89.4211 40.206ZM84.7736 37.8737L75.0526 33L65.4356 37.7982L75.4526 42.8503L84.7736 37.8737ZM77.1734 79.7345V93L88.9501 87.1232L88.9369 73.852L77.1734 79.7345ZM88.9326 69.2202L88.9196 56.0882L77.1734 61.9272V75.0638L88.9326 69.2202ZM103.071 66.759V80.0765L93.0264 85.0895L93.0191 71.8325L103.071 66.759ZM103.071 62.1025V49.0535L93.0076 54.056L93.0161 67.2143L103.071 62.1025ZM73.0156 61.9275L65.0834 57.939V75.1765C65.0834 75.1765 55.3824 54.5355 54.4836 52.6815C54.3679 52.4422 53.8909 52.1798 53.7691 52.116C52.0296 51.203 46.9326 48.6213 46.9326 48.6213V79.075L53.9836 82.844V66.9255C53.9836 66.9255 63.5816 85.3693 63.6786 85.5705C63.7759 85.7723 64.7399 87.716 65.7691 88.399C67.1404 89.3065 73.0171 92.8405 73.0171 92.8405L73.0156 61.9275Z" fill="#F9EEE7"/>
<path d="M52.078 120V109.57H53.408L59.26 117.648L58.63 117.746V109.57H60.268V120H58.938L53.128 111.866L53.73 111.754V120H52.078ZM64.9756 120.168C64.4063 120.168 63.9069 120.042 63.4776 119.79C63.0483 119.529 62.7123 119.169 62.4696 118.712C62.2363 118.245 62.1196 117.709 62.1196 117.102V112.426H63.7016V116.962C63.7016 117.307 63.7716 117.611 63.9116 117.872C64.0516 118.133 64.2476 118.339 64.4996 118.488C64.7516 118.628 65.0409 118.698 65.3676 118.698C65.7036 118.698 65.9976 118.623 66.2496 118.474C66.5016 118.325 66.6976 118.115 66.8376 117.844C66.9869 117.573 67.0616 117.256 67.0616 116.892V112.426H68.6296V120H67.1316V118.516L67.2996 118.712C67.1223 119.179 66.8283 119.538 66.4176 119.79C66.0069 120.042 65.5263 120.168 64.9756 120.168ZM70.4767 120V112.426H71.9887V114.064L71.7927 113.812C71.9514 113.299 72.2407 112.911 72.6607 112.65C73.0807 112.389 73.5614 112.258 74.1027 112.258C74.7094 112.258 75.2461 112.421 75.7127 112.748C76.1887 113.065 76.5061 113.49 76.6647 114.022L76.2167 114.064C76.4407 113.457 76.7814 113.005 77.2387 112.706C77.7054 112.407 78.2374 112.258 78.8347 112.258C79.3574 112.258 79.8287 112.379 80.2487 112.622C80.6781 112.865 81.0187 113.201 81.2707 113.63C81.5227 114.059 81.6487 114.549 81.6487 115.1V120H80.0667V115.534C80.0667 115.151 79.9967 114.829 79.8567 114.568C79.7261 114.297 79.5394 114.092 79.2967 113.952C79.0634 113.803 78.7881 113.728 78.4707 113.728C78.1534 113.728 77.8734 113.803 77.6307 113.952C77.3881 114.092 77.1967 114.297 77.0567 114.568C76.9167 114.839 76.8467 115.161 76.8467 115.534V120H75.2787V115.534C75.2787 115.151 75.2087 114.829 75.0687 114.568C74.9381 114.297 74.7514 114.092 74.5087 113.952C74.2754 113.803 73.9954 113.728 73.6687 113.728C73.3514 113.728 73.0714 113.803 72.8287 113.952C72.5861 114.092 72.3947 114.297 72.2547 114.568C72.1241 114.839 72.0587 115.161 72.0587 115.534V120H70.4767ZM83.342 122.8V112.426H84.854V113.994L84.672 113.63C84.952 113.201 85.3253 112.865 85.792 112.622C86.2586 112.379 86.7906 112.258 87.388 112.258C88.1066 112.258 88.7506 112.431 89.32 112.776C89.8986 113.121 90.3513 113.593 90.678 114.19C91.014 114.787 91.182 115.459 91.182 116.206C91.182 116.953 91.014 117.625 90.678 118.222C90.3513 118.819 89.9033 119.295 89.334 119.65C88.7646 119.995 88.116 120.168 87.388 120.168C86.8 120.168 86.2633 120.047 85.778 119.804C85.302 119.561 84.9333 119.211 84.672 118.754L84.924 118.46V122.8H83.342ZM87.234 118.698C87.682 118.698 88.0786 118.591 88.424 118.376C88.7693 118.161 89.04 117.867 89.236 117.494C89.4413 117.111 89.544 116.682 89.544 116.206C89.544 115.73 89.4413 115.305 89.236 114.932C89.04 114.559 88.7693 114.265 88.424 114.05C88.0786 113.835 87.682 113.728 87.234 113.728C86.7953 113.728 86.3986 113.835 86.044 114.05C85.6986 114.265 85.4233 114.559 85.218 114.932C85.022 115.305 84.924 115.73 84.924 116.206C84.924 116.682 85.022 117.111 85.218 117.494C85.4233 117.867 85.6986 118.161 86.044 118.376C86.3986 118.591 86.7953 118.698 87.234 118.698ZM93.2562 123.094C93.0695 123.094 92.8828 123.075 92.6962 123.038C92.5188 123.01 92.3555 122.963 92.2062 122.898V121.54C92.3182 121.568 92.4535 121.591 92.6122 121.61C92.7708 121.638 92.9248 121.652 93.0742 121.652C93.5128 121.652 93.8348 121.554 94.0402 121.358C94.2548 121.171 94.4462 120.877 94.6142 120.476L95.1182 119.328L95.0902 120.658L91.8142 112.426H93.5082L95.9302 118.74H95.3562L97.7642 112.426H99.4722L96.1262 120.826C95.9488 121.274 95.7248 121.666 95.4542 122.002C95.1928 122.347 94.8802 122.613 94.5162 122.8C94.1615 122.996 93.7415 123.094 93.2562 123.094Z" fill="white"/>
</svg>
