<svg width="110" height="110" viewBox="0 0 150 150" fill="none" xmlns="http://www.w3.org/2000/svg">
<path d="M75 0L139.952 37.5V112.5L75 150L10.0481 112.5V37.5L75 0Z" fill="none"/>
<path d="M87.305 40H93.8624V85.26H87.305V40ZM76.9899 72.35H83.5474V78.775H76.9899V72.35ZM76.9899 54.7575H83.5474V68.3725H76.9899V54.7575ZM76.9899 82.75H83.5474V96.365H76.9899V82.75ZM56.14 54.74H62.695V100H56.1375L56.14 54.74ZM66.6724 61.1375H73.2299V67.5625H66.675L66.6724 61.1375ZM66.6724 71.515H73.2299V85.1325H66.675L66.6724 71.515ZM66.6724 43.5475H73.2299V57.1625H66.675L66.6724 43.5475Z" fill="#F9EEE7"/>
<path d="M51.078 128V117.57H54.872C55.572 117.57 56.188 117.701 56.72 117.962C57.2613 118.214 57.6813 118.587 57.98 119.082C58.2787 119.567 58.428 120.151 58.428 120.832C58.428 121.504 58.274 122.083 57.966 122.568C57.6673 123.053 57.252 123.427 56.72 123.688C56.188 123.949 55.572 124.08 54.872 124.08H52.73V128H51.078ZM52.73 122.61H54.914C55.2873 122.61 55.614 122.535 55.894 122.386C56.174 122.237 56.3933 122.031 56.552 121.77C56.7107 121.499 56.79 121.182 56.79 120.818C56.79 120.454 56.7107 120.141 56.552 119.88C56.3933 119.609 56.174 119.404 55.894 119.264C55.614 119.115 55.2873 119.04 54.914 119.04H52.73V122.61ZM61.7506 128.168C61.2373 128.168 60.7846 128.079 60.3926 127.902C60.0099 127.715 59.7113 127.463 59.4966 127.146C59.2819 126.819 59.1746 126.437 59.1746 125.998C59.1746 125.587 59.2633 125.219 59.4406 124.892C59.6273 124.565 59.9119 124.29 60.2946 124.066C60.6773 123.842 61.1579 123.683 61.7366 123.59L64.3686 123.156V124.402L62.0446 124.808C61.6246 124.883 61.3166 125.018 61.1206 125.214C60.9246 125.401 60.8266 125.643 60.8266 125.942C60.8266 126.231 60.9339 126.469 61.1486 126.656C61.3726 126.833 61.6573 126.922 62.0026 126.922C62.4319 126.922 62.8053 126.829 63.1226 126.642C63.4493 126.455 63.7013 126.208 63.8786 125.9C64.0559 125.583 64.1446 125.233 64.1446 124.85V122.904C64.1446 122.531 64.0046 122.227 63.7246 121.994C63.4539 121.751 63.0899 121.63 62.6326 121.63C62.2126 121.63 61.8439 121.742 61.5266 121.966C61.2186 122.181 60.9899 122.461 60.8406 122.806L59.5246 122.148C59.6646 121.775 59.8933 121.448 60.2106 121.168C60.5279 120.879 60.8966 120.655 61.3166 120.496C61.7459 120.337 62.1986 120.258 62.6746 120.258C63.2719 120.258 63.7993 120.37 64.2566 120.594C64.7233 120.818 65.0826 121.131 65.3346 121.532C65.5959 121.924 65.7266 122.381 65.7266 122.904V128H64.2146V126.628L64.5366 126.67C64.3593 126.978 64.1306 127.244 63.8506 127.468C63.5799 127.692 63.2673 127.865 62.9126 127.986C62.5673 128.107 62.1799 128.168 61.7506 128.168ZM67.5763 128V120.426H69.0883V121.91L68.9063 121.714C69.093 121.238 69.3917 120.879 69.8023 120.636C70.213 120.384 70.689 120.258 71.2303 120.258C71.7903 120.258 72.285 120.379 72.7143 120.622C73.1437 120.865 73.4797 121.201 73.7223 121.63C73.965 122.059 74.0863 122.554 74.0863 123.114V128H72.5183V123.534C72.5183 123.151 72.4483 122.829 72.3083 122.568C72.1683 122.297 71.9677 122.092 71.7063 121.952C71.4543 121.803 71.165 121.728 70.8383 121.728C70.5117 121.728 70.2177 121.803 69.9563 121.952C69.7043 122.092 69.5083 122.297 69.3683 122.568C69.2283 122.839 69.1583 123.161 69.1583 123.534V128H67.5763ZM79.2795 128.168C78.5515 128.168 77.8981 127.995 77.3195 127.65C76.7501 127.295 76.2975 126.819 75.9615 126.222C75.6348 125.625 75.4715 124.953 75.4715 124.206C75.4715 123.459 75.6395 122.787 75.9755 122.19C76.3115 121.593 76.7641 121.121 77.3335 120.776C77.9028 120.431 78.5468 120.258 79.2655 120.258C79.8721 120.258 80.4088 120.379 80.8755 120.622C81.3421 120.865 81.7108 121.201 81.9815 121.63L81.7435 121.994V117.402H83.3115V128H81.8135V126.46L81.9955 126.754C81.7341 127.211 81.3608 127.561 80.8755 127.804C80.3901 128.047 79.8581 128.168 79.2795 128.168ZM79.4335 126.698C79.8721 126.698 80.2641 126.591 80.6095 126.376C80.9641 126.161 81.2395 125.867 81.4355 125.494C81.6408 125.111 81.7435 124.682 81.7435 124.206C81.7435 123.73 81.6408 123.305 81.4355 122.932C81.2395 122.559 80.9641 122.265 80.6095 122.05C80.2641 121.835 79.8721 121.728 79.4335 121.728C78.9948 121.728 78.5981 121.835 78.2435 122.05C77.8888 122.265 77.6135 122.559 77.4175 122.932C77.2215 123.305 77.1235 123.73 77.1235 124.206C77.1235 124.682 77.2215 125.111 77.4175 125.494C77.6135 125.867 77.8841 126.161 78.2295 126.376C78.5841 126.591 78.9855 126.698 79.4335 126.698ZM87.4264 128.168C86.913 128.168 86.4604 128.079 86.0684 127.902C85.6857 127.715 85.387 127.463 85.1724 127.146C84.9577 126.819 84.8504 126.437 84.8504 125.998C84.8504 125.587 84.939 125.219 85.1164 124.892C85.303 124.565 85.5877 124.29 85.9704 124.066C86.353 123.842 86.8337 123.683 87.4124 123.59L90.0444 123.156V124.402L87.7204 124.808C87.3004 124.883 86.9924 125.018 86.7964 125.214C86.6004 125.401 86.5024 125.643 86.5024 125.942C86.5024 126.231 86.6097 126.469 86.8244 126.656C87.0484 126.833 87.333 126.922 87.6784 126.922C88.1077 126.922 88.481 126.829 88.7984 126.642C89.125 126.455 89.377 126.208 89.5544 125.9C89.7317 125.583 89.8204 125.233 89.8204 124.85V122.904C89.8204 122.531 89.6804 122.227 89.4004 121.994C89.1297 121.751 88.7657 121.63 88.3084 121.63C87.8884 121.63 87.5197 121.742 87.2024 121.966C86.8944 122.181 86.6657 122.461 86.5164 122.806L85.2004 122.148C85.3404 121.775 85.569 121.448 85.8864 121.168C86.2037 120.879 86.5724 120.655 86.9924 120.496C87.4217 120.337 87.8744 120.258 88.3504 120.258C88.9477 120.258 89.475 120.37 89.9324 120.594C90.399 120.818 90.7584 121.131 91.0104 121.532C91.2717 121.924 91.4024 122.381 91.4024 122.904V128H89.8904V126.628L90.2124 126.67C90.035 126.978 89.8064 127.244 89.5264 127.468C89.2557 127.692 88.943 127.865 88.5884 127.986C88.243 128.107 87.8557 128.168 87.4264 128.168ZM96.0521 128.168C95.2775 128.168 94.5961 127.977 94.0081 127.594C93.4295 127.211 93.0235 126.698 92.7901 126.054L94.0081 125.48C94.2135 125.909 94.4935 126.25 94.8481 126.502C95.2121 126.754 95.6135 126.88 96.0521 126.88C96.4255 126.88 96.7288 126.796 96.9621 126.628C97.1955 126.46 97.3121 126.231 97.3121 125.942C97.3121 125.755 97.2608 125.606 97.1581 125.494C97.0555 125.373 96.9248 125.275 96.7661 125.2C96.6168 125.125 96.4628 125.069 96.3041 125.032L95.1141 124.696C94.4608 124.509 93.9708 124.229 93.6441 123.856C93.3268 123.473 93.1681 123.03 93.1681 122.526C93.1681 122.069 93.2848 121.672 93.5181 121.336C93.7515 120.991 94.0735 120.725 94.4841 120.538C94.8948 120.351 95.3568 120.258 95.8701 120.258C96.5608 120.258 97.1768 120.431 97.7181 120.776C98.2595 121.112 98.6421 121.583 98.8661 122.19L97.6481 122.764C97.4988 122.4 97.2608 122.111 96.9341 121.896C96.6168 121.681 96.2575 121.574 95.8561 121.574C95.5108 121.574 95.2355 121.658 95.0301 121.826C94.8248 121.985 94.7221 122.195 94.7221 122.456C94.7221 122.633 94.7688 122.783 94.8621 122.904C94.9555 123.016 95.0768 123.109 95.2261 123.184C95.3755 123.249 95.5295 123.305 95.6881 123.352L96.9201 123.716C97.5455 123.893 98.0261 124.173 98.3621 124.556C98.6981 124.929 98.8661 125.377 98.8661 125.9C98.8661 126.348 98.7448 126.745 98.5021 127.09C98.2688 127.426 97.9421 127.692 97.5221 127.888C97.1021 128.075 96.6121 128.168 96.0521 128.168Z" fill="white"/>
</svg>
