<svg width="110" height="110" viewBox="0 0 150 150" fill="none" xmlns="http://www.w3.org/2000/svg">
<path d="M75 0L139.952 37.5V112.5L75 150L10.0481 112.5V37.5L75 0Z" fill="none"/>
<g clip-path="url(#clip0_244_361)">
<path d="M78.8171 39.247C62.3871 37.1395 47.3546 48.7495 45.2471 65.182C43.1396 81.612 54.7471 96.642 71.1796 98.752C87.6121 100.86 102.647 89.2495 104.75 72.817C106.86 56.387 95.2521 41.357 78.8171 39.247ZM84.9946 57.9595C84.4379 57.9668 83.906 58.1911 83.5121 58.5845L72.3796 69.717L71.6121 68.9495L70.0046 67.342C80.9771 56.402 82.9546 56.297 84.9946 57.9595ZM72.8371 70.112L83.9371 59.012C84.0826 58.8594 84.2576 58.7381 84.4516 58.6556C84.6456 58.573 84.8544 58.5308 85.0652 58.5317C85.276 58.5325 85.4845 58.5764 85.6778 58.6606C85.8711 58.7447 86.0451 58.8675 86.1894 59.0212C86.3336 59.175 86.445 59.3566 86.5166 59.5549C86.5883 59.7532 86.6187 59.964 86.6061 60.1744C86.5935 60.3849 86.5381 60.5905 86.4432 60.7788C86.3484 60.9671 86.2162 61.1341 86.0546 61.2695L74.3071 71.582L72.8371 70.112ZM73.6621 71.847L70.9121 72.442C70.8792 72.4494 70.8448 72.4456 70.8145 72.431C70.7841 72.4165 70.7595 72.3922 70.7446 72.362C70.7279 72.3332 70.7212 72.2995 70.7258 72.2665C70.7303 72.2334 70.7457 72.2028 70.7696 72.1795L72.3821 70.567L73.6621 71.847ZM66.6546 70.6995L69.5846 67.7695L71.7821 69.9645L66.8346 71.0295C66.7933 71.0402 66.7497 71.0364 66.711 71.0186C66.6723 71.0008 66.6409 70.9703 66.6221 70.932C66.5988 70.8958 66.5892 70.8524 66.5952 70.8098C66.6012 70.7671 66.6222 70.728 66.6546 70.6995ZM57.5396 85.8445C57.5146 85.8423 57.4903 85.8352 57.4681 85.8236C57.4458 85.8119 57.4261 85.796 57.4101 85.7767C57.3941 85.7574 57.382 85.7352 57.3746 85.7112C57.3672 85.6872 57.3647 85.662 57.3671 85.637C57.3718 85.5936 57.3912 85.553 57.4221 85.522H57.4271L59.7921 83.157L62.8471 86.212L57.5396 85.8445ZM63.6021 82.7045C63.4887 82.7631 63.3983 82.858 63.3453 82.974C63.2922 83.09 63.2797 83.2205 63.3096 83.3445L63.8171 85.507C63.8335 85.5737 63.8275 85.6438 63.8 85.7067C63.7726 85.7696 63.7252 85.8217 63.6652 85.855C63.6052 85.8883 63.5359 85.9009 63.468 85.8908C63.4001 85.8808 63.3374 85.8487 63.2896 85.7995H63.2821L60.9471 83.4645L60.2121 82.727L69.6171 73.332L74.1671 72.3495L76.3521 74.5345C73.2146 77.2895 68.9246 80.037 63.6021 82.7045ZM76.7996 74.1345H76.7946L74.6971 72.037L86.4446 61.7245C86.5532 61.628 86.6528 61.5217 86.7421 61.407C86.3721 64.7695 81.6696 69.5195 76.7996 74.1345ZM85.9421 57.9845L85.9346 57.9795C85.108 57.149 84.6333 56.0319 84.6091 54.8605C84.5849 53.689 85.013 52.5533 85.8045 51.6893C86.5961 50.8254 87.6901 50.2997 88.8592 50.2215C90.0283 50.1433 91.1826 50.5187 92.0821 51.2695L88.0571 55.302C88.0292 55.3297 88.007 55.3626 87.9919 55.3989C87.9768 55.4351 87.9691 55.474 87.9691 55.5133C87.9691 55.5526 87.9768 55.5915 87.9919 55.6277C88.007 55.664 88.0292 55.6969 88.0571 55.7245L91.1746 58.842C90.3225 59.265 89.359 59.4098 88.4202 59.2559C87.4814 59.1021 86.6146 58.6574 85.9421 57.9845ZM92.3871 57.9845C92.1803 58.1887 91.9533 58.3713 91.7096 58.5295L88.6896 55.512L92.5221 51.6795C94.1746 53.4795 94.1146 56.2595 92.3871 57.9845ZM92.1371 54.1245C92.077 54.1681 92.0319 54.2293 92.0082 54.2996C91.9844 54.37 91.9832 54.4459 92.0046 54.517C92.0936 54.6973 92.1284 54.8995 92.1049 55.0992C92.0814 55.2988 92.0005 55.4874 91.8721 55.642C91.8434 55.6781 91.8222 55.7195 91.8096 55.7638C91.797 55.8081 91.7932 55.8545 91.7986 55.9002C91.8039 55.946 91.8182 55.9902 91.8407 56.0304C91.8632 56.0706 91.8934 56.106 91.9296 56.1345C91.9896 56.1816 92.0633 56.2079 92.1396 56.2095C92.1902 56.2091 92.24 56.1977 92.2858 56.1761C92.3315 56.1545 92.3721 56.1233 92.4046 56.0845C92.6193 55.8265 92.7542 55.5116 92.7929 55.1782C92.8315 54.8447 92.7721 54.5073 92.6221 54.207C92.5959 54.1695 92.5625 54.1375 92.5238 54.1129C92.4852 54.0884 92.442 54.0718 92.3969 54.0641C92.3517 54.0565 92.3055 54.0578 92.2609 54.0682C92.2163 54.0786 92.1742 54.0977 92.1371 54.1245Z" fill="#F9EEE7"/>
</g>
<path d="M46.078 121V110.57H49.872C50.572 110.57 51.188 110.701 51.72 110.962C52.2613 111.214 52.6813 111.587 52.98 112.082C53.2787 112.567 53.428 113.151 53.428 113.832C53.428 114.504 53.274 115.083 52.966 115.568C52.6673 116.053 52.252 116.427 51.72 116.688C51.188 116.949 50.572 117.08 49.872 117.08H47.73V121H46.078ZM47.73 115.61H49.914C50.2873 115.61 50.614 115.535 50.894 115.386C51.174 115.237 51.3933 115.031 51.552 114.77C51.7107 114.499 51.79 114.182 51.79 113.818C51.79 113.454 51.7107 113.141 51.552 112.88C51.3933 112.609 51.174 112.404 50.894 112.264C50.614 112.115 50.2873 112.04 49.914 112.04H47.73V115.61ZM58.3553 121.168C57.6273 121.168 56.96 120.995 56.3533 120.65C55.756 120.305 55.28 119.833 54.9253 119.236C54.5707 118.639 54.3933 117.962 54.3933 117.206C54.3933 116.441 54.5707 115.764 54.9253 115.176C55.28 114.579 55.756 114.112 56.3533 113.776C56.9507 113.431 57.618 113.258 58.3553 113.258C59.102 113.258 59.7693 113.431 60.3573 113.776C60.9547 114.112 61.426 114.579 61.7713 115.176C62.126 115.764 62.3033 116.441 62.3033 117.206C62.3033 117.971 62.126 118.653 61.7713 119.25C61.4167 119.847 60.9407 120.319 60.3433 120.664C59.746 121 59.0833 121.168 58.3553 121.168ZM58.3553 119.698C58.8033 119.698 59.2 119.591 59.5453 119.376C59.8907 119.161 60.1613 118.867 60.3573 118.494C60.5627 118.111 60.6653 117.682 60.6653 117.206C60.6653 116.73 60.5627 116.305 60.3573 115.932C60.1613 115.559 59.8907 115.265 59.5453 115.05C59.2 114.835 58.8033 114.728 58.3553 114.728C57.9167 114.728 57.52 114.835 57.1653 115.05C56.82 115.265 56.5447 115.559 56.3393 115.932C56.1433 116.305 56.0453 116.73 56.0453 117.206C56.0453 117.682 56.1433 118.111 56.3393 118.494C56.5447 118.867 56.82 119.161 57.1653 119.376C57.52 119.591 57.9167 119.698 58.3553 119.698ZM66.6478 121.168C65.8732 121.168 65.1918 120.977 64.6038 120.594C64.0252 120.211 63.6192 119.698 63.3858 119.054L64.6038 118.48C64.8092 118.909 65.0892 119.25 65.4438 119.502C65.8078 119.754 66.2092 119.88 66.6478 119.88C67.0212 119.88 67.3245 119.796 67.5578 119.628C67.7912 119.46 67.9078 119.231 67.9078 118.942C67.9078 118.755 67.8565 118.606 67.7538 118.494C67.6512 118.373 67.5205 118.275 67.3618 118.2C67.2125 118.125 67.0585 118.069 66.8998 118.032L65.7098 117.696C65.0565 117.509 64.5665 117.229 64.2398 116.856C63.9225 116.473 63.7638 116.03 63.7638 115.526C63.7638 115.069 63.8805 114.672 64.1138 114.336C64.3472 113.991 64.6692 113.725 65.0798 113.538C65.4905 113.351 65.9525 113.258 66.4658 113.258C67.1565 113.258 67.7725 113.431 68.3138 113.776C68.8552 114.112 69.2378 114.583 69.4618 115.19L68.2438 115.764C68.0945 115.4 67.8565 115.111 67.5298 114.896C67.2125 114.681 66.8532 114.574 66.4518 114.574C66.1065 114.574 65.8312 114.658 65.6258 114.826C65.4205 114.985 65.3178 115.195 65.3178 115.456C65.3178 115.633 65.3645 115.783 65.4578 115.904C65.5512 116.016 65.6725 116.109 65.8218 116.184C65.9712 116.249 66.1252 116.305 66.2838 116.352L67.5158 116.716C68.1412 116.893 68.6218 117.173 68.9578 117.556C69.2938 117.929 69.4618 118.377 69.4618 118.9C69.4618 119.348 69.3405 119.745 69.0978 120.09C68.8645 120.426 68.5378 120.692 68.1178 120.888C67.6978 121.075 67.2078 121.168 66.6478 121.168ZM74.2879 121.084C73.4946 121.084 72.8786 120.86 72.4399 120.412C72.0012 119.964 71.7819 119.334 71.7819 118.522V114.854H70.4519V113.426H70.6619C71.0166 113.426 71.2919 113.323 71.4879 113.118C71.6839 112.913 71.7819 112.633 71.7819 112.278V111.69H73.3639V113.426H75.0859V114.854H73.3639V118.452C73.3639 118.713 73.4059 118.937 73.4899 119.124C73.5739 119.301 73.7092 119.441 73.8959 119.544C74.0826 119.637 74.3252 119.684 74.6239 119.684C74.6986 119.684 74.7826 119.679 74.8759 119.67C74.9692 119.661 75.0579 119.651 75.1419 119.642V121C75.0112 121.019 74.8666 121.037 74.7079 121.056C74.5492 121.075 74.4092 121.084 74.2879 121.084ZM76.6857 121V113.426H78.1977V115.064L78.0017 114.812C78.1604 114.299 78.4497 113.911 78.8697 113.65C79.2897 113.389 79.7704 113.258 80.3117 113.258C80.9184 113.258 81.4551 113.421 81.9217 113.748C82.3977 114.065 82.7151 114.49 82.8737 115.022L82.4257 115.064C82.6497 114.457 82.9904 114.005 83.4477 113.706C83.9144 113.407 84.4464 113.258 85.0437 113.258C85.5664 113.258 86.0377 113.379 86.4577 113.622C86.8871 113.865 87.2277 114.201 87.4797 114.63C87.7317 115.059 87.8577 115.549 87.8577 116.1V121H86.2757V116.534C86.2757 116.151 86.2057 115.829 86.0657 115.568C85.9351 115.297 85.7484 115.092 85.5057 114.952C85.2724 114.803 84.9971 114.728 84.6797 114.728C84.3624 114.728 84.0824 114.803 83.8397 114.952C83.5971 115.092 83.4057 115.297 83.2657 115.568C83.1257 115.839 83.0557 116.161 83.0557 116.534V121H81.4877V116.534C81.4877 116.151 81.4177 115.829 81.2777 115.568C81.1471 115.297 80.9604 115.092 80.7177 114.952C80.4844 114.803 80.2044 114.728 79.8777 114.728C79.5604 114.728 79.2804 114.803 79.0377 114.952C78.7951 115.092 78.6037 115.297 78.4637 115.568C78.3331 115.839 78.2677 116.161 78.2677 116.534V121H76.6857ZM91.819 121.168C91.3056 121.168 90.853 121.079 90.461 120.902C90.0783 120.715 89.7796 120.463 89.565 120.146C89.3503 119.819 89.243 119.437 89.243 118.998C89.243 118.587 89.3316 118.219 89.509 117.892C89.6956 117.565 89.9803 117.29 90.363 117.066C90.7456 116.842 91.2263 116.683 91.805 116.59L94.437 116.156V117.402L92.113 117.808C91.693 117.883 91.385 118.018 91.189 118.214C90.993 118.401 90.895 118.643 90.895 118.942C90.895 119.231 91.0023 119.469 91.217 119.656C91.441 119.833 91.7256 119.922 92.071 119.922C92.5003 119.922 92.8736 119.829 93.191 119.642C93.5176 119.455 93.7696 119.208 93.947 118.9C94.1243 118.583 94.213 118.233 94.213 117.85V115.904C94.213 115.531 94.073 115.227 93.793 114.994C93.5223 114.751 93.1583 114.63 92.701 114.63C92.281 114.63 91.9123 114.742 91.595 114.966C91.287 115.181 91.0583 115.461 90.909 115.806L89.593 115.148C89.733 114.775 89.9616 114.448 90.279 114.168C90.5963 113.879 90.965 113.655 91.385 113.496C91.8143 113.337 92.267 113.258 92.743 113.258C93.3403 113.258 93.8676 113.37 94.325 113.594C94.7916 113.818 95.151 114.131 95.403 114.532C95.6643 114.924 95.795 115.381 95.795 115.904V121H94.283V119.628L94.605 119.67C94.4276 119.978 94.199 120.244 93.919 120.468C93.6483 120.692 93.3356 120.865 92.981 120.986C92.6356 121.107 92.2483 121.168 91.819 121.168ZM97.6447 121V113.426H99.1567V114.91L98.9747 114.714C99.1614 114.238 99.46 113.879 99.8707 113.636C100.281 113.384 100.757 113.258 101.299 113.258C101.859 113.258 102.353 113.379 102.783 113.622C103.212 113.865 103.548 114.201 103.791 114.63C104.033 115.059 104.155 115.554 104.155 116.114V121H102.587V116.534C102.587 116.151 102.517 115.829 102.377 115.568C102.237 115.297 102.036 115.092 101.775 114.952C101.523 114.803 101.233 114.728 100.907 114.728C100.58 114.728 100.286 114.803 100.025 114.952C99.7727 115.092 99.5767 115.297 99.4367 115.568C99.2967 115.839 99.2267 116.161 99.2267 116.534V121H97.6447Z" fill="white"/>
<defs>
<clipPath id="clip0_244_361">
<rect width="60" height="60" fill="white" transform="translate(45 39)"/>
</clipPath>
</defs>
</svg>
