<svg width="150" height="150" viewBox="0 0 150 150" fill="none" xmlns="http://www.w3.org/2000/svg">
<path d="M75 0L139.952 37.5V112.5L75 150L10.0481 112.5V37.5L75 0Z" fill="#001C55"/>
<g clip-path="url(#clip0_244_374)">
<path d="M103.898 73.807C103.864 73.7023 103.817 73.6022 103.758 73.5093C103.41 72.8512 102.566 72.6548 101.239 72.929C97.106 73.7818 95.5055 73.257 94.9252 72.8813C98.2802 67.7608 101.038 61.5763 102.528 55.807C103.206 53.1803 104.523 46.9978 102.833 43.978C102.726 43.7713 102.599 43.5747 102.456 43.3905C99.2327 39.2715 94.5017 37.062 88.7747 37.0013C85.038 36.9618 81.8485 37.8665 80.9845 38.1998C80.5565 38.1199 80.1265 38.0519 79.6947 37.9958C78.6125 37.7998 77.516 37.6929 76.4162 37.6763C73.4607 37.6303 70.9067 38.3368 68.7917 39.7778C66.6485 38.975 56.8197 35.6653 50.737 39.9748C47.3397 42.3815 45.7715 46.6833 46.0755 52.7608C46.1777 54.8058 47.3427 61.0958 49.1812 67.1198C50.3307 70.886 51.528 73.8745 52.7647 76.0748C54.1472 78.5603 55.5795 80.058 57.0505 80.5485C58.169 80.9213 59.8822 80.9088 61.6957 78.7288C63.6987 76.32 65.6715 74.1643 66.5572 73.2115C67.645 73.8003 68.8232 74.1178 70.0322 74.1545C70.0325 74.1579 70.0328 74.1614 70.0332 74.1648C69.8227 74.4156 69.6167 74.6701 69.4152 74.9283C68.568 76.0038 68.3917 76.2275 65.6647 76.789C64.8892 76.949 62.8287 77.3738 62.7987 78.8178C62.7925 79.1238 62.881 79.395 63.0285 79.6348C63.5957 80.6925 65.3325 81.159 65.566 81.2175C68.9022 82.0513 71.827 81.4475 73.9945 79.5208C73.952 85.0983 74.1882 90.5643 74.858 92.2393C75.411 93.6215 76.7625 97.0005 81.031 97C81.6572 97 82.3467 96.9273 83.105 96.7648C87.5597 95.8095 89.4942 93.8408 90.2425 89.5C90.6182 87.3233 91.2465 82.3118 91.5895 79.247C91.6317 79.0713 91.6787 78.9453 91.732 78.9065C91.7337 78.9053 91.9062 78.7888 92.8 78.9833C92.8365 78.9912 92.8735 78.9968 92.9107 79.0003L93.5455 79.056L93.5827 79.0585C95.6997 79.1545 98.3612 78.702 99.9107 77.9815C101.52 77.2345 104.425 75.4008 103.898 73.807ZM50.9275 66.6913C49.0687 60.6018 47.9827 54.4785 47.8967 52.7615C47.6252 47.333 48.9395 43.5543 51.8025 41.5298C56.3942 38.2833 63.902 40.1778 67.0725 41.2048C67.0645 41.2128 67.056 41.22 67.048 41.2283C61.9885 46.3383 62.1085 55.0683 62.121 55.602C62.1205 55.8078 62.1375 56.0993 62.1615 56.5003C62.2485 57.9685 62.4105 60.7013 61.9777 63.7963C61.5755 66.6723 62.462 69.4873 64.4097 71.5193C64.6112 71.7295 64.8217 71.927 65.0392 72.1128C64.1722 73.0413 62.2882 75.0943 60.283 77.5068C58.8637 79.213 57.8837 78.886 57.5615 78.7785C56.5817 78.4518 55.529 77.3108 54.4662 75.4728C53.2672 73.3753 52.0575 70.3935 50.9275 66.6913ZM65.9455 79.409C65.5177 79.302 65.1277 79.126 64.865 78.966C65.0872 78.8675 65.4585 78.7405 66.0732 78.6138C69.2815 77.9535 69.777 77.4873 70.859 76.1133C71.107 75.7983 71.388 75.4415 71.7772 75.0068C71.861 74.9129 71.9238 74.8023 71.9615 74.6823C72.3885 74.304 72.6425 74.4075 73.0537 74.578C73.4437 74.7395 73.8232 75.228 73.9775 75.766C74.0502 76.02 74.1322 76.5023 73.8645 76.877C71.6037 80.0415 68.3105 80.0005 65.9455 79.409ZM71.1805 69.439L71.0492 69.7915C70.7167 70.683 70.4075 71.5118 70.2157 72.299C68.5472 72.2938 66.9237 71.581 65.6895 70.293C64.1197 68.6553 63.4067 66.377 63.7332 64.042C64.1902 60.7723 64.0215 57.925 63.9307 56.3955C63.9182 56.1813 63.907 55.9938 63.9002 55.8458C64.6395 55.1905 68.065 53.3553 70.5075 53.9148C71.6222 54.1703 72.3015 54.929 72.5837 56.2348C74.0452 62.9943 72.7772 65.8115 71.7582 68.0755C71.5482 68.542 71.35 68.9828 71.1805 69.439ZM89.5897 80.8703C89.5475 81.3123 89.5002 81.8103 89.4352 82.36L89.0702 83.4558C89.0413 83.5426 89.0259 83.6334 89.0247 83.725C89.01 84.9118 88.8897 85.3473 88.7372 85.8983C88.5787 86.4713 88.399 87.121 88.2887 88.542C88.0137 92.0778 86.0932 94.1088 82.2457 94.9333C78.457 95.746 77.785 93.6913 77.1927 91.879C77.1321 91.689 77.068 91.5002 77.0005 91.3125C76.462 89.848 76.5227 87.7828 76.607 84.9248C76.6482 83.5218 76.5447 80.1715 75.7815 78.3093C75.7925 77.5763 75.808 76.832 75.829 76.0798C75.8315 75.9845 75.8186 75.8894 75.7907 75.7983C75.7666 75.6225 75.7299 75.4488 75.681 75.2783C75.3745 74.2075 74.6277 73.3118 73.7317 72.9405C73.3757 72.793 72.7222 72.5225 71.9372 72.7233C72.1047 72.0333 72.395 71.2545 72.7097 70.411L72.842 70.056C72.9907 69.656 73.177 69.2418 73.3745 68.803C74.4407 66.434 75.901 63.1898 74.316 55.86C73.7225 53.1148 71.74 51.7743 68.735 52.0855C66.9332 52.272 65.2852 52.999 64.463 53.4158C64.2981 53.4993 64.135 53.5861 63.9735 53.676C64.203 50.91 65.07 45.7408 68.3127 42.4703C68.5536 42.2275 68.8067 41.9972 69.071 41.7803C69.2022 41.7547 69.3259 41.6996 69.4327 41.6193C71.3137 40.1928 73.669 39.4928 76.4377 39.538C77.4605 39.5548 78.442 39.6228 79.3732 39.7405C84.2207 40.6265 87.483 43.3575 89.463 45.6973C91.4987 48.103 92.601 50.526 93.041 51.833C89.733 51.4965 87.4825 52.15 86.3417 53.7805C83.8602 57.3278 87.6992 64.2128 89.5445 67.5215C89.8827 68.128 90.175 68.652 90.2667 68.8748C90.8675 70.331 91.6455 71.303 92.2135 72.0128C92.3875 72.2303 92.5565 72.4413 92.6847 72.6253C91.6827 72.914 89.8827 73.5815 90.0467 76.9178C90.016 77.3085 89.941 78.035 89.8382 78.9548C89.723 79.474 89.6627 80.1055 89.5897 80.8703ZM91.816 76.8175C91.7147 74.7385 92.4887 74.5213 93.3077 74.2913C93.4211 74.2602 93.5336 74.2264 93.6452 74.1898C93.7509 74.2834 93.863 74.3694 93.9807 74.4473C95.4065 75.3885 97.9365 75.5005 101.498 74.7833C100.994 75.2255 100.2 75.7818 99.1145 76.286C98.09 76.7618 96.3752 77.1185 94.7462 77.195C92.947 77.279 92.0315 76.9933 91.816 76.8175ZM93.2397 53.6395C93.225 54.5165 93.1042 55.3125 92.9762 56.1438C92.8387 57.0378 92.6962 57.9623 92.6602 59.0843C92.6247 60.1763 92.7612 61.3115 92.8932 62.4095C93.1597 64.627 93.4332 66.9103 92.3745 69.163C92.1988 68.8515 92.0421 68.5296 91.9055 68.199C91.7737 67.88 91.4882 67.3675 91.0927 66.6585C89.5537 63.8983 85.9492 57.4345 87.7945 54.797C88.7432 53.4403 91.1465 53.3818 93.2397 53.6395ZM93.8107 71.1738C93.7402 71.0839 93.6691 70.9944 93.5975 70.9053L93.5087 70.7943C95.3242 67.7955 94.9692 64.8288 94.6532 62.198C94.5235 61.1185 94.401 60.099 94.432 59.1415C94.4642 58.1263 94.5985 57.2558 94.7282 56.4138C94.888 55.3763 95.0502 54.303 95.0055 53.0375C95.039 52.9048 95.0525 52.748 95.035 52.562C94.9207 51.3483 93.5352 47.717 90.7115 44.4295C89.1925 42.6613 86.9875 40.6865 83.9892 39.3308C85.302 39.0643 87.0712 38.822 89.0502 38.866C94.179 38.98 98.2367 40.8998 101.111 44.572C101.172 44.6517 101.228 44.7354 101.277 44.8225C103.085 48.2115 100.587 60.5103 93.8107 71.1738ZM71.7692 55.8833C71.7067 56.3318 70.997 56.9395 70.2165 56.9395C70.1488 56.9395 70.0813 56.9349 70.0142 56.9255C69.546 56.8605 69.073 56.5655 68.7495 56.1365C68.635 55.9853 68.4487 55.6915 68.4857 55.4255C68.4995 55.3253 68.551 55.1793 68.717 55.0535C69.0125 54.83 69.5965 54.747 70.241 54.8368C71.0317 54.947 71.8475 55.3213 71.7692 55.8833ZM91.5955 54.8548C91.6232 55.0528 91.473 55.3573 91.2127 55.6303C91.042 55.8095 90.6827 56.1205 90.193 56.1883C90.1309 56.1969 90.0682 56.2012 90.0055 56.2013C89.2717 56.2013 88.652 55.6153 88.6037 55.272C88.5437 54.8308 89.264 54.4955 90.0065 54.392C90.749 54.2885 91.5342 54.414 91.5955 54.8548Z" fill="#F9EEE7"/>
</g>
<path d="M35.078 119V108.57H38.872C39.572 108.57 40.188 108.701 40.72 108.962C41.2613 109.214 41.6813 109.587 41.98 110.082C42.2787 110.567 42.428 111.151 42.428 111.832C42.428 112.504 42.274 113.083 41.966 113.568C41.6673 114.053 41.252 114.427 40.72 114.688C40.188 114.949 39.572 115.08 38.872 115.08H36.73V119H35.078ZM36.73 113.61H38.914C39.2873 113.61 39.614 113.535 39.894 113.386C40.174 113.237 40.3933 113.031 40.552 112.77C40.7107 112.499 40.79 112.182 40.79 111.818C40.79 111.454 40.7107 111.141 40.552 110.88C40.3933 110.609 40.174 110.404 39.894 110.264C39.614 110.115 39.2873 110.04 38.914 110.04H36.73V113.61ZM47.3553 119.168C46.6273 119.168 45.96 118.995 45.3533 118.65C44.756 118.305 44.28 117.833 43.9253 117.236C43.5707 116.639 43.3933 115.962 43.3933 115.206C43.3933 114.441 43.5707 113.764 43.9253 113.176C44.28 112.579 44.756 112.112 45.3533 111.776C45.9507 111.431 46.618 111.258 47.3553 111.258C48.102 111.258 48.7693 111.431 49.3573 111.776C49.9547 112.112 50.426 112.579 50.7713 113.176C51.126 113.764 51.3033 114.441 51.3033 115.206C51.3033 115.971 51.126 116.653 50.7713 117.25C50.4167 117.847 49.9407 118.319 49.3433 118.664C48.746 119 48.0833 119.168 47.3553 119.168ZM47.3553 117.698C47.8033 117.698 48.2 117.591 48.5453 117.376C48.8907 117.161 49.1613 116.867 49.3573 116.494C49.5627 116.111 49.6653 115.682 49.6653 115.206C49.6653 114.73 49.5627 114.305 49.3573 113.932C49.1613 113.559 48.8907 113.265 48.5453 113.05C48.2 112.835 47.8033 112.728 47.3553 112.728C46.9167 112.728 46.52 112.835 46.1653 113.05C45.82 113.265 45.5447 113.559 45.3393 113.932C45.1433 114.305 45.0453 114.73 45.0453 115.206C45.0453 115.682 45.1433 116.111 45.3393 116.494C45.5447 116.867 45.82 117.161 46.1653 117.376C46.52 117.591 46.9167 117.698 47.3553 117.698ZM55.6478 119.168C54.8732 119.168 54.1918 118.977 53.6038 118.594C53.0252 118.211 52.6192 117.698 52.3858 117.054L53.6038 116.48C53.8092 116.909 54.0892 117.25 54.4438 117.502C54.8078 117.754 55.2092 117.88 55.6478 117.88C56.0212 117.88 56.3245 117.796 56.5578 117.628C56.7912 117.46 56.9078 117.231 56.9078 116.942C56.9078 116.755 56.8565 116.606 56.7538 116.494C56.6512 116.373 56.5205 116.275 56.3618 116.2C56.2125 116.125 56.0585 116.069 55.8998 116.032L54.7098 115.696C54.0565 115.509 53.5665 115.229 53.2398 114.856C52.9225 114.473 52.7638 114.03 52.7638 113.526C52.7638 113.069 52.8805 112.672 53.1138 112.336C53.3472 111.991 53.6692 111.725 54.0798 111.538C54.4905 111.351 54.9525 111.258 55.4658 111.258C56.1565 111.258 56.7725 111.431 57.3138 111.776C57.8552 112.112 58.2378 112.583 58.4618 113.19L57.2438 113.764C57.0945 113.4 56.8565 113.111 56.5298 112.896C56.2125 112.681 55.8532 112.574 55.4518 112.574C55.1065 112.574 54.8312 112.658 54.6258 112.826C54.4205 112.985 54.3178 113.195 54.3178 113.456C54.3178 113.633 54.3645 113.783 54.4578 113.904C54.5512 114.016 54.6725 114.109 54.8218 114.184C54.9712 114.249 55.1252 114.305 55.2838 114.352L56.5158 114.716C57.1412 114.893 57.6218 115.173 57.9578 115.556C58.2938 115.929 58.4618 116.377 58.4618 116.9C58.4618 117.348 58.3405 117.745 58.0978 118.09C57.8645 118.426 57.5378 118.692 57.1178 118.888C56.6978 119.075 56.2078 119.168 55.6478 119.168ZM63.2879 119.084C62.4946 119.084 61.8786 118.86 61.4399 118.412C61.0012 117.964 60.7819 117.334 60.7819 116.522V112.854H59.4519V111.426H59.6619C60.0166 111.426 60.2919 111.323 60.4879 111.118C60.6839 110.913 60.7819 110.633 60.7819 110.278V109.69H62.3639V111.426H64.0859V112.854H62.3639V116.452C62.3639 116.713 62.4059 116.937 62.4899 117.124C62.5739 117.301 62.7092 117.441 62.8959 117.544C63.0826 117.637 63.3252 117.684 63.6239 117.684C63.6986 117.684 63.7826 117.679 63.8759 117.67C63.9692 117.661 64.0579 117.651 64.1419 117.642V119C64.0112 119.019 63.8666 119.037 63.7079 119.056C63.5492 119.075 63.4092 119.084 63.2879 119.084ZM69.203 122.08C68.6523 122.08 68.1437 121.991 67.677 121.814C67.2103 121.637 66.809 121.389 66.473 121.072C66.137 120.764 65.885 120.4 65.717 119.98L67.173 119.378C67.3037 119.733 67.5417 120.027 67.887 120.26C68.2417 120.493 68.6757 120.61 69.189 120.61C69.5903 120.61 69.9497 120.531 70.267 120.372C70.5843 120.223 70.8363 119.999 71.023 119.7C71.2097 119.411 71.303 119.061 71.303 118.65V116.942L71.583 117.264C71.3217 117.749 70.9577 118.118 70.491 118.37C70.0337 118.622 69.5157 118.748 68.937 118.748C68.237 118.748 67.607 118.585 67.047 118.258C66.487 117.931 66.0437 117.483 65.717 116.914C65.3997 116.345 65.241 115.705 65.241 114.996C65.241 114.277 65.3997 113.638 65.717 113.078C66.0437 112.518 66.4823 112.075 67.033 111.748C67.5837 111.421 68.2137 111.258 68.923 111.258C69.5017 111.258 70.015 111.384 70.463 111.636C70.9203 111.879 71.2937 112.233 71.583 112.7L71.373 113.092V111.426H72.871V118.65C72.871 119.303 72.7123 119.887 72.395 120.4C72.087 120.923 71.6577 121.333 71.107 121.632C70.5563 121.931 69.9217 122.08 69.203 122.08ZM69.119 117.278C69.539 117.278 69.9123 117.18 70.239 116.984C70.5657 116.779 70.8223 116.508 71.009 116.172C71.205 115.827 71.303 115.439 71.303 115.01C71.303 114.581 71.205 114.193 71.009 113.848C70.813 113.503 70.5517 113.232 70.225 113.036C69.8983 112.831 69.5297 112.728 69.119 112.728C68.6897 112.728 68.307 112.831 67.971 113.036C67.635 113.232 67.369 113.503 67.173 113.848C66.9863 114.184 66.893 114.571 66.893 115.01C66.893 115.43 66.9863 115.813 67.173 116.158C67.369 116.503 67.635 116.779 67.971 116.984C68.307 117.18 68.6897 117.278 69.119 117.278ZM74.7228 119V111.426H76.2348V112.952L76.0948 112.728C76.2628 112.233 76.5335 111.879 76.9068 111.664C77.2802 111.44 77.7282 111.328 78.2508 111.328H78.7128V112.77H78.0548C77.5322 112.77 77.1075 112.933 76.7808 113.26C76.4635 113.577 76.3048 114.035 76.3048 114.632V119H74.7228ZM83.3511 119.168C82.5951 119.168 81.9231 118.995 81.3351 118.65C80.7564 118.295 80.3038 117.819 79.9771 117.222C79.6504 116.615 79.4871 115.939 79.4871 115.192C79.4871 114.427 79.6504 113.75 79.9771 113.162C80.3131 112.574 80.7611 112.112 81.3211 111.776C81.8811 111.431 82.5158 111.258 83.2251 111.258C83.7944 111.258 84.3031 111.356 84.7511 111.552C85.1991 111.748 85.5771 112.019 85.8851 112.364C86.1931 112.7 86.4264 113.087 86.5851 113.526C86.7531 113.965 86.8371 114.431 86.8371 114.926C86.8371 115.047 86.8324 115.173 86.8231 115.304C86.8138 115.435 86.7951 115.556 86.7671 115.668H80.7331V114.408H85.8711L85.1151 114.982C85.2084 114.525 85.1758 114.119 85.0171 113.764C84.8678 113.4 84.6344 113.115 84.3171 112.91C84.0091 112.695 83.6451 112.588 83.2251 112.588C82.8051 112.588 82.4318 112.695 82.1051 112.91C81.7784 113.115 81.5264 113.414 81.3491 113.806C81.1718 114.189 81.1018 114.655 81.1391 115.206C81.0924 115.719 81.1624 116.167 81.3491 116.55C81.5451 116.933 81.8158 117.231 82.1611 117.446C82.5158 117.661 82.9171 117.768 83.3651 117.768C83.8224 117.768 84.2098 117.665 84.5271 117.46C84.8538 117.255 85.1104 116.989 85.2971 116.662L86.5851 117.292C86.4358 117.647 86.2024 117.969 85.8851 118.258C85.5771 118.538 85.2038 118.762 84.7651 118.93C84.3358 119.089 83.8644 119.168 83.3511 119.168ZM92.189 119.168C91.5357 119.168 90.929 119.047 90.369 118.804C89.809 118.552 89.333 118.211 88.941 117.782C88.549 117.353 88.2597 116.858 88.073 116.298L89.473 115.71C89.725 116.354 90.0937 116.849 90.579 117.194C91.0644 117.539 91.6244 117.712 92.259 117.712C92.6324 117.712 92.959 117.656 93.239 117.544C93.519 117.423 93.7337 117.255 93.883 117.04C94.0417 116.825 94.121 116.578 94.121 116.298C94.121 115.915 94.0137 115.612 93.799 115.388C93.5844 115.164 93.267 114.987 92.847 114.856L90.887 114.24C90.103 113.997 89.5057 113.629 89.095 113.134C88.6844 112.63 88.479 112.042 88.479 111.37C88.479 110.782 88.6237 110.269 88.913 109.83C89.2024 109.382 89.599 109.032 90.103 108.78C90.6164 108.528 91.1997 108.402 91.853 108.402C92.4784 108.402 93.0477 108.514 93.561 108.738C94.0744 108.953 94.513 109.251 94.877 109.634C95.2504 110.017 95.521 110.46 95.689 110.964L94.317 111.566C94.1117 111.015 93.7897 110.591 93.351 110.292C92.9217 109.993 92.4224 109.844 91.853 109.844C91.5077 109.844 91.2044 109.905 90.943 110.026C90.6817 110.138 90.4764 110.306 90.327 110.53C90.187 110.745 90.117 110.997 90.117 111.286C90.117 111.622 90.2244 111.921 90.439 112.182C90.6537 112.443 90.9804 112.639 91.419 112.77L93.239 113.344C94.0697 113.596 94.695 113.96 95.115 114.436C95.535 114.903 95.745 115.486 95.745 116.186C95.745 116.765 95.591 117.278 95.283 117.726C94.9844 118.174 94.569 118.529 94.037 118.79C93.505 119.042 92.889 119.168 92.189 119.168ZM102.667 119.168C101.911 119.168 101.207 119.033 100.553 118.762C99.9095 118.491 99.3402 118.113 98.8455 117.628C98.3602 117.143 97.9775 116.573 97.6975 115.92C97.4268 115.267 97.2915 114.553 97.2915 113.778C97.2915 113.003 97.4268 112.289 97.6975 111.636C97.9775 110.973 98.3602 110.404 98.8455 109.928C99.3308 109.443 99.9002 109.069 100.553 108.808C101.207 108.537 101.911 108.402 102.667 108.402C103.433 108.402 104.137 108.537 104.781 108.808C105.435 109.069 106.004 109.443 106.489 109.928C106.984 110.413 107.367 110.983 107.637 111.636C107.908 112.289 108.043 113.003 108.043 113.778C108.043 114.553 107.903 115.267 107.623 115.92C107.353 116.573 106.975 117.143 106.489 117.628C106.004 118.113 105.435 118.491 104.781 118.762C104.128 119.033 103.423 119.168 102.667 119.168ZM102.667 117.656C103.209 117.656 103.703 117.558 104.151 117.362C104.609 117.166 105.005 116.895 105.341 116.55C105.677 116.195 105.939 115.785 106.125 115.318C106.312 114.842 106.405 114.329 106.405 113.778C106.405 113.227 106.312 112.719 106.125 112.252C105.939 111.785 105.677 111.375 105.341 111.02C105.005 110.665 104.609 110.39 104.151 110.194C103.703 109.998 103.209 109.9 102.667 109.9C102.126 109.9 101.627 109.998 101.169 110.194C100.721 110.39 100.329 110.665 99.9935 111.02C99.6575 111.375 99.3962 111.785 99.2095 112.252C99.0322 112.719 98.9435 113.227 98.9435 113.778C98.9435 114.329 99.0322 114.842 99.2095 115.318C99.3962 115.785 99.6575 116.195 99.9935 116.55C100.329 116.895 100.726 117.166 101.183 117.362C101.641 117.558 102.135 117.656 102.667 117.656ZM105.285 120.26L101.869 114.828H103.633L107.063 120.26H105.285ZM109.891 119V108.57H111.543V117.53H116.051V119H109.891Z" fill="white"/>
<defs>
<clipPath id="clip0_244_374">
<rect width="60" height="60" fill="white" transform="translate(45 37)"/>
</clipPath>
</defs>
</svg>
