<svg width="110" height="110" viewBox="0 0 150 150" fill="none" xmlns="http://www.w3.org/2000/svg">
<path d="M75 0L139.952 37.5V112.5L75 150L10.0481 112.5V37.5L75 0Z" fill="none"/>
<path d="M99.2325 47.905H53.325L45 56.225V92.095H96.6775L105 83.775V47.905H99.2325ZM76.9625 86L73.0575 87.82L69.6825 82.2775C69.1925 82.42 68.435 82.5025 67.3725 82.5025C63.425 82.5025 60.665 81.44 59.11 79.3125C57.555 77.1875 56.78 73.8125 56.78 69.23C56.78 64.63 57.5775 61.215 59.1525 58.985C60.7275 56.755 63.4675 55.6325 67.3725 55.6325C71.2775 55.6325 74.0175 56.735 75.5725 58.965C77.1475 61.1725 77.9225 64.59 77.9225 69.21C77.9225 72.2575 77.5975 74.71 76.9625 76.5725C76.31 78.4525 75.265 79.885 73.7925 80.8675L76.9625 86ZM88.8025 82.0325C86.6575 82.0325 85.185 81.5425 84.3875 80.5575C83.5875 79.5775 83.18 77.7175 83.18 74.9775V66.1425H80.275V62.6275H83.18V57.1075H87.29V62.625H92.525V66.1625H87.29V74.5275C87.29 76.0825 87.415 77.1025 87.64 77.595C87.865 78.105 88.455 78.3525 89.3775 78.3525L92.485 78.2275L92.6675 81.5425C90.9925 81.8675 89.7025 82.0325 88.8025 82.0325ZM67.3525 59.3325C64.9775 59.3325 63.3425 60.11 62.445 61.6825C61.565 63.2575 61.115 65.755 61.115 69.21C61.115 72.645 61.545 75.12 62.4025 76.5925C63.2625 78.065 64.9175 78.8225 67.3525 78.8225C69.785 78.8225 71.4225 78.085 72.28 76.6325C73.1175 75.1825 73.5475 72.7075 73.5475 69.25C73.5475 65.775 73.1175 63.26 72.24 61.685C71.36 60.11 69.725 59.335 67.3525 59.335V59.3325Z" fill="#F9EEE7"/>
<path d="M59.078 120V109.57H62.872C63.572 109.57 64.188 109.701 64.72 109.962C65.2613 110.214 65.6813 110.587 65.98 111.082C66.2787 111.567 66.428 112.151 66.428 112.832C66.428 113.504 66.274 114.083 65.966 114.568C65.6673 115.053 65.252 115.427 64.72 115.688C64.188 115.949 63.572 116.08 62.872 116.08H60.73V120H59.078ZM60.73 114.61H62.914C63.2873 114.61 63.614 114.535 63.894 114.386C64.174 114.237 64.3933 114.031 64.552 113.77C64.7107 113.499 64.79 113.182 64.79 112.818C64.79 112.454 64.7107 112.141 64.552 111.88C64.3933 111.609 64.174 111.404 63.894 111.264C63.614 111.115 63.2873 111.04 62.914 111.04H60.73V114.61ZM68.6468 123.094C68.4601 123.094 68.2734 123.075 68.0868 123.038C67.9094 123.01 67.7461 122.963 67.5968 122.898V121.54C67.7088 121.568 67.8441 121.591 68.0028 121.61C68.1614 121.638 68.3154 121.652 68.4648 121.652C68.9034 121.652 69.2254 121.554 69.4308 121.358C69.6454 121.171 69.8368 120.877 70.0048 120.476L70.5088 119.328L70.4808 120.658L67.2048 112.426H68.8988L71.3208 118.74H70.7468L73.1548 112.426H74.8628L71.5168 120.826C71.3394 121.274 71.1154 121.666 70.8448 122.002C70.5834 122.347 70.2708 122.613 69.9068 122.8C69.5521 122.996 69.1321 123.094 68.6468 123.094ZM81.1675 120.168C80.4115 120.168 79.7068 120.033 79.0535 119.762C78.4095 119.491 77.8402 119.113 77.3455 118.628C76.8602 118.143 76.4775 117.573 76.1975 116.92C75.9268 116.267 75.7915 115.553 75.7915 114.778C75.7915 114.003 75.9268 113.289 76.1975 112.636C76.4775 111.973 76.8602 111.404 77.3455 110.928C77.8308 110.443 78.4002 110.069 79.0535 109.808C79.7068 109.537 80.4115 109.402 81.1675 109.402C81.9328 109.402 82.6375 109.537 83.2815 109.808C83.9348 110.069 84.5042 110.443 84.9895 110.928C85.4842 111.413 85.8668 111.983 86.1375 112.636C86.4082 113.289 86.5435 114.003 86.5435 114.778C86.5435 115.553 86.4035 116.267 86.1235 116.92C85.8528 117.573 85.4748 118.143 84.9895 118.628C84.5042 119.113 83.9348 119.491 83.2815 119.762C82.6282 120.033 81.9235 120.168 81.1675 120.168ZM81.1675 118.656C81.7088 118.656 82.2035 118.558 82.6515 118.362C83.1088 118.166 83.5055 117.895 83.8415 117.55C84.1775 117.195 84.4388 116.785 84.6255 116.318C84.8122 115.842 84.9055 115.329 84.9055 114.778C84.9055 114.227 84.8122 113.719 84.6255 113.252C84.4388 112.785 84.1775 112.375 83.8415 112.02C83.5055 111.665 83.1088 111.39 82.6515 111.194C82.2035 110.998 81.7088 110.9 81.1675 110.9C80.6262 110.9 80.1268 110.998 79.6695 111.194C79.2215 111.39 78.8295 111.665 78.4935 112.02C78.1575 112.375 77.8962 112.785 77.7095 113.252C77.5322 113.719 77.4435 114.227 77.4435 114.778C77.4435 115.329 77.5322 115.842 77.7095 116.318C77.8962 116.785 78.1575 117.195 78.4935 117.55C78.8295 117.895 79.2262 118.166 79.6835 118.362C80.1408 118.558 80.6355 118.656 81.1675 118.656ZM83.7855 121.26L80.3695 115.828H82.1335L85.5635 121.26H83.7855ZM91.5125 120.084C90.7192 120.084 90.1032 119.86 89.6645 119.412C89.2258 118.964 89.0065 118.334 89.0065 117.522V113.854H87.6765V112.426H87.8865C88.2412 112.426 88.5165 112.323 88.7125 112.118C88.9085 111.913 89.0065 111.633 89.0065 111.278V110.69H90.5885V112.426H92.3105V113.854H90.5885V117.452C90.5885 117.713 90.6305 117.937 90.7145 118.124C90.7985 118.301 90.9338 118.441 91.1205 118.544C91.3072 118.637 91.5498 118.684 91.8485 118.684C91.9232 118.684 92.0072 118.679 92.1005 118.67C92.1938 118.661 92.2825 118.651 92.3665 118.642V120C92.2358 120.019 92.0912 120.037 91.9325 120.056C91.7738 120.075 91.6338 120.084 91.5125 120.084Z" fill="white"/>
</svg>
