<svg width="110" height="110" viewBox="0 0 150 150" fill="none" xmlns="http://www.w3.org/2000/svg">
<path d="M75 0L139.952 37.5V112.5L75 150L10.0481 112.5V37.5L75 0Z" fill="none"/>
<path d="M80.575 64.0099C80.575 65.492 79.9864 66.9135 78.9386 67.9618C77.8908 69.01 76.4696 69.5992 74.9875 69.5999C73.5049 69.5999 72.0831 69.011 71.0348 67.9626C69.9864 66.9143 69.3975 65.4925 69.3975 64.0099C69.3975 62.5278 69.9861 61.1063 71.0339 60.0581C72.0817 59.0098 73.5029 58.4206 74.985 58.4199C76.4676 58.4199 77.8894 59.0089 78.9377 60.0572C79.9861 61.1055 80.575 62.5274 80.575 64.0099ZM87.195 37.2849C83.83 37.2849 79.4275 39.6849 74.975 43.8399C70.525 39.7074 66.12 37.3349 62.7575 37.3349C61.7325 37.3349 60.8 37.5674 59.9925 38.0299C56.555 40.0124 55.785 46.1899 57.56 53.9424C49.95 56.2924 45 60.0499 45 64.0099C45 67.9849 49.975 71.7524 57.6075 74.0849C55.8475 81.8674 56.6325 88.0549 60.0775 90.0349C60.8775 90.5024 61.8025 90.7224 62.8325 90.7224C66.195 90.7224 70.6 88.3224 75.0525 84.1624C79.5025 88.2974 83.9075 90.6699 87.27 90.6699C88.295 90.6699 89.2275 90.4449 90.035 89.9824C93.47 88.0024 94.2425 81.8249 92.4675 74.0699C100.05 71.7399 105 67.9749 105 64.0099C105 60.0349 100.025 56.2674 92.3925 53.9299C94.1525 46.1549 93.3675 39.9624 89.9225 37.9799C89.1275 37.5199 88.205 37.2874 87.195 37.2849ZM87.1825 40.0099V40.0249C87.745 40.0249 88.1975 40.1349 88.5775 40.3424C90.2425 41.2974 90.965 44.9299 90.4025 49.6024C90.2675 50.7524 90.0475 51.9649 89.7775 53.2024C87.3775 52.6124 84.7625 52.1599 82.01 51.8674C80.36 49.6049 78.6475 47.5499 76.9225 45.7499C80.9025 42.0499 84.64 40.0199 87.185 40.0124L87.1825 40.0099ZM62.7575 40.0599C65.2875 40.0599 69.0425 42.0799 73.0325 45.7599C71.3175 47.5599 69.6075 49.6024 67.9825 51.8649C65.215 52.1574 62.5975 52.6099 60.2 53.2099C59.92 51.9849 59.7125 50.7999 59.565 49.6599C58.99 44.9899 59.7 41.3599 61.35 40.3924C61.825 40.1674 62.35 40.0724 62.7575 40.0599ZM74.9625 47.6849C76.1 48.8549 77.2375 50.1649 78.3625 51.5949C77.2625 51.5449 76.1375 51.5099 75 51.5099C73.85 51.5099 72.7125 51.5349 71.6 51.5949C72.7 50.1649 73.8375 48.8574 74.9625 47.6849ZM75 54.2499C76.85 54.2499 78.6925 54.3349 80.505 54.4824C81.52 55.9374 82.51 57.4899 83.4625 59.1324C84.3925 60.7324 85.2375 62.3574 86.0075 63.9974C85.2375 65.6349 84.3925 67.2724 83.475 68.8724C82.525 70.5224 81.5425 72.0924 80.525 73.5474C78.705 73.7049 76.86 73.7924 75 73.7924C73.15 73.7924 71.3075 73.7049 69.495 73.5599C68.48 72.1049 67.49 70.5499 66.5375 68.9099C65.6075 67.3099 64.7625 65.6849 63.9925 64.0449C64.75 62.4024 65.6075 60.7624 66.525 59.1599C67.475 57.5099 68.4575 55.9449 69.475 54.4899C71.295 54.3299 73.14 54.2449 75 54.2449V54.2499ZM65.9125 54.8849C65.3125 55.8274 64.7125 56.7924 64.1525 57.7849C63.59 58.7599 63.065 59.7399 62.565 60.7199C61.9025 59.0799 61.34 57.4449 60.875 55.8524C62.475 55.4774 64.1625 55.1424 65.9125 54.8849ZM84.0625 54.8849C85.8 55.1424 87.475 55.4599 89.0775 55.8524C88.6275 57.4324 88.065 59.0574 87.4275 60.6849C86.9275 59.7099 86.4025 58.7274 85.8275 57.7499C85.265 56.7699 84.665 55.8149 84.065 54.8849H84.0625ZM91.72 56.5724C92.93 56.9474 94.08 57.3649 95.1575 57.8174C99.4875 59.6674 102.288 62.0874 102.288 64.0074C102.275 65.9274 99.475 68.3574 95.145 70.1949C94.095 70.6449 92.945 71.0499 91.7575 71.4274C91.0575 69.0324 90.1425 66.5374 89.0075 63.9774C90.1325 61.4349 91.0325 58.9524 91.72 56.5674V56.5724ZM58.2325 56.5824C58.9275 58.9824 59.845 61.4749 60.9825 64.0324C59.8575 66.5749 58.9525 69.0574 58.2675 71.4424C57.0575 71.0674 55.9075 70.6474 54.8425 70.1924C50.5125 68.3499 47.7125 65.9274 47.7125 64.0074C47.7125 62.0874 50.5125 59.6524 54.8425 57.8174C55.8925 57.3674 57.0425 56.9624 58.2325 56.5824ZM87.4275 67.2824C88.09 68.9249 88.6525 70.5624 89.1175 72.1524C87.5175 72.5449 85.8275 72.8774 84.0775 73.1274C84.6775 72.1899 85.2775 71.2224 85.84 70.2324C86.4025 69.2574 86.925 68.2624 87.4275 67.2824ZM62.565 67.3324C63.065 68.3124 63.59 69.2899 64.165 70.2699C64.74 71.2449 65.3275 72.1999 65.9275 73.1274C64.19 72.8724 62.515 72.5524 60.9125 72.1624C61.3625 70.5874 61.9275 68.9574 62.5625 67.3299L62.565 67.3324ZM89.8 74.7999C90.08 76.0324 90.3 77.2199 90.435 78.3574C91.01 83.0274 90.3 86.6574 88.65 87.6274C88.2825 87.8524 87.805 87.9474 87.2425 87.9474C84.7125 87.9474 80.9575 85.9299 76.9675 82.2474C78.6825 80.4474 80.3925 78.4074 82.0175 76.1474C84.785 75.8524 87.4025 75.3999 89.8 74.7999ZM60.225 74.8249C62.625 75.4099 65.24 75.8624 67.9925 76.1549C69.6425 78.4174 71.355 80.4724 73.08 82.2699C69.0925 85.9774 65.35 88.0074 62.805 88.0074C62.255 87.9949 61.79 87.8824 61.4225 87.6774C59.7575 86.7274 59.035 83.0924 59.5975 78.4199C59.7325 77.2699 59.955 76.0599 60.225 74.8249ZM71.625 76.4249C72.725 76.4749 73.85 76.5099 74.9875 76.5099C76.1375 76.5099 77.275 76.4849 78.3875 76.4249C77.2875 77.8549 76.15 79.1624 75.025 80.3374C73.8875 79.1624 72.75 77.8549 71.625 76.4249Z" fill="#111000"/>
<path d="M56.078 116V105.57H59.872C60.572 105.57 61.188 105.701 61.72 105.962C62.252 106.214 62.6673 106.587 62.966 107.082C63.274 107.567 63.428 108.151 63.428 108.832C63.428 109.551 63.246 110.167 62.882 110.68C62.5273 111.193 62.0467 111.567 61.44 111.8L63.848 116H61.972L59.41 111.45L60.488 112.08H57.73V116H56.078ZM57.73 110.61H59.9C60.2827 110.61 60.614 110.535 60.894 110.386C61.174 110.237 61.3887 110.031 61.538 109.77C61.6967 109.499 61.776 109.182 61.776 108.818C61.776 108.454 61.6967 108.141 61.538 107.88C61.3887 107.609 61.174 107.404 60.894 107.264C60.614 107.115 60.2827 107.04 59.9 107.04H57.73V110.61ZM68.2163 116.168C67.4603 116.168 66.7883 115.995 66.2003 115.65C65.6217 115.295 65.169 114.819 64.8423 114.222C64.5157 113.615 64.3523 112.939 64.3523 112.192C64.3523 111.427 64.5157 110.75 64.8423 110.162C65.1783 109.574 65.6263 109.112 66.1863 108.776C66.7463 108.431 67.381 108.258 68.0903 108.258C68.6597 108.258 69.1683 108.356 69.6163 108.552C70.0643 108.748 70.4423 109.019 70.7503 109.364C71.0583 109.7 71.2917 110.087 71.4503 110.526C71.6183 110.965 71.7023 111.431 71.7023 111.926C71.7023 112.047 71.6977 112.173 71.6883 112.304C71.679 112.435 71.6603 112.556 71.6323 112.668H65.5983V111.408H70.7363L69.9803 111.982C70.0737 111.525 70.041 111.119 69.8823 110.764C69.733 110.4 69.4997 110.115 69.1823 109.91C68.8743 109.695 68.5103 109.588 68.0903 109.588C67.6703 109.588 67.297 109.695 66.9703 109.91C66.6437 110.115 66.3917 110.414 66.2143 110.806C66.037 111.189 65.967 111.655 66.0043 112.206C65.9577 112.719 66.0277 113.167 66.2143 113.55C66.4103 113.933 66.681 114.231 67.0263 114.446C67.381 114.661 67.7823 114.768 68.2303 114.768C68.6877 114.768 69.075 114.665 69.3923 114.46C69.719 114.255 69.9757 113.989 70.1623 113.662L71.4503 114.292C71.301 114.647 71.0677 114.969 70.7503 115.258C70.4423 115.538 70.069 115.762 69.6303 115.93C69.201 116.089 68.7297 116.168 68.2163 116.168ZM75.4459 116.168C74.9326 116.168 74.4799 116.079 74.0879 115.902C73.7052 115.715 73.4066 115.463 73.1919 115.146C72.9772 114.819 72.8699 114.437 72.8699 113.998C72.8699 113.587 72.9586 113.219 73.1359 112.892C73.3226 112.565 73.6072 112.29 73.9899 112.066C74.3726 111.842 74.8532 111.683 75.4319 111.59L78.0639 111.156V112.402L75.7399 112.808C75.3199 112.883 75.0119 113.018 74.8159 113.214C74.6199 113.401 74.5219 113.643 74.5219 113.942C74.5219 114.231 74.6292 114.469 74.8439 114.656C75.0679 114.833 75.3526 114.922 75.6979 114.922C76.1272 114.922 76.5006 114.829 76.8179 114.642C77.1446 114.455 77.3966 114.208 77.5739 113.9C77.7512 113.583 77.8399 113.233 77.8399 112.85V110.904C77.8399 110.531 77.6999 110.227 77.4199 109.994C77.1492 109.751 76.7852 109.63 76.3279 109.63C75.9079 109.63 75.5392 109.742 75.2219 109.966C74.9139 110.181 74.6852 110.461 74.5359 110.806L73.2199 110.148C73.3599 109.775 73.5886 109.448 73.9059 109.168C74.2232 108.879 74.5919 108.655 75.0119 108.496C75.4412 108.337 75.8939 108.258 76.3699 108.258C76.9672 108.258 77.4946 108.37 77.9519 108.594C78.4186 108.818 78.7779 109.131 79.0299 109.532C79.2912 109.924 79.4219 110.381 79.4219 110.904V116H77.9099V114.628L78.2319 114.67C78.0546 114.978 77.8259 115.244 77.5459 115.468C77.2752 115.692 76.9626 115.865 76.6079 115.986C76.2626 116.107 75.8752 116.168 75.4459 116.168ZM84.8697 116.168C84.1137 116.168 83.4417 115.995 82.8537 115.65C82.275 115.295 81.813 114.819 81.4677 114.222C81.1317 113.625 80.9637 112.948 80.9637 112.192C80.9637 111.445 81.1317 110.773 81.4677 110.176C81.8037 109.579 82.2657 109.112 82.8537 108.776C83.4417 108.431 84.1137 108.258 84.8697 108.258C85.383 108.258 85.8637 108.351 86.3117 108.538C86.7597 108.715 87.147 108.963 87.4737 109.28C87.8097 109.597 88.057 109.966 88.2157 110.386L86.8297 111.03C86.671 110.638 86.4143 110.325 86.0597 110.092C85.7143 109.849 85.3177 109.728 84.8697 109.728C84.4403 109.728 84.053 109.835 83.7077 110.05C83.3717 110.255 83.1057 110.549 82.9097 110.932C82.7137 111.305 82.6157 111.73 82.6157 112.206C82.6157 112.682 82.7137 113.111 82.9097 113.494C83.1057 113.867 83.3717 114.161 83.7077 114.376C84.053 114.591 84.4403 114.698 84.8697 114.698C85.327 114.698 85.7237 114.581 86.0597 114.348C86.405 114.105 86.6617 113.783 86.8297 113.382L88.2157 114.04C88.0663 114.441 87.8237 114.805 87.4877 115.132C87.161 115.449 86.7737 115.701 86.3257 115.888C85.8777 116.075 85.3923 116.168 84.8697 116.168ZM93.0379 116.084C92.2446 116.084 91.6286 115.86 91.1899 115.412C90.7512 114.964 90.5319 114.334 90.5319 113.522V109.854H89.2019V108.426H89.4119C89.7666 108.426 90.0419 108.323 90.2379 108.118C90.4339 107.913 90.5319 107.633 90.5319 107.278V106.69H92.1139V108.426H93.8359V109.854H92.1139V113.452C92.1139 113.713 92.1559 113.937 92.2399 114.124C92.3239 114.301 92.4592 114.441 92.6459 114.544C92.8326 114.637 93.0752 114.684 93.3739 114.684C93.4486 114.684 93.5326 114.679 93.6259 114.67C93.7192 114.661 93.8079 114.651 93.8919 114.642V116C93.7612 116.019 93.6166 116.037 93.4579 116.056C93.2992 116.075 93.1592 116.084 93.0379 116.084Z" fill="#111000"/>
</svg>
