<svg width="110" height="110" viewBox="0 0 150 150" fill="none" xmlns="http://www.w3.org/2000/svg">
<path d="M75 0L139.952 37.5V112.5L75 150L10.0481 112.5V37.5L75 0Z" fill="none"/>
<g clip-path="url(#clip0_318_150)">
<path d="M84.6827 68.3001L101.838 59.2551C102.42 58.9151 103.223 59.5551 102.943 60.2226L94.1577 82.7501L84.6827 68.3001ZM63.2927 67.7276L71.9753 54.7601C72.4827 53.9401 73.4203 53.9701 73.9578 54.6901L93.6727 84.0651L63.2927 67.7276ZM54.8553 85.8526C54.1553 85.8526 52.7677 85.1426 52.3728 84.0626L43.0727 60.4126C42.7777 59.5851 43.4202 58.8776 44.2727 59.2526L92.9577 85.0176C92.5852 85.3851 91.8252 85.8601 91.1577 85.8526H54.8553Z" fill="#F9EEE7"/>
</g>
<path d="M45.732 115.168C45.0787 115.168 44.472 115.047 43.912 114.804C43.352 114.552 42.876 114.211 42.484 113.782C42.092 113.353 41.8027 112.858 41.616 112.298L43.016 111.71C43.268 112.354 43.6367 112.849 44.122 113.194C44.6073 113.539 45.1673 113.712 45.802 113.712C46.1753 113.712 46.502 113.656 46.782 113.544C47.062 113.423 47.2767 113.255 47.426 113.04C47.5847 112.825 47.664 112.578 47.664 112.298C47.664 111.915 47.5567 111.612 47.342 111.388C47.1273 111.164 46.81 110.987 46.39 110.856L44.43 110.24C43.646 109.997 43.0487 109.629 42.638 109.134C42.2273 108.63 42.022 108.042 42.022 107.37C42.022 106.782 42.1667 106.269 42.456 105.83C42.7453 105.382 43.142 105.032 43.646 104.78C44.1593 104.528 44.7427 104.402 45.396 104.402C46.0213 104.402 46.5907 104.514 47.104 104.738C47.6173 104.953 48.056 105.251 48.42 105.634C48.7933 106.017 49.064 106.46 49.232 106.964L47.86 107.566C47.6547 107.015 47.3327 106.591 46.894 106.292C46.4647 105.993 45.9653 105.844 45.396 105.844C45.0507 105.844 44.7473 105.905 44.486 106.026C44.2247 106.138 44.0193 106.306 43.87 106.53C43.73 106.745 43.66 106.997 43.66 107.286C43.66 107.622 43.7673 107.921 43.982 108.182C44.1967 108.443 44.5233 108.639 44.962 108.77L46.782 109.344C47.6127 109.596 48.238 109.96 48.658 110.436C49.078 110.903 49.288 111.486 49.288 112.186C49.288 112.765 49.134 113.278 48.826 113.726C48.5273 114.174 48.112 114.529 47.58 114.79C47.048 115.042 46.432 115.168 45.732 115.168ZM54.2645 115.084C53.4711 115.084 52.8551 114.86 52.4165 114.412C51.9778 113.964 51.7585 113.334 51.7585 112.522V108.854H50.4285V107.426H50.6385C50.9931 107.426 51.2685 107.323 51.4645 107.118C51.6605 106.913 51.7585 106.633 51.7585 106.278V105.69H53.3405V107.426H55.0625V108.854H53.3405V112.452C53.3405 112.713 53.3825 112.937 53.4665 113.124C53.5505 113.301 53.6858 113.441 53.8725 113.544C54.0591 113.637 54.3018 113.684 54.6005 113.684C54.6751 113.684 54.7591 113.679 54.8525 113.67C54.9458 113.661 55.0345 113.651 55.1185 113.642V115C54.9878 115.019 54.8431 115.037 54.6845 115.056C54.5258 115.075 54.3858 115.084 54.2645 115.084ZM56.6623 115V107.426H58.1743V108.952L58.0343 108.728C58.2023 108.233 58.4729 107.879 58.8463 107.664C59.2196 107.44 59.6676 107.328 60.1903 107.328H60.6523V108.77H59.9943C59.4716 108.77 59.0469 108.933 58.7203 109.26C58.4029 109.577 58.2443 110.035 58.2443 110.632V115H56.6623ZM65.2905 115.168C64.5345 115.168 63.8625 114.995 63.2745 114.65C62.6959 114.295 62.2432 113.819 61.9165 113.222C61.5899 112.615 61.4265 111.939 61.4265 111.192C61.4265 110.427 61.5899 109.75 61.9165 109.162C62.2525 108.574 62.7005 108.112 63.2605 107.776C63.8205 107.431 64.4552 107.258 65.1645 107.258C65.7339 107.258 66.2425 107.356 66.6905 107.552C67.1385 107.748 67.5165 108.019 67.8245 108.364C68.1325 108.7 68.3659 109.087 68.5245 109.526C68.6925 109.965 68.7765 110.431 68.7765 110.926C68.7765 111.047 68.7719 111.173 68.7625 111.304C68.7532 111.435 68.7345 111.556 68.7065 111.668H62.6725V110.408H67.8105L67.0545 110.982C67.1479 110.525 67.1152 110.119 66.9565 109.764C66.8072 109.4 66.5739 109.115 66.2565 108.91C65.9485 108.695 65.5845 108.588 65.1645 108.588C64.7445 108.588 64.3712 108.695 64.0445 108.91C63.7179 109.115 63.4659 109.414 63.2885 109.806C63.1112 110.189 63.0412 110.655 63.0785 111.206C63.0319 111.719 63.1019 112.167 63.2885 112.55C63.4845 112.933 63.7552 113.231 64.1005 113.446C64.4552 113.661 64.8565 113.768 65.3045 113.768C65.7619 113.768 66.1492 113.665 66.4665 113.46C66.7932 113.255 67.0499 112.989 67.2365 112.662L68.5245 113.292C68.3752 113.647 68.1419 113.969 67.8245 114.258C67.5165 114.538 67.1432 114.762 66.7045 114.93C66.2752 115.089 65.8039 115.168 65.2905 115.168ZM72.5201 115.168C72.0068 115.168 71.5541 115.079 71.1621 114.902C70.7795 114.715 70.4808 114.463 70.2661 114.146C70.0515 113.819 69.9441 113.437 69.9441 112.998C69.9441 112.587 70.0328 112.219 70.2101 111.892C70.3968 111.565 70.6815 111.29 71.0641 111.066C71.4468 110.842 71.9275 110.683 72.5061 110.59L75.1381 110.156V111.402L72.8141 111.808C72.3941 111.883 72.0861 112.018 71.8901 112.214C71.6941 112.401 71.5961 112.643 71.5961 112.942C71.5961 113.231 71.7035 113.469 71.9181 113.656C72.1421 113.833 72.4268 113.922 72.7721 113.922C73.2015 113.922 73.5748 113.829 73.8921 113.642C74.2188 113.455 74.4708 113.208 74.6481 112.9C74.8255 112.583 74.9141 112.233 74.9141 111.85V109.904C74.9141 109.531 74.7741 109.227 74.4941 108.994C74.2235 108.751 73.8595 108.63 73.4021 108.63C72.9821 108.63 72.6135 108.742 72.2961 108.966C71.9881 109.181 71.7595 109.461 71.6101 109.806L70.2941 109.148C70.4341 108.775 70.6628 108.448 70.9801 108.168C71.2975 107.879 71.6661 107.655 72.0861 107.496C72.5155 107.337 72.9681 107.258 73.4441 107.258C74.0415 107.258 74.5688 107.37 75.0261 107.594C75.4928 107.818 75.8521 108.131 76.1041 108.532C76.3655 108.924 76.4961 109.381 76.4961 109.904V115H74.9841V113.628L75.3061 113.67C75.1288 113.978 74.9001 114.244 74.6201 114.468C74.3495 114.692 74.0368 114.865 73.6821 114.986C73.3368 115.107 72.9495 115.168 72.5201 115.168ZM78.3459 115V107.426H79.8579V109.064L79.6619 108.812C79.8205 108.299 80.1099 107.911 80.5299 107.65C80.9499 107.389 81.4305 107.258 81.9719 107.258C82.5785 107.258 83.1152 107.421 83.5819 107.748C84.0579 108.065 84.3752 108.49 84.5339 109.022L84.0859 109.064C84.3099 108.457 84.6505 108.005 85.1079 107.706C85.5745 107.407 86.1065 107.258 86.7039 107.258C87.2265 107.258 87.6979 107.379 88.1179 107.622C88.5472 107.865 88.8879 108.201 89.1399 108.63C89.3919 109.059 89.5179 109.549 89.5179 110.1V115H87.9359V110.534C87.9359 110.151 87.8659 109.829 87.7259 109.568C87.5952 109.297 87.4085 109.092 87.1659 108.952C86.9325 108.803 86.6572 108.728 86.3399 108.728C86.0225 108.728 85.7425 108.803 85.4999 108.952C85.2572 109.092 85.0659 109.297 84.9259 109.568C84.7859 109.839 84.7159 110.161 84.7159 110.534V115H83.1479V110.534C83.1479 110.151 83.0779 109.829 82.9379 109.568C82.8072 109.297 82.6205 109.092 82.3779 108.952C82.1445 108.803 81.8645 108.728 81.5379 108.728C81.2205 108.728 80.9405 108.803 80.6979 108.952C80.4552 109.092 80.2639 109.297 80.1239 109.568C79.9932 109.839 79.9279 110.161 79.9279 110.534V115H78.3459ZM91.2111 115V104.402H92.7931V115H91.2111ZM94.6427 115V107.426H96.2248V115H94.6427ZM94.6427 106.39V104.57H96.2248V106.39H94.6427ZM101.35 115.084C100.557 115.084 99.9411 114.86 99.5024 114.412C99.0637 113.964 98.8444 113.334 98.8444 112.522V108.854H97.5144V107.426H97.7244C98.0791 107.426 98.3544 107.323 98.5504 107.118C98.7464 106.913 98.8444 106.633 98.8444 106.278V105.69H100.426V107.426H102.148V108.854H100.426V112.452C100.426 112.713 100.468 112.937 100.552 113.124C100.636 113.301 100.772 113.441 100.958 113.544C101.145 113.637 101.388 113.684 101.686 113.684C101.761 113.684 101.845 113.679 101.938 113.67C102.032 113.661 102.12 113.651 102.204 113.642V115C102.074 115.019 101.929 115.037 101.77 115.056C101.612 115.075 101.472 115.084 101.35 115.084Z" fill="white"/>
<defs>
<clipPath id="clip0_318_150">
<rect width="60" height="60" fill="white" transform="translate(43 40)"/>
</clipPath>
</defs>
</svg>
