<svg width="110" height="110" viewBox="0 0 150 150" fill="none" xmlns="http://www.w3.org/2000/svg">
<path d="M75 0L139.952 37.5V112.5L75 150L10.0481 112.5V37.5L75 0Z" fill="none"/>
<g clip-path="url(#clip0_244_368)">
<path d="M75.0024 42C67.0024 42 62.0024 46 60.0024 54C63.0024 50 66.5024 48.5 70.5024 49.5C72.7849 50.07 74.4149 51.725 76.2224 53.56C79.1649 56.545 82.5674 60 90.0024 60C98.0024 60 103.002 56 105.002 48C102.002 52 98.5024 53.5 94.5024 52.5C92.2199 51.93 90.5899 50.275 88.7824 48.44C85.8424 45.455 82.4399 42 75.0024 42ZM60.0024 60C52.0024 60 47.0024 64 45.0024 72C48.0024 68 51.5024 66.5 55.5024 67.5C57.7849 68.07 59.4149 69.725 61.2224 71.56C64.1649 74.545 67.5674 78 75.0024 78C83.0024 78 88.0024 74 90.0024 66C87.0024 70 83.5024 71.5 79.5024 70.5C77.2199 69.93 75.5899 68.275 73.7824 66.44C70.8424 63.455 67.4399 60 60.0024 60Z" fill="#F9EEE7"/>
</g>
<path d="M51.1438 105V96.04H48.3718V94.57H55.5118V96.04H52.7818V105H51.1438ZM58.027 105.168C57.5136 105.168 57.061 105.079 56.669 104.902C56.2863 104.715 55.9876 104.463 55.773 104.146C55.5583 103.819 55.451 103.437 55.451 102.998C55.451 102.587 55.5396 102.219 55.717 101.892C55.9036 101.565 56.1883 101.29 56.571 101.066C56.9536 100.842 57.4343 100.683 58.013 100.59L60.645 100.156V101.402L58.321 101.808C57.901 101.883 57.593 102.018 57.397 102.214C57.201 102.401 57.103 102.643 57.103 102.942C57.103 103.231 57.2103 103.469 57.425 103.656C57.649 103.833 57.9336 103.922 58.279 103.922C58.7083 103.922 59.0816 103.829 59.399 103.642C59.7256 103.455 59.9776 103.208 60.155 102.9C60.3323 102.583 60.421 102.233 60.421 101.85V99.904C60.421 99.5307 60.281 99.2273 60.001 98.994C59.7303 98.7513 59.3663 98.63 58.909 98.63C58.489 98.63 58.1203 98.742 57.803 98.966C57.495 99.1807 57.2663 99.4607 57.117 99.806L55.801 99.148C55.941 98.7747 56.1696 98.448 56.487 98.168C56.8043 97.8787 57.173 97.6547 57.593 97.496C58.0223 97.3373 58.475 97.258 58.951 97.258C59.5483 97.258 60.0756 97.37 60.533 97.594C60.9996 97.818 61.359 98.1307 61.611 98.532C61.8723 98.924 62.003 99.3813 62.003 99.904V105H60.491V103.628L60.813 103.67C60.6356 103.978 60.407 104.244 60.127 104.468C59.8563 104.692 59.5436 104.865 59.189 104.986C58.8436 105.107 58.4563 105.168 58.027 105.168ZM63.8527 105V97.426H65.4347V105H63.8527ZM63.8527 96.39V94.57H65.4347V96.39H63.8527ZM67.2844 105V94.402H68.8664V105H67.2844ZM72.55 105L69.946 97.426H71.626L73.614 103.46H73.026L75.056 97.426H76.498L78.514 103.46H77.926L79.928 97.426H81.608L78.99 105H77.562L75.518 98.826H76.036L73.992 105H72.55ZM82.6926 105V97.426H84.2746V105H82.6926ZM82.6926 96.39V94.57H84.2746V96.39H82.6926ZM86.1242 105V97.426H87.6362V98.91L87.4542 98.714C87.6409 98.238 87.9395 97.8787 88.3502 97.636C88.7609 97.384 89.2369 97.258 89.7782 97.258C90.3382 97.258 90.8329 97.3793 91.2622 97.622C91.6915 97.8647 92.0275 98.2007 92.2702 98.63C92.5129 99.0593 92.6342 99.554 92.6342 100.114V105H91.0662V100.534C91.0662 100.151 90.9962 99.8293 90.8562 99.568C90.7162 99.2973 90.5155 99.092 90.2542 98.952C90.0022 98.8027 89.7129 98.728 89.3862 98.728C89.0595 98.728 88.7655 98.8027 88.5042 98.952C88.2522 99.092 88.0562 99.2973 87.9162 99.568C87.7762 99.8387 87.7062 100.161 87.7062 100.534V105H86.1242ZM97.8273 105.168C97.0993 105.168 96.446 104.995 95.8673 104.65C95.298 104.295 94.8453 103.819 94.5093 103.222C94.1827 102.625 94.0193 101.953 94.0193 101.206C94.0193 100.459 94.1873 99.7873 94.5233 99.19C94.8593 98.5927 95.312 98.1213 95.8813 97.776C96.4507 97.4307 97.0947 97.258 97.8133 97.258C98.42 97.258 98.9567 97.3793 99.4233 97.622C99.89 97.8647 100.259 98.2007 100.529 98.63L100.291 98.994V94.402H101.859V105H100.361V103.46L100.543 103.754C100.282 104.211 99.9087 104.561 99.4233 104.804C98.938 105.047 98.406 105.168 97.8273 105.168ZM97.9813 103.698C98.42 103.698 98.812 103.591 99.1573 103.376C99.512 103.161 99.7873 102.867 99.9833 102.494C100.189 102.111 100.291 101.682 100.291 101.206C100.291 100.73 100.189 100.305 99.9833 99.932C99.7873 99.5587 99.512 99.2647 99.1573 99.05C98.812 98.8353 98.42 98.728 97.9813 98.728C97.5427 98.728 97.146 98.8353 96.7913 99.05C96.4367 99.2647 96.1613 99.5587 95.9653 99.932C95.7693 100.305 95.6713 100.73 95.6713 101.206C95.6713 101.682 95.7693 102.111 95.9653 102.494C96.1613 102.867 96.432 103.161 96.7773 103.376C97.132 103.591 97.5333 103.698 97.9813 103.698ZM66.9301 123.168C66.1928 123.168 65.5068 123.033 64.8721 122.762C64.2468 122.491 63.7008 122.118 63.2341 121.642C62.7768 121.157 62.4175 120.587 62.1561 119.934C61.8948 119.281 61.7641 118.562 61.7641 117.778C61.7641 117.003 61.8901 116.289 62.1421 115.636C62.4035 114.973 62.7675 114.404 63.2341 113.928C63.7008 113.443 64.2468 113.069 64.8721 112.808C65.4975 112.537 66.1835 112.402 66.9301 112.402C67.6675 112.402 68.3255 112.528 68.9041 112.78C69.4921 113.032 69.9868 113.363 70.3881 113.774C70.7895 114.175 71.0788 114.614 71.2561 115.09L69.7721 115.79C69.5481 115.23 69.1888 114.777 68.6941 114.432C68.2088 114.077 67.6208 113.9 66.9301 113.9C66.2395 113.9 65.6281 114.063 65.0961 114.39C64.5641 114.717 64.1488 115.169 63.8501 115.748C63.5608 116.327 63.4161 117.003 63.4161 117.778C63.4161 118.553 63.5608 119.234 63.8501 119.822C64.1488 120.401 64.5641 120.853 65.0961 121.18C65.6281 121.497 66.2395 121.656 66.9301 121.656C67.6208 121.656 68.2088 121.483 68.6941 121.138C69.1888 120.793 69.5481 120.34 69.7721 119.78L71.2561 120.48C71.0788 120.947 70.7895 121.385 70.3881 121.796C69.9868 122.207 69.4921 122.538 68.9041 122.79C68.3255 123.042 67.6675 123.168 66.9301 123.168ZM76.609 123.168C75.9556 123.168 75.349 123.047 74.789 122.804C74.229 122.552 73.753 122.211 73.361 121.782C72.969 121.353 72.6796 120.858 72.493 120.298L73.893 119.71C74.145 120.354 74.5136 120.849 74.999 121.194C75.4843 121.539 76.0443 121.712 76.679 121.712C77.0523 121.712 77.379 121.656 77.659 121.544C77.939 121.423 78.1536 121.255 78.303 121.04C78.4616 120.825 78.541 120.578 78.541 120.298C78.541 119.915 78.4336 119.612 78.219 119.388C78.0043 119.164 77.687 118.987 77.267 118.856L75.307 118.24C74.523 117.997 73.9256 117.629 73.515 117.134C73.1043 116.63 72.899 116.042 72.899 115.37C72.899 114.782 73.0436 114.269 73.333 113.83C73.6223 113.382 74.019 113.032 74.523 112.78C75.0363 112.528 75.6196 112.402 76.273 112.402C76.8983 112.402 77.4676 112.514 77.981 112.738C78.4943 112.953 78.933 113.251 79.297 113.634C79.6703 114.017 79.941 114.46 80.109 114.964L78.737 115.566C78.5316 115.015 78.2096 114.591 77.771 114.292C77.3416 113.993 76.8423 113.844 76.273 113.844C75.9276 113.844 75.6243 113.905 75.363 114.026C75.1016 114.138 74.8963 114.306 74.747 114.53C74.607 114.745 74.537 114.997 74.537 115.286C74.537 115.622 74.6443 115.921 74.859 116.182C75.0736 116.443 75.4003 116.639 75.839 116.77L77.659 117.344C78.4896 117.596 79.115 117.96 79.535 118.436C79.955 118.903 80.165 119.486 80.165 120.186C80.165 120.765 80.011 121.278 79.703 121.726C79.4043 122.174 78.989 122.529 78.457 122.79C77.925 123.042 77.309 123.168 76.609 123.168ZM85.6734 123.168C85.0201 123.168 84.4134 123.047 83.8534 122.804C83.2934 122.552 82.8174 122.211 82.4254 121.782C82.0334 121.353 81.7441 120.858 81.5574 120.298L82.9574 119.71C83.2094 120.354 83.5781 120.849 84.0634 121.194C84.5487 121.539 85.1087 121.712 85.7434 121.712C86.1167 121.712 86.4434 121.656 86.7234 121.544C87.0034 121.423 87.2181 121.255 87.3674 121.04C87.5261 120.825 87.6054 120.578 87.6054 120.298C87.6054 119.915 87.4981 119.612 87.2834 119.388C87.0687 119.164 86.7514 118.987 86.3314 118.856L84.3714 118.24C83.5874 117.997 82.9901 117.629 82.5794 117.134C82.1687 116.63 81.9634 116.042 81.9634 115.37C81.9634 114.782 82.1081 114.269 82.3974 113.83C82.6867 113.382 83.0834 113.032 83.5874 112.78C84.1007 112.528 84.6841 112.402 85.3374 112.402C85.9627 112.402 86.5321 112.514 87.0454 112.738C87.5587 112.953 87.9974 113.251 88.3614 113.634C88.7347 114.017 89.0054 114.46 89.1734 114.964L87.8014 115.566C87.5961 115.015 87.2741 114.591 86.8354 114.292C86.4061 113.993 85.9067 113.844 85.3374 113.844C84.9921 113.844 84.6887 113.905 84.4274 114.026C84.1661 114.138 83.9607 114.306 83.8114 114.53C83.6714 114.745 83.6014 114.997 83.6014 115.286C83.6014 115.622 83.7087 115.921 83.9234 116.182C84.1381 116.443 84.4647 116.639 84.9034 116.77L86.7234 117.344C87.5541 117.596 88.1794 117.96 88.5994 118.436C89.0194 118.903 89.2294 119.486 89.2294 120.186C89.2294 120.765 89.0754 121.278 88.7674 121.726C88.4687 122.174 88.0534 122.529 87.5214 122.79C86.9894 123.042 86.3734 123.168 85.6734 123.168Z" fill="white"/>
<defs>
<clipPath id="clip0_244_368">
<rect width="60" height="60" fill="white" transform="translate(45 30)"/>
</clipPath>
</defs>
</svg>
