<svg width="110" height="110" viewBox="0 0 150 150" fill="none" xmlns="http://www.w3.org/2000/svg">
<path d="M75 0L139.952 37.5V112.5L75 150L10.0481 112.5V37.5L75 0Z" fill="none"/>
<path d="M102.868 44.3441L90.5254 38.375C89.0892 37.6776 87.3811 37.9717 86.258 39.1007L62.6168 60.7851L52.3139 52.9312C51.3577 52.1942 50.0096 52.2545 49.1209 53.0688L45.821 56.092C44.7279 57.0833 44.7279 58.8117 45.8116 59.8031L54.7476 68L45.8116 76.1969C44.7279 77.1883 44.7279 78.9167 45.821 79.908L49.1209 82.9312C50.019 83.7455 51.3577 83.8058 52.3139 83.0688L62.6168 75.2055L86.2693 96.8993C87.383 98.0283 89.0911 98.3224 90.5273 97.625L102.881 91.6465C104.181 91.0188 105 89.7033 105 88.2501V47.7367C105 46.293 104.169 44.968 102.872 44.3403L102.868 44.3441ZM90.006 81.6967L72.0572 68.0019L90.006 54.3071V81.6967Z" fill="#F9EEE7"/>
<path d="M49.85 121L46.154 110.57H47.932L50.956 119.474H50.606L53.616 110.57H55.394L51.698 121H49.85ZM60.2066 121.168C59.5533 121.168 58.9466 121.047 58.3866 120.804C57.8266 120.552 57.3506 120.211 56.9586 119.782C56.5666 119.353 56.2773 118.858 56.0906 118.298L57.4906 117.71C57.7426 118.354 58.1113 118.849 58.5966 119.194C59.0819 119.539 59.6419 119.712 60.2766 119.712C60.6499 119.712 60.9766 119.656 61.2566 119.544C61.5366 119.423 61.7513 119.255 61.9006 119.04C62.0593 118.825 62.1386 118.578 62.1386 118.298C62.1386 117.915 62.0313 117.612 61.8166 117.388C61.6019 117.164 61.2846 116.987 60.8646 116.856L58.9046 116.24C58.1206 115.997 57.5233 115.629 57.1126 115.134C56.7019 114.63 56.4966 114.042 56.4966 113.37C56.4966 112.782 56.6413 112.269 56.9306 111.83C57.2199 111.382 57.6166 111.032 58.1206 110.78C58.6339 110.528 59.2173 110.402 59.8706 110.402C60.4959 110.402 61.0653 110.514 61.5786 110.738C62.0919 110.953 62.5306 111.251 62.8946 111.634C63.2679 112.017 63.5386 112.46 63.7066 112.964L62.3346 113.566C62.1293 113.015 61.8073 112.591 61.3686 112.292C60.9393 111.993 60.4399 111.844 59.8706 111.844C59.5253 111.844 59.2219 111.905 58.9606 112.026C58.6993 112.138 58.4939 112.306 58.3446 112.53C58.2046 112.745 58.1346 112.997 58.1346 113.286C58.1346 113.622 58.2419 113.921 58.4566 114.182C58.6713 114.443 58.9979 114.639 59.4366 114.77L61.2566 115.344C62.0873 115.596 62.7126 115.96 63.1326 116.436C63.5526 116.903 63.7626 117.486 63.7626 118.186C63.7626 118.765 63.6086 119.278 63.3006 119.726C63.0019 120.174 62.5866 120.529 62.0546 120.79C61.5226 121.042 60.9066 121.168 60.2066 121.168ZM72.9223 121.168C72.185 121.168 71.499 121.033 70.8643 120.762C70.239 120.491 69.693 120.118 69.2263 119.642C68.769 119.157 68.4097 118.587 68.1483 117.934C67.887 117.281 67.7563 116.562 67.7563 115.778C67.7563 115.003 67.8823 114.289 68.1343 113.636C68.3957 112.973 68.7597 112.404 69.2263 111.928C69.693 111.443 70.239 111.069 70.8643 110.808C71.4897 110.537 72.1757 110.402 72.9223 110.402C73.6597 110.402 74.3177 110.528 74.8963 110.78C75.4843 111.032 75.979 111.363 76.3803 111.774C76.7817 112.175 77.071 112.614 77.2483 113.09L75.7643 113.79C75.5403 113.23 75.181 112.777 74.6863 112.432C74.201 112.077 73.613 111.9 72.9223 111.9C72.2317 111.9 71.6203 112.063 71.0883 112.39C70.5563 112.717 70.141 113.169 69.8423 113.748C69.553 114.327 69.4083 115.003 69.4083 115.778C69.4083 116.553 69.553 117.234 69.8423 117.822C70.141 118.401 70.5563 118.853 71.0883 119.18C71.6203 119.497 72.2317 119.656 72.9223 119.656C73.613 119.656 74.201 119.483 74.6863 119.138C75.181 118.793 75.5403 118.34 75.7643 117.78L77.2483 118.48C77.071 118.947 76.7817 119.385 76.3803 119.796C75.979 120.207 75.4843 120.538 74.8963 120.79C74.3177 121.042 73.6597 121.168 72.9223 121.168ZM82.3104 121.168C81.5824 121.168 80.9151 120.995 80.3084 120.65C79.7111 120.305 79.2351 119.833 78.8804 119.236C78.5258 118.639 78.3484 117.962 78.3484 117.206C78.3484 116.441 78.5258 115.764 78.8804 115.176C79.2351 114.579 79.7111 114.112 80.3084 113.776C80.9058 113.431 81.5731 113.258 82.3104 113.258C83.0571 113.258 83.7244 113.431 84.3124 113.776C84.9098 114.112 85.3811 114.579 85.7264 115.176C86.0811 115.764 86.2584 116.441 86.2584 117.206C86.2584 117.971 86.0811 118.653 85.7264 119.25C85.3718 119.847 84.8958 120.319 84.2984 120.664C83.7011 121 83.0384 121.168 82.3104 121.168ZM82.3104 119.698C82.7584 119.698 83.1551 119.591 83.5004 119.376C83.8458 119.161 84.1164 118.867 84.3124 118.494C84.5178 118.111 84.6204 117.682 84.6204 117.206C84.6204 116.73 84.5178 116.305 84.3124 115.932C84.1164 115.559 83.8458 115.265 83.5004 115.05C83.1551 114.835 82.7584 114.728 82.3104 114.728C81.8718 114.728 81.4751 114.835 81.1204 115.05C80.7751 115.265 80.4998 115.559 80.2944 115.932C80.0984 116.305 80.0004 116.73 80.0004 117.206C80.0004 117.682 80.0984 118.111 80.2944 118.494C80.4998 118.867 80.7751 119.161 81.1204 119.376C81.4751 119.591 81.8718 119.698 82.3104 119.698ZM91.3029 121.168C90.5749 121.168 89.9216 120.995 89.3429 120.65C88.7736 120.295 88.3209 119.819 87.9849 119.222C87.6582 118.625 87.4949 117.953 87.4949 117.206C87.4949 116.459 87.6629 115.787 87.9989 115.19C88.3349 114.593 88.7876 114.121 89.3569 113.776C89.9262 113.431 90.5702 113.258 91.2889 113.258C91.8956 113.258 92.4322 113.379 92.8989 113.622C93.3656 113.865 93.7342 114.201 94.0049 114.63L93.7669 114.994V110.402H95.3349V121H93.8369V119.46L94.0189 119.754C93.7576 120.211 93.3842 120.561 92.8989 120.804C92.4136 121.047 91.8816 121.168 91.3029 121.168ZM91.4569 119.698C91.8956 119.698 92.2876 119.591 92.6329 119.376C92.9876 119.161 93.2629 118.867 93.4589 118.494C93.6642 118.111 93.7669 117.682 93.7669 117.206C93.7669 116.73 93.6642 116.305 93.4589 115.932C93.2629 115.559 92.9876 115.265 92.6329 115.05C92.2876 114.835 91.8956 114.728 91.4569 114.728C91.0182 114.728 90.6216 114.835 90.2669 115.05C89.9122 115.265 89.6369 115.559 89.4409 115.932C89.2449 116.305 89.1469 116.73 89.1469 117.206C89.1469 117.682 89.2449 118.111 89.4409 118.494C89.6369 118.867 89.9076 119.161 90.2529 119.376C90.6076 119.591 91.0089 119.698 91.4569 119.698ZM100.738 121.168C99.9818 121.168 99.3098 120.995 98.7218 120.65C98.1431 120.295 97.6905 119.819 97.3638 119.222C97.0371 118.615 96.8738 117.939 96.8738 117.192C96.8738 116.427 97.0371 115.75 97.3638 115.162C97.6998 114.574 98.1478 114.112 98.7078 113.776C99.2678 113.431 99.9025 113.258 100.612 113.258C101.181 113.258 101.69 113.356 102.138 113.552C102.586 113.748 102.964 114.019 103.272 114.364C103.58 114.7 103.813 115.087 103.972 115.526C104.14 115.965 104.224 116.431 104.224 116.926C104.224 117.047 104.219 117.173 104.21 117.304C104.2 117.435 104.182 117.556 104.154 117.668H98.1198V116.408H103.258L102.502 116.982C102.595 116.525 102.562 116.119 102.404 115.764C102.254 115.4 102.021 115.115 101.704 114.91C101.396 114.695 101.032 114.588 100.612 114.588C100.192 114.588 99.8185 114.695 99.4918 114.91C99.1651 115.115 98.9131 115.414 98.7358 115.806C98.5585 116.189 98.4885 116.655 98.5258 117.206C98.4791 117.719 98.5491 118.167 98.7358 118.55C98.9318 118.933 99.2025 119.231 99.5478 119.446C99.9025 119.661 100.304 119.768 100.752 119.768C101.209 119.768 101.596 119.665 101.914 119.46C102.24 119.255 102.497 118.989 102.684 118.662L103.972 119.292C103.822 119.647 103.589 119.969 103.272 120.258C102.964 120.538 102.59 120.762 102.152 120.93C101.722 121.089 101.251 121.168 100.738 121.168Z" fill="white"/>
</svg>
