<svg width="800" height="800" viewBox="0 0 800 800" fill="none" xmlns="http://www.w3.org/2000/svg">
<rect width="800" height="800" fill="#F9EEE7" fill-opacity="0.04"/>
<path d="M256.178 196.42L401 114.74L545.822 196.42V359.58L401 441.26L256.178 359.58V196.42Z" stroke="#4ACA9B" stroke-width="10"/>
<line x1="403.488" y1="137.337" x2="281.488" y2="207.337" stroke="#4ACA9B" stroke-width="10"/>
<line x1="515" y1="197.033" x2="514" y2="347.033" stroke="#4ACA9B" stroke-width="10"/>
<path d="M112.178 440.42L257 358.74L401.822 440.42V603.58L257 685.26L112.178 603.58V440.42Z" stroke="#4ACA9B" stroke-width="10"/>
<line x1="133.47" y1="460.688" x2="254.47" y2="389.688" stroke="#4ACA9B" stroke-width="10"/>
<line x1="138.557" y1="585.703" x2="259.557" y2="657.703" stroke="#4ACA9B" stroke-width="10"/>
<line x1="376" y1="453" x2="376" y2="590" stroke="#4ACA9B" stroke-width="10"/>
<path d="M399.178 440.42L544 358.74L688.822 440.42V603.58L544 685.26L399.178 603.58V440.42Z" stroke="#4ACA9B" stroke-width="10"/>
<line x1="541.47" y1="656.688" x2="662.47" y2="585.688" stroke="#4ACA9B" stroke-width="10"/>
<line x1="546.53" y1="389.688" x2="667.53" y2="460.688" stroke="#4ACA9B" stroke-width="10"/>
<path d="M443.437 369.304L380 440.662L443.437 523.913M602.029 369.304L665.466 440.662L602.029 523.913M554.451 292L491.014 601.217" stroke="#119DA4" stroke-width="23.5632" stroke-linecap="round" stroke-linejoin="round"/>
</svg>
