<svg width="150" height="150" viewBox="0 0 150 150" fill="none" xmlns="http://www.w3.org/2000/svg">
<path d="M75 0L139.952 37.5V112.5L75 150L10.0481 112.5V37.5L75 0Z" fill="#001C55"/>
<path d="M55.078 115V104.57H61.868V106.04H56.73V109.176H61.308V110.646H56.73V115H55.078ZM63.0998 115V107.426H64.6818V115H63.0998ZM63.0998 106.39V104.57H64.6818V106.39H63.0998ZM70.1854 118.08C69.6348 118.08 69.1261 117.991 68.6594 117.814C68.1928 117.637 67.7914 117.389 67.4554 117.072C67.1194 116.764 66.8674 116.4 66.6994 115.98L68.1554 115.378C68.2861 115.733 68.5241 116.027 68.8694 116.26C69.2241 116.493 69.6581 116.61 70.1714 116.61C70.5728 116.61 70.9321 116.531 71.2494 116.372C71.5668 116.223 71.8188 115.999 72.0054 115.7C72.1921 115.411 72.2854 115.061 72.2854 114.65V112.942L72.5654 113.264C72.3041 113.749 71.9401 114.118 71.4734 114.37C71.0161 114.622 70.4981 114.748 69.9194 114.748C69.2194 114.748 68.5894 114.585 68.0294 114.258C67.4694 113.931 67.0261 113.483 66.6994 112.914C66.3821 112.345 66.2234 111.705 66.2234 110.996C66.2234 110.277 66.3821 109.638 66.6994 109.078C67.0261 108.518 67.4648 108.075 68.0154 107.748C68.5661 107.421 69.1961 107.258 69.9054 107.258C70.4841 107.258 70.9974 107.384 71.4454 107.636C71.9028 107.879 72.2761 108.233 72.5654 108.7L72.3554 109.092V107.426H73.8534V114.65C73.8534 115.303 73.6948 115.887 73.3774 116.4C73.0694 116.923 72.6401 117.333 72.0894 117.632C71.5388 117.931 70.9041 118.08 70.1854 118.08ZM70.1014 113.278C70.5214 113.278 70.8948 113.18 71.2214 112.984C71.5481 112.779 71.8048 112.508 71.9914 112.172C72.1874 111.827 72.2854 111.439 72.2854 111.01C72.2854 110.581 72.1874 110.193 71.9914 109.848C71.7954 109.503 71.5341 109.232 71.2074 109.036C70.8808 108.831 70.5121 108.728 70.1014 108.728C69.6721 108.728 69.2894 108.831 68.9534 109.036C68.6174 109.232 68.3514 109.503 68.1554 109.848C67.9688 110.184 67.8754 110.571 67.8754 111.01C67.8754 111.43 67.9688 111.813 68.1554 112.158C68.3514 112.503 68.6174 112.779 68.9534 112.984C69.2894 113.18 69.6721 113.278 70.1014 113.278ZM75.7052 115V107.426H77.2173V109.064L77.0213 108.812C77.1799 108.299 77.4693 107.911 77.8893 107.65C78.3093 107.389 78.7899 107.258 79.3313 107.258C79.9379 107.258 80.4746 107.421 80.9413 107.748C81.4173 108.065 81.7346 108.49 81.8933 109.022L81.4453 109.064C81.6693 108.457 82.0099 108.005 82.4673 107.706C82.9339 107.407 83.4659 107.258 84.0633 107.258C84.5859 107.258 85.0573 107.379 85.4773 107.622C85.9066 107.865 86.2473 108.201 86.4993 108.63C86.7513 109.059 86.8773 109.549 86.8773 110.1V115H85.2953V110.534C85.2953 110.151 85.2253 109.829 85.0853 109.568C84.9546 109.297 84.7679 109.092 84.5253 108.952C84.2919 108.803 84.0166 108.728 83.6993 108.728C83.3819 108.728 83.1019 108.803 82.8593 108.952C82.6166 109.092 82.4253 109.297 82.2853 109.568C82.1453 109.839 82.0753 110.161 82.0753 110.534V115H80.5073V110.534C80.5073 110.151 80.4373 109.829 80.2973 109.568C80.1666 109.297 79.9799 109.092 79.7373 108.952C79.5039 108.803 79.2239 108.728 78.8972 108.728C78.5799 108.728 78.2999 108.803 78.0573 108.952C77.8146 109.092 77.6233 109.297 77.4833 109.568C77.3526 109.839 77.2873 110.161 77.2873 110.534V115H75.7052ZM90.8385 115.168C90.3252 115.168 89.8725 115.079 89.4805 114.902C89.0978 114.715 88.7992 114.463 88.5845 114.146C88.3698 113.819 88.2625 113.437 88.2625 112.998C88.2625 112.587 88.3512 112.219 88.5285 111.892C88.7152 111.565 88.9998 111.29 89.3825 111.066C89.7652 110.842 90.2458 110.683 90.8245 110.59L93.4565 110.156V111.402L91.1325 111.808C90.7125 111.883 90.4045 112.018 90.2085 112.214C90.0125 112.401 89.9145 112.643 89.9145 112.942C89.9145 113.231 90.0218 113.469 90.2365 113.656C90.4605 113.833 90.7452 113.922 91.0905 113.922C91.5198 113.922 91.8932 113.829 92.2105 113.642C92.5372 113.455 92.7892 113.208 92.9665 112.9C93.1438 112.583 93.2325 112.233 93.2325 111.85V109.904C93.2325 109.531 93.0925 109.227 92.8125 108.994C92.5418 108.751 92.1778 108.63 91.7205 108.63C91.3005 108.63 90.9318 108.742 90.6145 108.966C90.3065 109.181 90.0778 109.461 89.9285 109.806L88.6125 109.148C88.7525 108.775 88.9812 108.448 89.2985 108.168C89.6158 107.879 89.9845 107.655 90.4045 107.496C90.8338 107.337 91.2865 107.258 91.7625 107.258C92.3598 107.258 92.8872 107.37 93.3445 107.594C93.8112 107.818 94.1705 108.131 94.4225 108.532C94.6838 108.924 94.8145 109.381 94.8145 109.904V115H93.3025V113.628L93.6245 113.67C93.4472 113.978 93.2185 114.244 92.9385 114.468C92.6678 114.692 92.3552 114.865 92.0005 114.986C91.6552 115.107 91.2678 115.168 90.8385 115.168Z" fill="white"/>
<path d="M84.6301 56.4525H73.1601V34H84.6301C90.8201 34 95.8551 39.035 95.8551 45.225C95.8551 51.415 90.8201 56.4525 84.6301 56.4525ZM76.8376 52.775H84.6301C88.7926 52.775 92.1776 49.3875 92.1776 45.2275C92.1776 41.0675 88.7901 37.68 84.6301 37.68H76.8376V52.775ZM76.8376 56.4525H65.3701C59.1801 56.4525 54.1451 51.4175 54.1451 45.2275C54.1451 39.0375 59.1801 34 65.3701 34H76.8401V56.4525H76.8376ZM65.3701 37.6775C61.2076 37.6775 57.8226 41.065 57.8226 45.225C57.8226 49.385 61.2076 52.775 65.3701 52.775H73.1626V37.6775H65.3701ZM76.8376 75.225H65.3701C59.1801 75.225 54.1451 70.19 54.1451 64C54.1451 57.81 59.1801 52.775 65.3701 52.775H76.8401V75.225H76.8376ZM65.3701 56.4525C61.2076 56.4525 57.8226 59.84 57.8226 64C57.8226 68.16 61.2101 71.5475 65.3701 71.5475H73.1626V56.4525H65.3701ZM65.4301 94C59.2076 94 54.1426 88.965 54.1426 82.775C54.1426 76.585 59.1776 71.55 65.3676 71.55H76.8376V82.6525C76.8376 88.91 71.7201 94 65.4301 94ZM65.3701 75.225C63.3692 75.2276 61.451 76.0237 60.0361 77.4385C58.6213 78.8534 57.8252 80.7716 57.8226 82.7725C57.8226 86.935 61.2351 90.32 65.4326 90.32C69.6951 90.32 73.1651 86.88 73.1651 82.65V75.225H65.3701ZM84.6301 75.225H84.3851C78.1951 75.225 73.1601 70.19 73.1601 64C73.1601 57.81 78.1951 52.775 84.3851 52.775H84.6301C90.8201 52.775 95.8551 57.81 95.8551 64C95.8551 70.19 90.8201 75.225 84.6301 75.225ZM84.3876 56.4525C80.2251 56.4525 76.8401 59.84 76.8401 64C76.8401 68.16 80.2276 71.5475 84.3876 71.5475H84.6326C88.7951 71.5475 92.1801 68.16 92.1801 64C92.1801 59.84 88.7901 56.4525 84.6301 56.4525H84.3876Z" fill="#F9EEE7"/>
</svg>
