<svg width="80" height="80" viewBox="0 0 80 80" fill="none" xmlns="http://www.w3.org/2000/svg">
<path d="M23.9066 67.8667C20.86 65.4667 17.6066 63.1667 15.3866 59.9333C10.7133 54.2267 7.11329 47.62 4.65329 40.6767C3.16663 36.16 2.65329 31.3167 0.739958 26.9767C-1.26671 23.83 1.08329 20.3833 4.53329 19.3767C6.06663 19.0867 8.77329 17.6367 5.50996 18.6733C2.58329 20.82 2.29996 16.7233 5.29996 16.4667C7.34996 16.1933 8.09996 14.5167 7.39996 13.01C5.19996 11.5767 12.7333 9.99999 8.94329 7.86332C4.99996 3.59999 14.4666 2.78332 12.1333 7.61665C11.5766 11.3333 18.7466 6.93332 17.0833 11.2267C18.7733 13.29 23.4166 11.6933 23.3 14.59C25.7666 14.7567 26.61 16.83 28.9233 16.99C31.3233 18.0733 35.6633 18.9233 36.4766 21.6233C34.1 23.51 28.5966 17.74 28.3333 22.95C29.05 30.65 28.8666 38.58 31.68 45.91C33.0133 50.35 36.2466 53.8433 39.16 57.3033C41.95 60.69 45.73 63.07 49.5833 65.08C52.9633 66.6733 56.6066 67.73 60.2933 68.3933C61.7866 67.25 64.4266 63.0033 66.7533 64.7933C66.8633 66.8067 62.1266 69.0033 66.53 68.78C69.1166 68 70.91 70.78 73.04 68.2733C75 70.5967 81.1933 66.7867 79.7966 71.54C77.91 72.7533 75.1566 72.02 73.2666 73.6933C70.15 72.1367 67.6666 75.0867 64.2166 74.7133C60.3815 75.3763 56.4953 75.6998 52.6033 75.68C46.23 75.18 39.72 74.9667 33.6566 72.7467C30.2433 71.7567 26.91 69.81 23.9066 67.8667ZM29.29 70.2C32.6233 71.64 35.8833 73.16 39.5366 73.62C45.3366 74.42 51.3266 75.6667 57.1466 74.5333C54.5133 73.3433 51.7866 75 49.1633 73.6833C46.0166 74.36 42.64 73.51 39.44 73.0933C35.8 71.4733 31.8733 70.36 28.47 68.2533C24.2133 66.7 30.67 70.2467 31.82 70.5367C34.48 72.0467 28.8966 69.76 28.1066 69.1333C25.88 67.8833 25.5933 68.1433 27.8866 69.4133C28.35 69.68 28.8066 69.9667 29.2866 70.1967L29.29 70.2ZM22.9433 65.7133C26.1766 66.91 22.93 63.44 21.4433 63.64C20.79 62.5033 18.94 61.7833 20.2433 61.1733C17.8966 61.9867 17.7866 58.0733 16.6766 58.63C14.1966 57.8467 15.71 55.0633 12.7566 53.3633C12.4866 51.5633 9.81663 50.0033 8.96329 47.29C8.58663 45.9033 5.94663 41.9133 7.56996 45.6233C8.94996 49.1967 11.38 52.2567 13.4033 55.3133C14.97 58.2233 16.8266 61.2667 19.6866 63.08C20.6533 64.0067 21.58 65.4233 22.9433 65.7133ZM13.6333 55.49C14.2233 56.5467 13.7433 55.0033 13.6333 55.49ZM26.8133 67.1467C27.53 66.8267 25.78 66.7467 26.8133 67.1467ZM28.5666 67.7867C28.3866 66.9033 27.7666 68.28 28.5666 67.7867ZM30.7666 68.7033C31.8066 67.7033 29.1533 68.0767 30.7666 68.7033ZM34.5233 70.8033C35.16 69.8633 32.49 70.4467 34.5233 70.8033ZM27.3 65.76C28.9233 64.71 25.2 65.7467 27.3 65.76ZM28.9466 66.58C28.9 66.0267 28.36 66.83 28.9466 66.58ZM37.18 71.72C38.5033 72.5533 44.9133 73.5533 40.8966 72.0633C40.23 72.2033 33.4633 70.15 37.1766 71.72H37.18ZM24.11 61.54C23.9766 60.9833 22.0566 60.9233 24.11 61.54ZM27.9433 63.7733C28.9433 63.0733 25.8733 63.24 27.9433 63.7733ZM31.1633 65.75C32.5966 65.21 28.8433 65.2067 31.1633 65.75ZM22.55 59.84C24.1033 61.0333 28.8166 59.9933 24.93 59.13C23.1633 58.1867 19.1733 57.5433 21.89 59.6967L22.55 59.84ZM33.35 66.4333C33.9933 65.3333 30.6333 65.8 33.35 66.4333ZM30.07 63.8233C33.87 64.9 26.8766 61.4233 29.1333 63.43L29.6333 63.6567L30.07 63.8233ZM36.6466 67.6233C40.2466 67.6567 33.3966 67.1333 36.6466 67.6233ZM21.1666 57.7567C21.0266 57.09 20.28 57.8167 21.1666 57.7567ZM42.7333 71.04C42.8266 69.83 41.5566 71.94 42.7333 71.04ZM27.3 61.52C27.0866 60.8833 26.18 61.4933 27.3 61.52ZM21.5066 57.34C23.5733 57.2167 18.68 56.43 21.5066 57.34ZM14.64 52.9C14.3833 51.91 12.3933 51.12 14.64 52.9ZM32.6633 64.35C32.4833 64.4433 32.2833 63.9167 32.6633 64.35ZM43.8833 71.2333C43.85 70.5767 43.2733 71.4833 43.8833 71.2333ZM31.67 63.3233C31.87 62.4733 29.91 63.0667 31.67 63.3233ZM23.3166 58.0167C24.85 57.85 20.85 56.98 23.3166 58.0167ZM37.4533 66.8067C39.8466 65.8567 35.12 66.34 37.4533 66.8067ZM30.1 61.8167C32.8566 62.17 26.8166 59.94 29.4966 61.6167L30.1 61.8167ZM39.6866 67.71C42.2633 66.17 41.4133 71.3167 44.0566 68.1433C46.6633 66.2433 41.8066 70.5 45.0233 68.4867C47.3433 66.93 50.7766 69.22 52.9433 69.97C54.5033 69.8933 56.02 71.32 57.62 70.4533C60.6966 69.62 51.6 69.22 53.9866 67.7533C51.17 68.57 49.0866 66.7733 47.7033 64.97C44.5433 64.2367 40.89 62.6267 39.3133 59.83C38.6733 58.78 40.2466 59.9767 38.76 58.2633C36.86 56.57 35.9066 54.6467 34.6266 52.59C33.1033 51.7767 32.9266 49.38 32.77 52.51C32.7833 50.5333 30.9266 49.2033 30.4766 49.7567C30.47 47.8533 32.46 48.8067 31.0633 47.4C30.7633 45.4267 29.7766 43.3667 29.48 41.1433C29.02 40.07 29.4133 37.7733 27.9033 40.2033C27.3533 42.77 27.72 37.0467 28.5766 38.9367C29.7 37.0033 28.1766 37.2367 28.11 37.5033C28.8433 35.8767 28.5766 33.57 27.92 34.45C28.31 32.7267 28.5366 28.11 27.3366 28.93C28.0633 27.13 28.7166 20.6867 25.5566 23.1433C24.2766 23.16 22.0633 23.61 21.0133 24.13C24.3 25.94 20.68 24.7833 19.3466 24.4967C19.1733 26.17 17.8466 25.4467 16.1933 25.4633C18.8366 25.79 14.9066 28.1633 13.39 27.2433C11.4233 28.1833 15.09 30.5333 13.43 31.26C13.63 32.3533 10.4133 30.86 10.6633 33.3933C8.75329 32.59 10.4033 36.3933 11.36 35.1067C14.61 35.9867 13.6466 37.9933 13.7266 39.8967C13.2 41.0067 11.1133 37.2867 13.26 37.46C11.57 34.7033 11.39 36.46 9.97996 37.7433C9.64663 37.8367 13.5766 39.5667 11.1133 40.42C13.28 40.7533 13.34 42.6533 13.78 43.8533C15.08 45.21 14.8133 42.3533 16.3766 43.9867C15.39 42.5333 11.1533 39.8933 14.5633 40.74C14.5466 39.2733 13.9466 38.0967 14.9933 38.1267C16.0266 36.2533 13.91 42.75 16.2433 40.3667C16.8866 40.0833 17.0433 38.49 18.21 40.5167C19.8933 42.1767 18.8166 43.3767 16.44 41.86C16.8633 43.3033 19.62 43.8167 19.1033 46.0767C19.6533 48.06 20.42 47.33 21.09 47.2167C21.6166 49.1433 21.9133 47.7267 21.94 46.8067C24.34 47.3233 23.78 48.74 24.5333 49.74C26.19 50.4867 22.16 44.6667 25.0066 47.9867C28 50.6867 26.13 51.82 23.44 51.3867C25.14 51.25 25.69 53.6867 27.8166 53.6C29.7566 54.5233 31.0666 58.0667 27.7266 56.59C26.5666 55.5467 22.46 54.2567 25.8166 56.2433C28.9133 57.6767 31.3666 58.5367 34.3533 60.3333C36.4866 61.86 37.4133 63.6067 38.22 63.9533C36.4266 64.81 32.81 63.2667 35.4966 62.7933C33.82 62.49 31.9366 61.6433 33.54 63.7267C34.9066 64.87 38.3733 64.7467 38.9966 64.8767C38.4666 66.0367 37.5633 66.13 39.0166 66.22C37.3966 67.0867 39.5366 67.2167 39.6866 67.71ZM36.3733 58.35C35.3866 57.3167 35.13 55.3833 36.1966 57.0667C36.7433 57.2867 37.9466 60.2233 36.3733 58.35ZM47.1666 65.2067C47.7833 65.17 47.1866 65.6733 47.1666 65.2067ZM34.8133 55.82C35.17 57.02 34.78 54.26 34.8133 55.82ZM33.74 54.3767C35.3066 55.0567 32.5 51.9767 33.74 54.3767ZM20.74 45.4033C21.47 45.2033 21.1 46.65 20.74 45.4033ZM31.0866 51.01C31.6133 52.4233 31.5333 49.33 31.0866 51.01ZM23.78 45.9267C24.8566 46.7933 23.2633 45 23.78 45.9267ZM30.0533 47.94C28.88 45.3067 30.8866 46.5 30.3133 48.3733L30.0533 47.94ZM19.2333 40.7233C18.7066 39.8567 17.84 37.3233 18.12 36.55C18.3733 37.81 20.8 41.9733 19.31 38.2767C17.6633 35.1767 21.2766 39.2833 21.65 40.0567C21.8166 40.8233 20.6333 39.8467 21.4366 41.65C19.97 39.5933 20.57 42.7833 19.2333 40.7233ZM15.89 38.42C16.6566 39.7967 16.0233 36.41 15.89 38.42ZM17.39 38.9367C18.61 41.05 18.11 37.42 17.39 38.9367ZM13.7766 36.1367C12.53 34.9033 11.63 33.76 13.8333 35.37C14.6833 35.4033 11.9466 32.7767 14.0333 34.5367C16.2333 34.9367 15.1233 38.1433 13.7766 36.1367ZM15.6766 36.0867C16.4 35.37 16.06 36.7933 15.6766 36.0867ZM16.8433 36.4633C18.1766 37.3233 15.75 34.4067 16.8433 36.4633ZM14.52 34.24C10.9 31.02 19.07 35.9267 15.11 34.84L14.52 34.24ZM24.8866 40.2667C23.32 39.3267 24.4766 33.6533 25.01 37.5333C26.5333 37.04 24.9266 39.5333 26.06 39.5133C25.8833 41.09 25.3733 41.6567 24.8933 40.2667H24.8866ZM28.72 42.5333C29.05 43.7 28.88 40.8233 28.72 42.5333ZM28.0533 41.8733C28.2333 41.14 28.0766 42.7333 28.0533 41.8733ZM15.2333 33.1833C12.91 29.9733 21.99 36.4267 16.7233 33.9967C16.1733 33.8533 15.51 33.7967 15.2333 33.1833ZM22.62 37.1C23.11 37.5467 22.4 34.4 22.62 37.1ZM28.2266 40.6967C28.66 39.1567 28.26 41.7133 28.2266 40.6967ZM15.5866 31.9567C16.97 31.6633 21.3133 34.3867 17.32 32.7367C16.88 32.2433 15.9333 32.47 15.5866 31.9567ZM27.4533 37.8733C27.6 35.1067 28.28 36.2233 27.46 38.2667L27.4533 37.8733ZM16.6166 30.9967C17.18 30.17 15.1166 27.2633 16.9133 29.9533C17.6866 30.57 19.1533 30.9867 17.8566 31.2433C19.89 33.04 17.3566 31.73 16.6166 30.9967ZM26.8666 37.01C27.2566 33.8633 27.21 38.8533 26.8666 37.01ZM15.44 28.09C15.87 27.9067 15.6666 28.6633 15.44 28.09ZM18.1133 29.6833C19.38 31.2933 18.8 28.2367 18.1133 29.6833ZM25.6566 33.88C25.8 34.6867 25.65 33.3233 25.6566 33.88ZM25.22 32.9133C26.1933 34.28 24.1733 30.3267 25.22 32.9133ZM24.5766 31.2133C25.1766 32.56 24.4 30.1467 24.5766 31.2133ZM25.6233 29.5133C24.9033 28.2467 26.53 23.9367 26.71 26.6133C25.9533 28.6967 26.4933 29.8633 27.02 27.0667C27.9966 24.8667 26.81 31.41 25.62 29.5167L25.6233 29.5133ZM26.6966 23.1033C27.01 22.72 26.7633 23.5667 26.6966 23.1033ZM24.9 58.48C24.9533 58.7133 24.4733 58.11 24.9 58.48ZM28.6 60.3467C30.65 60.88 30.64 60.03 28.7833 59.78C27.7833 58.8467 24.63 57.8633 27.45 59.6633C27.64 60.1367 28.2333 60.1267 28.5966 60.35L28.6 60.3467ZM21.2966 55.5C22.43 56.3433 25.5633 57.8967 22.91 55.82C23.8066 54.78 21.1966 54.2267 22.0633 53.5333C19.8633 52.1867 20.33 52.3067 21.87 52.3467C19.2233 51.1667 22.25 51.2533 22.1033 50.6467C21.0866 50.4467 17.0366 48.8467 19.4233 50.78C17.0033 49.5467 18.8466 51.24 18.1166 51.06C15.64 50.3867 20.3166 52.9433 17.7233 52.31C19.14 53.4333 21.5433 55.19 18.3233 53.5C17.8966 54.11 20.6233 55.0333 21.2966 55.5ZM25.1633 57.7233C29.8633 59.2367 22.86 55.87 25.1633 57.7233ZM44.9633 69.7167C45.03 68.7833 44.32 70.5167 44.9633 69.7167ZM47 70.5733C48.0833 69.5233 47.0433 72.25 48.8 70.3167C48.8166 68.9333 48.7433 68.1167 46.78 69.7967C46.24 70.0967 46 71.3733 47 70.5733ZM14.6933 50.2833C14.36 48.9733 12.36 48.9833 14.6933 50.2833ZM16.8666 51.71C16.06 50.37 13.9866 50.4967 16.8666 51.71ZM29.2333 59.1667C30.44 60.2333 34.7733 59.9533 30.7 59.3C30.0933 58.4 26.8633 58.62 29.2333 59.1667ZM46.2233 69.6633C48.0833 68.1033 44.4233 70.3567 46.2233 69.6633ZM50.09 72.3167C50.1 71.8167 49.29 72.5367 50.09 72.3167ZM50.0933 71.6167C52.15 69.4367 48.1 71.7467 50.0933 71.6167ZM9.34996 45.81C7.59663 43.31 8.25996 42.1833 6.56663 40.1433C6.24663 38.5767 3.66663 35.0333 5.23329 38.79C6.66663 40.9867 7.09329 44.3867 9.34996 45.81ZM49.45 70.9233C53.2333 68.4767 47.8966 69.8567 49.45 70.9233ZM52.3366 72.0567C54.2366 70.43 51.1366 71.7167 52.3366 72.0567ZM14.05 47.5167C14.5933 46.71 12.65 47.4133 14.05 47.5167ZM51.7333 71.28C53.57 70.0967 51.3133 70.28 51.4 71.3867L51.7333 71.28ZM26.8333 55.58C26.7666 54.78 25.8633 55.6467 26.8333 55.58ZM28.3666 56.47C27.8833 55.48 27.62 56.6267 28.3666 56.47ZM54.68 72.0833C57.03 70.3833 53.2533 71.7567 54.1866 72.4033L54.68 72.0833ZM53.78 71.65C55.6933 70.0433 51.7566 72.36 53.78 71.65ZM58.38 74.71C59.6666 73.85 56.8166 74.4333 58.38 74.71ZM15.2333 46.9333C16.9566 47.32 22.12 51.18 19.0733 47.2C17.5133 46.74 18.45 42.9233 16.8566 43.6C17.9233 45.3833 17.7366 46.1433 15.49 45.02C12.6733 43.6433 13.91 45.7 14.4566 46.2667C13.71 46.44 15.4533 46.92 15.2333 46.9333ZM7.37996 40.7333C7.68663 39.4567 4.53663 33.71 5.89329 37.8533C6.37996 38.72 6.32663 40.3667 7.37996 40.7333ZM21.7933 49.62C21.75 49.5133 20.9066 48.8767 21.7933 49.62ZM23.98 50.1267C23.98 48.7767 21.5633 49.58 23.98 50.1267ZM42.9166 62.07C42.5566 61.1433 41.49 62.05 42.9166 62.07ZM43.8266 62.7333C43.6933 62.2167 43.3033 62.8333 43.8266 62.7333ZM51.3333 67.4667C52.0533 66.9333 50.4333 67.4 51.3333 67.4667ZM11.3 41.7333C13.3666 40.9333 9.08663 41.1667 11.3 41.7333ZM41.2466 60.6067C41.2233 59.27 39.93 60.94 41.2466 60.6067ZM10.48 39.8367C11.81 39.3867 9.25663 39.5367 10.48 39.8367ZM14.3333 41.7033C14.31 41.26 13.9266 41.87 14.3333 41.7033ZM61.3 70.5033C63.0066 70.1567 66.8933 71.37 67.52 70.05C65.4533 70 60.3533 68.59 60.1133 70.3833L60.5666 70.46L61.3 70.5033ZM15.5566 42.01C15.5866 40.6533 14.5 41.96 15.5566 42.01ZM5.43329 34.9833C4.97329 32.4 3.68329 34.59 5.43329 34.9833ZM7.84663 35.59C7.87663 34.7567 5.63663 34.8433 7.84663 35.59ZM9.22663 36.2667C8.91329 36.6733 8.82663 35.9433 9.22663 36.2667ZM17.91 41.8333C18.3166 41.46 16.9433 41.5567 17.91 41.8333ZM8.30996 34.74C8.07663 32.79 5.50996 34.4467 8.30996 34.74ZM3.35663 31.5267C3.28996 30.6267 2.87663 31.8667 3.35663 31.5267ZM4.08996 30.97C3.97329 29.9033 3.45663 31.1033 4.08996 30.97ZM8.15663 33.4C9.88329 32.7233 5.02329 32 7.80996 33.2667L8.15663 33.4ZM62.6033 67.03C63.7033 66.02 61.2033 66.7167 62.6033 67.03ZM69.1833 70.44C69.6233 69.1333 68.07 70.6067 69.1833 70.44ZM8.57663 31.2667C8.75996 30 7.20996 31.5167 8.57663 31.2667ZM2.78996 27.3933C2.47996 25.61 2.52329 22.48 5.49663 23.54C1.52663 24.3267 8.24329 28.4733 7.39663 25.2C9.06329 25.28 10.6633 24.2133 9.78329 25.8333C13.0733 25.4667 15.35 22.62 18.53 23.0167C21.0033 22.69 23.71 22.4433 26.3766 21.4467C28.57 21.2867 30.6766 18.9267 29.4766 17.53C26.49 17.2767 23.36 17.65 20.0533 18.3067C16.3933 19.0667 13.0666 20.5133 9.36996 21.1367C5.76996 21.62 10.0933 22.47 9.06329 22.6567C7.18329 23.31 11.3033 23.75 8.81996 24.4367C7.28663 24.1433 5.68663 23.6167 6.34329 22.0033C2.89329 22.4467 -0.140042 23.88 2.58663 27.39H2.78663L2.78996 27.3933ZM11.1033 23.16C11.9133 20.18 15.4366 25.61 12.43 23.5533C12.07 23.2867 11.48 23.0667 11.1033 23.1533V23.16ZM11.26 21.7133C12.4266 20.8467 11.88 22.2 11.26 21.7133ZM12.7433 21.74C12.85 20.37 16.1366 22.4667 13.2866 22.2333L12.7433 21.74ZM14.77 20.9233C15.51 20.0567 14.9833 21.69 14.77 20.9233ZM15.29 20.5767C16.5233 19.0967 22.2733 19.6333 18.0633 20.4333C16.9366 19.5833 16.07 20.9333 15.29 20.5767ZM22.79 19.42C26.52 20.86 22.6066 15.3733 22.79 19.42ZM24.9233 19.4067C25.7 17.3667 27.9433 18.59 25.2833 18.9967C25.34 19.2133 25.2033 20.05 24.9233 19.4067ZM7.73996 30.2233C10.0633 28.8 5.26996 28.99 7.73996 30.2233ZM9.45663 30.7033C10.2733 29.8367 7.68662 30.35 9.45663 30.7033ZM4.38996 27.1033C5.71996 26.0867 2.81996 26.7167 4.38996 27.1033ZM73.0633 70.07C73.1033 68.8867 72.05 70.6033 73.0633 70.07ZM66.0866 65.3033C66.2866 63.9433 65.1866 65.4267 66.0866 65.3033ZM74.9866 70.53C76.8433 70.53 80.6133 69.9533 76.57 69.9533C75.9366 70.0533 72.8766 70.0333 74.9866 70.53ZM10.9666 29.8633C12.4666 29.7633 13.32 28.2067 10.6766 28.2967C6.57663 27.8733 14.29 29.6967 10.15 29.1767C9.59329 29.5433 10.9366 29.9667 10.9666 29.8667V29.8633ZM12.2933 30.5367C12.1333 29.57 11.8266 31.05 12.2933 30.5367ZM13.86 26.3467C14.5166 25.5367 12.96 26.13 13.86 26.3467ZM8.85996 17.9867C11.5466 17.0733 15.2166 16.05 16.4833 18.4367C15.1933 16.8833 15.9633 15.3567 17.1833 17.6267C18.9033 19.9233 19.7666 16.5833 18.6433 15.81C19.92 17.3967 21.3733 18.1433 19.5 15.91C21.5333 13.4633 15.4233 16.2333 14.0333 16.2033C13.3666 16.5033 7.12663 17.7933 8.85996 17.9867ZM10.4333 14.9767C11.9666 13.82 15.7266 15.6633 13.3133 13.8267C13.08 13.62 8.02663 15.22 10.4333 14.9767ZM16.0133 15.2067C17.8066 15.25 15.2433 12.8 17.3766 13.9067C17.0266 12.7633 14.89 12.55 13.8433 12.0933C13.2566 13.14 15.0466 15.22 16.0133 15.2067ZM11.4133 10.14C12.0333 9.29999 10.3266 10.5667 11.4133 10.14ZM13.6933 10.6867C16.58 10.3033 12.96 9.44332 13.1133 10.6533L13.6933 10.6867ZM9.43663 7.35332C7.40329 4.69999 13.2566 7.79999 11.1933 5.01999C9.45329 3.63665 7.78329 6.57999 9.43663 7.35332ZM35.5166 21.4033C36.45 19.75 31.6666 19.1767 34.89 20.82C35.19 20.92 35.1233 21.52 35.5166 21.4033Z" fill="#F9EEE7"/>
</svg>
