<svg width="80" height="80" viewBox="0 0 80 80" fill="none" xmlns="http://www.w3.org/2000/svg">
<g clip-path="url(#clip0_232_111)">
<path d="M78.4867 36.4334L43.5567 1.50677C41.5433 -0.503232 38.2833 -0.503232 36.2633 1.50677L29.0267 8.75677L38.2267 17.9568C40.3767 17.2401 42.8233 17.7234 44.5233 19.4268C46.2433 21.1434 46.7167 23.6201 45.9833 25.7601L54.8433 34.6268C56.9933 33.8834 59.4667 34.3668 61.1767 36.0768C63.58 38.4768 63.58 42.3568 61.1767 44.7568C58.78 47.1534 54.9067 47.1534 52.51 44.7568C50.7133 42.9534 50.2633 40.3001 51.1633 38.1034L42.8667 29.8501V51.6001C43.4533 51.8868 44.0067 52.2768 44.4933 52.7601C46.87 55.1634 46.87 59.0368 44.4933 61.4268C42.0967 63.8301 38.1967 63.8301 35.7967 61.4268C33.4 59.0301 33.4 55.1634 35.7967 52.7668C36.4033 52.1668 37.0867 51.7134 37.8133 51.4134V29.4501C37.09 29.1468 36.4 28.7101 35.8133 28.1134C33.9967 26.2968 33.56 23.6401 34.4933 21.4168L25.4533 12.3334L1.5 36.2701C-0.5 38.2868 -0.5 41.5501 1.5 43.5668L36.4333 78.4901C38.4467 80.5034 41.7067 80.5034 43.72 78.4901L78.4867 43.7234C80.5033 41.7134 80.5033 38.4501 78.4867 36.4334Z" fill="#F9EEE7"/>
</g>
<defs>
<clipPath id="clip0_232_111">
<rect width="80" height="80" fill="white"/>
</clipPath>
</defs>
</svg>
