<svg width="150" height="150" viewBox="0 0 150 150" fill="none" xmlns="http://www.w3.org/2000/svg">
<path d="M75 0L139.952 37.5V112.5L75 150L10.0481 112.5V37.5L75 0Z" fill="#001C55"/>
<g clip-path="url(#clip0_244_360)">
<path d="M87.9826 59.8875C84.8226 45.9375 77.3526 41.3525 76.5501 39.6C75.8501 38.615 75.2251 37.215 74.7126 36C74.6226 37.2375 74.5751 37.7125 73.4051 38.96C71.5976 40.375 62.3101 48.165 61.5551 64.01C60.8501 78.79 72.2301 87.5975 73.7751 88.72L73.9501 88.845C74.2718 91.2244 74.5469 93.6098 74.7751 96H75.9776C76.2626 93.42 76.6876 90.86 77.2526 88.325C78.2951 87.585 78.7626 87.1675 79.3776 86.5925C82.29 83.8982 84.6046 80.6228 86.1716 76.9778C87.7387 73.3329 88.5235 69.3997 88.4751 65.4325C88.5001 63.3975 88.2176 61.2775 87.9826 59.8875ZM74.6426 80.375C74.6426 80.375 74.6426 59.6475 75.3301 59.65C75.8626 59.65 76.5551 86.3875 76.5551 86.3875C75.6026 86.275 74.6426 81.9875 74.6426 80.375Z" fill="#F9EEE7"/>
</g>
<path d="M42.078 117V106.57H43.618L47.538 112.002H46.768L50.618 106.57H52.158V117H50.52V108.516L51.136 108.684L47.202 114.06H47.034L43.184 108.684L43.73 108.516V117H42.078ZM57.8143 117.168C57.0863 117.168 56.419 116.995 55.8123 116.65C55.215 116.305 54.739 115.833 54.3843 115.236C54.0297 114.639 53.8523 113.962 53.8523 113.206C53.8523 112.441 54.0297 111.764 54.3843 111.176C54.739 110.579 55.215 110.112 55.8123 109.776C56.4097 109.431 57.077 109.258 57.8143 109.258C58.561 109.258 59.2283 109.431 59.8163 109.776C60.4137 110.112 60.885 110.579 61.2303 111.176C61.585 111.764 61.7623 112.441 61.7623 113.206C61.7623 113.971 61.585 114.653 61.2303 115.25C60.8757 115.847 60.3997 116.319 59.8023 116.664C59.205 117 58.5423 117.168 57.8143 117.168ZM57.8143 115.698C58.2623 115.698 58.659 115.591 59.0043 115.376C59.3497 115.161 59.6203 114.867 59.8163 114.494C60.0217 114.111 60.1243 113.682 60.1243 113.206C60.1243 112.73 60.0217 112.305 59.8163 111.932C59.6203 111.559 59.3497 111.265 59.0043 111.05C58.659 110.835 58.2623 110.728 57.8143 110.728C57.3757 110.728 56.979 110.835 56.6243 111.05C56.279 111.265 56.0037 111.559 55.7983 111.932C55.6023 112.305 55.5043 112.73 55.5043 113.206C55.5043 113.682 55.6023 114.111 55.7983 114.494C56.0037 114.867 56.279 115.161 56.6243 115.376C56.979 115.591 57.3757 115.698 57.8143 115.698ZM63.3068 117V109.426H64.8188V110.91L64.6368 110.714C64.8235 110.238 65.1221 109.879 65.5328 109.636C65.9435 109.384 66.4195 109.258 66.9608 109.258C67.5208 109.258 68.0155 109.379 68.4448 109.622C68.8741 109.865 69.2101 110.201 69.4528 110.63C69.6955 111.059 69.8168 111.554 69.8168 112.114V117H68.2488V112.534C68.2488 112.151 68.1788 111.829 68.0388 111.568C67.8988 111.297 67.6981 111.092 67.4368 110.952C67.1848 110.803 66.8955 110.728 66.5688 110.728C66.2421 110.728 65.9481 110.803 65.6868 110.952C65.4348 111.092 65.2388 111.297 65.0988 111.568C64.9588 111.839 64.8888 112.161 64.8888 112.534V117H63.3068ZM75.1639 120.08C74.6133 120.08 74.1046 119.991 73.6379 119.814C73.1713 119.637 72.7699 119.389 72.4339 119.072C72.0979 118.764 71.8459 118.4 71.6779 117.98L73.1339 117.378C73.2646 117.733 73.5026 118.027 73.8479 118.26C74.2026 118.493 74.6366 118.61 75.1499 118.61C75.5513 118.61 75.9106 118.531 76.2279 118.372C76.5453 118.223 76.7973 117.999 76.9839 117.7C77.1706 117.411 77.2639 117.061 77.2639 116.65V114.942L77.5439 115.264C77.2826 115.749 76.9186 116.118 76.4519 116.37C75.9946 116.622 75.4766 116.748 74.8979 116.748C74.1979 116.748 73.5679 116.585 73.0079 116.258C72.4479 115.931 72.0046 115.483 71.6779 114.914C71.3606 114.345 71.2019 113.705 71.2019 112.996C71.2019 112.277 71.3606 111.638 71.6779 111.078C72.0046 110.518 72.4433 110.075 72.9939 109.748C73.5446 109.421 74.1746 109.258 74.8839 109.258C75.4626 109.258 75.9759 109.384 76.4239 109.636C76.8813 109.879 77.2546 110.233 77.5439 110.7L77.3339 111.092V109.426H78.8319V116.65C78.8319 117.303 78.6733 117.887 78.3559 118.4C78.0479 118.923 77.6186 119.333 77.0679 119.632C76.5173 119.931 75.8826 120.08 75.1639 120.08ZM75.0799 115.278C75.4999 115.278 75.8733 115.18 76.1999 114.984C76.5266 114.779 76.7833 114.508 76.9699 114.172C77.1659 113.827 77.2639 113.439 77.2639 113.01C77.2639 112.581 77.1659 112.193 76.9699 111.848C76.7739 111.503 76.5126 111.232 76.1859 111.036C75.8593 110.831 75.4906 110.728 75.0799 110.728C74.6506 110.728 74.2679 110.831 73.9319 111.036C73.5959 111.232 73.3299 111.503 73.1339 111.848C72.9473 112.184 72.8539 112.571 72.8539 113.01C72.8539 113.43 72.9473 113.813 73.1339 114.158C73.3299 114.503 73.5959 114.779 73.9319 114.984C74.2679 115.18 74.6506 115.278 75.0799 115.278ZM84.3378 117.168C83.6098 117.168 82.9424 116.995 82.3358 116.65C81.7384 116.305 81.2624 115.833 80.9078 115.236C80.5531 114.639 80.3758 113.962 80.3758 113.206C80.3758 112.441 80.5531 111.764 80.9078 111.176C81.2624 110.579 81.7384 110.112 82.3358 109.776C82.9331 109.431 83.6004 109.258 84.3378 109.258C85.0844 109.258 85.7518 109.431 86.3398 109.776C86.9371 110.112 87.4084 110.579 87.7538 111.176C88.1084 111.764 88.2858 112.441 88.2858 113.206C88.2858 113.971 88.1084 114.653 87.7538 115.25C87.3991 115.847 86.9231 116.319 86.3258 116.664C85.7284 117 85.0658 117.168 84.3378 117.168ZM84.3378 115.698C84.7858 115.698 85.1824 115.591 85.5278 115.376C85.8731 115.161 86.1438 114.867 86.3398 114.494C86.5451 114.111 86.6478 113.682 86.6478 113.206C86.6478 112.73 86.5451 112.305 86.3398 111.932C86.1438 111.559 85.8731 111.265 85.5278 111.05C85.1824 110.835 84.7858 110.728 84.3378 110.728C83.8991 110.728 83.5024 110.835 83.1478 111.05C82.8024 111.265 82.5271 111.559 82.3218 111.932C82.1258 112.305 82.0278 112.73 82.0278 113.206C82.0278 113.682 82.1258 114.111 82.3218 114.494C82.5271 114.867 82.8024 115.161 83.1478 115.376C83.5024 115.591 83.8991 115.698 84.3378 115.698ZM89.9843 117V106.57H93.4003C94.4829 106.57 95.4209 106.789 96.2143 107.228C97.0169 107.657 97.6376 108.264 98.0763 109.048C98.5149 109.832 98.7343 110.742 98.7343 111.778C98.7343 112.805 98.5149 113.715 98.0763 114.508C97.6376 115.292 97.0169 115.903 96.2143 116.342C95.4209 116.781 94.4829 117 93.4003 117H89.9843ZM91.6363 115.53H93.4283C94.1656 115.53 94.8049 115.376 95.3463 115.068C95.8969 114.76 96.3216 114.326 96.6202 113.766C96.9189 113.206 97.0683 112.543 97.0683 111.778C97.0683 111.013 96.9143 110.355 96.6063 109.804C96.3076 109.244 95.8876 108.81 95.3463 108.502C94.8049 108.194 94.1656 108.04 93.4283 108.04H91.6363V115.53ZM100.361 117V106.57H104.757C105.411 106.57 105.975 106.687 106.451 106.92C106.927 107.144 107.291 107.471 107.543 107.9C107.795 108.32 107.921 108.819 107.921 109.398C107.921 109.902 107.791 110.364 107.529 110.784C107.277 111.195 106.881 111.521 106.339 111.764V111.064C106.815 111.251 107.203 111.489 107.501 111.778C107.8 112.058 108.015 112.375 108.145 112.73C108.285 113.085 108.355 113.458 108.355 113.85C108.355 114.83 108.033 115.6 107.389 116.16C106.755 116.72 105.882 117 104.771 117H100.361ZM102.013 115.53H104.897C105.448 115.53 105.887 115.381 106.213 115.082C106.54 114.774 106.703 114.368 106.703 113.864C106.703 113.351 106.54 112.945 106.213 112.646C105.887 112.338 105.448 112.184 104.897 112.184H102.013V115.53ZM102.013 110.728H104.799C105.247 110.728 105.607 110.602 105.877 110.35C106.148 110.089 106.283 109.748 106.283 109.328C106.283 108.908 106.148 108.581 105.877 108.348C105.607 108.115 105.247 107.998 104.799 107.998H102.013V110.728Z" fill="white"/>
<defs>
<clipPath id="clip0_244_360">
<rect width="60" height="60" fill="white" transform="translate(45 36)"/>
</clipPath>
</defs>
</svg>
