<svg width="80" height="80" viewBox="0 0 80 80" fill="none" xmlns="http://www.w3.org/2000/svg">
<g clip-path="url(#clip0_232_87)">
<path d="M57.31 31.85C53.0967 13.25 43.1367 7.13667 42.0667 4.8C41.1334 3.48667 40.3 1.62 39.6167 0C39.4967 1.65 39.4334 2.28333 37.8734 3.94667C35.4634 5.83333 23.08 16.22 22.0734 37.3467C21.1334 57.0533 36.3067 68.7967 38.3667 70.2933L38.6 70.46C39.029 73.6325 39.3958 76.8131 39.7 80H41.3034C41.6834 76.56 42.25 73.1467 43.0034 69.7667C44.3934 68.78 45.0167 68.2233 45.8367 67.4567C49.7199 63.8643 52.806 59.497 54.8954 54.6371C56.9849 49.7772 58.0312 44.533 57.9667 39.2433C58 36.53 57.6234 33.7033 57.31 31.85ZM39.5234 59.1667C39.5234 59.1667 39.5234 31.53 40.44 31.5333C41.15 31.5333 42.0734 67.1833 42.0734 67.1833C40.8034 67.0333 39.5234 61.3167 39.5234 59.1667Z" fill="#F9EEE7"/>
</g>
<defs>
<clipPath id="clip0_232_87">
<rect width="80" height="80" fill="white"/>
</clipPath>
</defs>
</svg>
