<svg width="80" height="80" viewBox="0 0 80 80" fill="none" xmlns="http://www.w3.org/2000/svg">
<g clip-path="url(#clip0_232_85)">
<path d="M39.9933 80.0001C38.9233 80.0001 37.8566 79.7201 36.9199 79.1768L27.1333 73.3868C25.6733 72.5701 26.3866 72.2801 26.8666 72.1101C28.8166 71.4334 29.2099 71.2768 31.2933 70.0968C31.5099 69.9734 31.7966 70.0201 32.0199 70.1534L39.5399 74.6168C39.8133 74.7668 40.1966 74.7668 40.4466 74.6168L69.7633 57.6968C70.0366 57.5401 70.2099 57.2268 70.2099 56.9034V23.0701C70.2099 22.7401 70.0333 22.4301 69.7533 22.2634L40.4499 5.35677C40.1799 5.2001 39.8199 5.2001 39.5466 5.35677L10.2499 22.2668C9.96661 22.4301 9.78661 22.7501 9.78661 23.0701V56.9034C9.78661 57.2268 9.96661 57.5334 10.2499 57.6868L18.2799 62.3268C22.6366 64.5068 25.3066 61.9401 25.3066 59.3601V25.9568C25.3066 25.4834 25.6866 25.1134 26.1599 25.1134H29.8766C30.3399 25.1134 30.7266 25.4868 30.7266 25.9568V59.3601C30.7266 65.1768 27.5599 68.5101 22.0466 68.5101C20.3533 68.5101 19.0166 68.5101 15.2933 66.6734L7.59994 62.2501C5.69994 61.1534 4.52661 59.1001 4.52661 56.9034V23.0701C4.52661 20.8734 5.70328 18.8201 7.59994 17.7268L36.9166 0.786768C38.7733 -0.263232 41.2366 -0.263232 43.0766 0.786768L72.3899 17.7268C74.2899 18.8234 75.4699 20.8734 75.4699 23.0701V56.9034C75.4699 59.1001 74.2899 61.1468 72.3899 62.2501L43.0766 79.1768C42.1433 79.7201 41.0799 80.0001 39.9933 80.0001ZM63.6633 46.6434C63.6633 40.3101 59.3833 38.6234 50.3733 37.4334C41.2699 36.2301 40.3433 35.6068 40.3433 33.4768C40.3433 31.7168 41.1266 29.3668 47.8699 29.3668C53.8933 29.3668 56.1133 30.6634 57.0266 34.7234C57.1066 35.1068 57.4566 35.3868 57.8499 35.3868H61.6533C61.8899 35.3868 62.1133 35.2834 62.2733 35.1168C62.4333 34.9368 62.5199 34.7068 62.4966 34.4634C61.9066 27.4701 57.2599 24.2101 47.8699 24.2101C39.5099 24.2101 34.5233 27.7368 34.5233 33.6534C34.5233 40.0701 39.4833 41.8434 47.5066 42.6368C57.1066 43.5768 57.8499 44.9801 57.8499 46.8668C57.8499 50.1434 55.2199 51.5401 49.0433 51.5401C41.2866 51.5401 39.5799 49.5934 39.0066 45.7334C38.9399 45.3201 38.5866 45.0168 38.1633 45.0168H34.3733C33.9033 45.0168 33.5266 45.3901 33.5266 45.8601C33.5266 50.8001 36.2133 56.6868 49.0433 56.6868C58.3366 56.6901 63.6633 53.0334 63.6633 46.6434Z" fill="#F9EEE7"/>
</g>
<defs>
<clipPath id="clip0_232_85">
<rect width="80" height="80" fill="white"/>
</clipPath>
</defs>
</svg>
