<svg width="80" height="80" viewBox="0 0 80 80" fill="none" xmlns="http://www.w3.org/2000/svg">
<path d="M34.3833 16.2533L21.016 9.50567L6.34599 16.8273L20.0747 23.7217L34.3833 16.2533ZM40.5103 19.3457L54.5253 26.42L39.9847 33.722L26.2347 26.816L40.5103 19.3457ZM59.228 9.608L73.6257 16.8273L60.749 23.2947L46.7053 16.2107L59.228 9.608ZM53.0313 6.49833L40.07 0L27.2473 6.39767L40.6033 13.1337L53.0313 6.49833ZM42.8977 62.3127V80L58.6 72.1643L58.5823 54.4693L42.8977 62.3127ZM58.5767 48.2937L58.5593 30.7843L42.8977 38.5697V56.085L58.5767 48.2937ZM77.4277 45.012V62.7687L64.035 69.4527L64.0253 51.7767L77.4277 45.012ZM77.4277 38.8033V21.4047L64.01 28.0747L64.0213 45.619L77.4277 38.8033ZM37.354 38.57L26.7777 33.252V56.2353C26.7777 56.2353 13.843 28.714 12.6447 26.242C12.4903 25.923 11.8543 25.573 11.692 25.488C9.37266 24.2707 2.57666 20.8283 2.57666 20.8283V61.4333L11.978 66.4587V45.234C11.978 45.234 24.7753 69.8257 24.9047 70.094C25.0343 70.363 26.3197 72.9547 27.692 73.8653C29.5203 75.0753 37.356 79.7873 37.356 79.7873L37.354 38.57Z" fill="#F9EEE7"/>
</svg>
