<svg width="80" height="80" viewBox="0 0 80 80" fill="none" xmlns="http://www.w3.org/2000/svg">
<g clip-path="url(#clip0_232_97)">
<path d="M78.5314 49.076C78.4857 48.9363 78.4226 48.803 78.3437 48.679C77.8804 47.8017 76.7544 47.5397 74.9857 47.9053C69.4747 49.0423 67.3407 48.3427 66.567 47.8417C71.0404 41.0143 74.717 32.7683 76.704 25.076C77.6087 21.5737 79.3647 13.3303 77.1114 9.304C76.9674 9.02842 76.7991 8.76626 76.6084 8.52067C72.3104 3.02867 66.0024 0.0826713 58.3664 0.00167134C53.384 -0.0509953 49.1314 1.15534 47.9794 1.59967C47.4088 1.49318 46.8353 1.40247 46.2597 1.32767C44.8167 1.06637 43.3547 0.923894 41.8884 0.901671C37.9477 0.840338 34.5424 1.78234 31.7224 3.70367C28.8647 2.63334 15.7597 -1.77966 7.64937 3.96634C3.1197 7.17534 1.0287 12.911 1.43404 21.0143C1.57037 23.741 3.1237 32.1277 5.57504 40.1597C7.1077 45.1813 8.70404 49.166 10.353 52.0997C12.1964 55.4137 14.106 57.4107 16.0674 58.0647C17.5587 58.5617 19.843 58.545 22.261 55.6383C24.9317 52.4267 27.562 49.5523 28.743 48.282C30.1934 49.067 31.7644 49.4903 33.3764 49.5393C33.3767 49.5439 33.3771 49.5485 33.3777 49.553C33.097 49.8874 32.8223 50.2268 32.5537 50.571C31.424 52.005 31.189 52.3033 27.553 53.052C26.519 53.2653 23.7717 53.8317 23.7317 55.757C23.7234 56.165 23.8414 56.5267 24.038 56.8463C24.7944 58.2567 27.11 58.8787 27.4214 58.9567C31.8697 60.0683 35.7694 59.2633 38.6594 56.6943C38.6027 64.131 38.9177 71.419 39.8107 73.6523C40.548 75.4953 42.35 80.0007 48.0414 80C48.8764 80 49.7957 79.903 50.8067 79.6863C56.7464 78.4127 59.3257 75.7877 60.3234 70C60.8244 67.0977 61.662 60.4157 62.1194 56.3293C62.1757 56.095 62.2384 55.927 62.3094 55.8753C62.3117 55.8737 62.5417 55.7183 63.7334 55.9777C63.7821 55.9882 63.8314 55.9958 63.881 56.0003L64.7274 56.0747L64.777 56.078C67.5997 56.206 71.1484 55.6027 73.2144 54.642C75.3604 53.646 79.2334 51.201 78.5314 49.076ZM7.90337 39.5883C5.42504 31.469 3.97704 23.3047 3.86237 21.0153C3.50037 13.7773 5.2527 8.73901 9.07004 6.03967C15.1924 1.71101 25.2027 4.23701 29.43 5.60634C29.4194 5.61701 29.408 5.62667 29.3974 5.63767C22.6514 12.451 22.8114 24.091 22.828 24.8027C22.8274 25.077 22.85 25.4657 22.882 26.0003C22.998 27.958 23.214 31.6017 22.637 35.7283C22.1007 39.563 23.2827 43.3163 25.8797 46.0257C26.1484 46.306 26.429 46.5693 26.719 46.817C25.563 48.055 23.051 50.7923 20.3774 54.009C18.485 56.284 17.1784 55.848 16.7487 55.7047C15.4424 55.269 14.0387 53.7477 12.6217 51.297C11.023 48.5003 9.41004 44.5247 7.90337 39.5883ZM27.9274 56.5453C27.357 56.4027 26.837 56.168 26.4867 55.9547C26.783 55.8233 27.278 55.654 28.0977 55.485C32.3754 54.6047 33.036 53.983 34.4787 52.151C34.8094 51.731 35.184 51.2553 35.703 50.6757C35.8147 50.5505 35.8984 50.403 35.9487 50.243C36.518 49.7387 36.8567 49.8767 37.405 50.104C37.925 50.3193 38.431 50.9707 38.6367 51.688C38.7337 52.0267 38.843 52.6697 38.486 53.1693C35.4717 57.3887 31.0807 57.334 27.9274 56.5453ZM34.9074 43.252L34.7324 43.722C34.289 44.9107 33.8767 46.0157 33.621 47.0653C31.3964 47.0583 29.2317 46.108 27.586 44.3907C25.493 42.207 24.5424 39.1693 24.9777 36.056C25.587 31.6963 25.362 27.9 25.241 25.8607C25.2244 25.575 25.2094 25.325 25.2004 25.1277C26.186 24.254 30.7534 21.807 34.01 22.553C35.4964 22.8937 36.402 23.9053 36.7784 25.6463C38.727 34.659 37.0364 38.4153 35.6777 41.434C35.3977 42.056 35.1334 42.6437 34.9074 43.252ZM59.453 58.4937C59.3967 59.083 59.3337 59.747 59.247 60.48L58.7604 61.941C58.7217 62.0568 58.7013 62.1779 58.6997 62.3C58.68 63.8823 58.5197 64.463 58.3164 65.1977C58.105 65.9617 57.8654 66.828 57.7184 68.7227C57.3517 73.437 54.791 76.145 49.661 77.2443C44.6094 78.328 43.7134 75.5883 42.9237 73.172C42.8428 72.9187 42.7574 72.6669 42.6674 72.4167C41.9494 70.464 42.0304 67.7103 42.1427 63.8997C42.1977 62.029 42.0597 57.562 41.042 55.079C41.0567 54.1017 41.0774 53.1093 41.1054 52.1063C41.1088 51.9793 41.0915 51.8525 41.0544 51.731C41.0221 51.4967 40.9732 51.265 40.908 51.0377C40.4994 49.61 39.5037 48.4157 38.309 47.9207C37.8344 47.724 36.963 47.3633 35.9164 47.631C36.1397 46.711 36.5267 45.6727 36.9464 44.548L37.1227 44.0747C37.321 43.5413 37.5694 42.989 37.8327 42.404C39.2544 39.2453 41.2014 34.9197 39.088 25.1467C38.2967 21.4863 35.6534 19.699 31.6467 20.114C29.2444 20.3627 27.047 21.332 25.9507 21.8877C25.7309 21.9991 25.5133 22.1148 25.298 22.2347C25.604 18.5467 26.76 11.6543 31.0837 7.29367C31.4049 6.97005 31.7423 6.66298 32.0947 6.37367C32.2697 6.33955 32.4346 6.26615 32.577 6.15901C35.085 4.25701 38.2254 3.32367 41.917 3.384C43.2807 3.40634 44.5894 3.497 45.831 3.654C52.2944 4.83534 56.644 8.47667 59.284 11.5963C61.9984 14.804 63.468 18.0347 64.0547 19.7773C59.644 19.3287 56.6434 20.2 55.1224 22.374C51.8137 27.1037 56.9324 36.2837 59.3927 40.6953C59.8437 41.504 60.2334 42.2027 60.3557 42.4997C61.1567 44.4413 62.194 45.7373 62.9514 46.6837C63.1834 46.9737 63.4087 47.255 63.5797 47.5003C62.2437 47.8853 59.8437 48.7753 60.0624 53.2237C60.0214 53.7447 59.9214 54.7133 59.7844 55.9397C59.6307 56.632 59.5504 57.474 59.453 58.4937ZM62.4214 53.09C62.2864 50.318 63.3184 50.0283 64.4104 49.7217C64.5615 49.6803 64.7115 49.6351 64.8604 49.5863C65.0012 49.7111 65.1507 49.8259 65.3077 49.9297C67.2087 51.1847 70.582 51.334 75.3304 50.3777C74.6584 50.9673 73.6007 51.709 72.1527 52.3813C70.7867 53.0157 68.5004 53.4913 66.3284 53.5933C63.9294 53.7053 62.7087 53.3243 62.4214 53.09ZM64.3197 22.186C64.3 23.3553 64.139 24.4167 63.9684 25.525C63.785 26.717 63.595 27.9497 63.547 29.4457C63.4997 30.9017 63.6817 32.4153 63.8577 33.8793C64.213 36.836 64.5777 39.8803 63.166 42.884C62.9317 42.4686 62.7229 42.0394 62.5407 41.5987C62.365 41.1733 61.9844 40.49 61.457 39.5447C59.405 35.8643 54.599 27.246 57.0594 23.7293C58.3244 21.9203 61.5287 21.8423 64.3197 22.186ZM65.081 45.565C64.9869 45.4451 64.8921 45.3258 64.7967 45.207L64.6784 45.059C67.099 41.0607 66.6257 37.105 66.2044 33.5973C66.0314 32.158 65.868 30.7987 65.9094 29.522C65.9524 28.1683 66.1314 27.0077 66.3044 25.885C66.5174 24.5017 66.7337 23.0707 66.674 21.3833C66.7187 21.2063 66.7367 20.9973 66.7134 20.7493C66.561 19.131 64.7137 14.2893 60.9487 9.90601C58.9234 7.54834 55.9834 4.91534 51.9857 3.10767C53.736 2.75234 56.095 2.42934 58.7337 2.488C65.572 2.64 70.9824 5.19967 74.8144 10.096C74.8958 10.2023 74.9701 10.3139 75.0367 10.43C77.447 14.9487 74.116 31.347 65.081 45.565ZM35.6924 25.1777C35.609 25.7757 34.6627 26.586 33.622 26.586C33.5318 26.5861 33.4417 26.5798 33.3524 26.5673C32.728 26.4807 32.0974 26.0873 31.666 25.5153C31.5134 25.3137 31.265 24.922 31.3144 24.5673C31.3327 24.4337 31.4014 24.239 31.6227 24.0713C32.0167 23.7733 32.7954 23.6627 33.6547 23.7823C34.709 23.9293 35.7967 24.4283 35.6924 25.1777ZM62.1274 23.8063C62.1644 24.0703 61.964 24.4763 61.617 24.8403C61.3894 25.0793 60.9104 25.494 60.2574 25.5843C60.1745 25.5959 60.091 25.6017 60.0074 25.6017C59.029 25.6017 58.2027 24.8203 58.1384 24.3627C58.0584 23.7743 59.0187 23.3273 60.0087 23.1893C60.9987 23.0513 62.0457 23.2187 62.1274 23.8063Z" fill="#F9EEE7"/>
</g>
<defs>
<clipPath id="clip0_232_97">
<rect width="80" height="80" fill="white"/>
</clipPath>
</defs>
</svg>
