<svg width="150" height="150" viewBox="0 0 150 150" fill="none" xmlns="http://www.w3.org/2000/svg">
<path d="M75 0L139.952 37.5V112.5L75 150L10.0481 112.5V37.5L75 0Z" fill="#001C55"/>
<path d="M99.5171 80.712L78.8821 36.8912C78.3646 35.7957 77.2846 35.073 76.0606 35.006C74.8048 34.9327 73.6798 35.5385 73.0451 36.5692L50.6651 72.8177C49.9718 73.9472 49.9856 75.3405 50.7046 76.4565L61.6443 93.403C62.2963 94.4145 63.4261 95 64.6001 95C64.9331 95 65.2676 94.953 65.5968 94.8557L97.3516 85.4637C98.3243 85.176 99.1196 84.4877 99.5358 83.5755C99.9521 82.6632 99.9441 81.6185 99.5171 80.712ZM94.8968 82.5917L67.9536 90.5605C67.1306 90.8042 66.3416 90.0922 66.5146 89.262L76.1398 43.1655C76.3198 42.3035 77.5113 42.1665 77.8873 42.9647L95.7093 80.8097C96.0453 81.5237 95.6618 82.3657 94.8968 82.5917Z" fill="#F9EEE7"/>
<path d="M55.078 120V109.57H58.872C59.572 109.57 60.188 109.701 60.72 109.962C61.2613 110.214 61.6813 110.587 61.98 111.082C62.2787 111.567 62.428 112.151 62.428 112.832C62.428 113.504 62.274 114.083 61.966 114.568C61.6673 115.053 61.252 115.427 60.72 115.688C60.188 115.949 59.572 116.08 58.872 116.08H56.73V120H55.078ZM56.73 114.61H58.914C59.2873 114.61 59.614 114.535 59.894 114.386C60.174 114.237 60.3933 114.031 60.552 113.77C60.7107 113.499 60.79 113.182 60.79 112.818C60.79 112.454 60.7107 112.141 60.552 111.88C60.3933 111.609 60.174 111.404 59.894 111.264C59.614 111.115 59.2873 111.04 58.914 111.04H56.73V114.61ZM63.9748 120V112.426H65.4868V113.952L65.3468 113.728C65.5148 113.233 65.7854 112.879 66.1588 112.664C66.5321 112.44 66.9801 112.328 67.5028 112.328H67.9648V113.77H67.3068C66.7841 113.77 66.3594 113.933 66.0328 114.26C65.7154 114.577 65.5568 115.035 65.5568 115.632V120H63.9748ZM69.047 120V112.426H70.629V120H69.047ZM69.047 111.39V109.57H70.629V111.39H69.047ZM75.2787 120.168C74.504 120.168 73.8227 119.977 73.2347 119.594C72.656 119.211 72.25 118.698 72.0167 118.054L73.2347 117.48C73.44 117.909 73.72 118.25 74.0747 118.502C74.4387 118.754 74.84 118.88 75.2787 118.88C75.652 118.88 75.9554 118.796 76.1887 118.628C76.422 118.46 76.5387 118.231 76.5387 117.942C76.5387 117.755 76.4874 117.606 76.3847 117.494C76.282 117.373 76.1514 117.275 75.9927 117.2C75.8434 117.125 75.6894 117.069 75.5307 117.032L74.3407 116.696C73.6874 116.509 73.1974 116.229 72.8707 115.856C72.5534 115.473 72.3947 115.03 72.3947 114.526C72.3947 114.069 72.5114 113.672 72.7447 113.336C72.978 112.991 73.3 112.725 73.7107 112.538C74.1214 112.351 74.5834 112.258 75.0967 112.258C75.7874 112.258 76.4034 112.431 76.9447 112.776C77.486 113.112 77.8687 113.583 78.0927 114.19L76.8747 114.764C76.7254 114.4 76.4874 114.111 76.1607 113.896C75.8434 113.681 75.484 113.574 75.0827 113.574C74.7374 113.574 74.462 113.658 74.2567 113.826C74.0514 113.985 73.9487 114.195 73.9487 114.456C73.9487 114.633 73.9954 114.783 74.0887 114.904C74.182 115.016 74.3034 115.109 74.4527 115.184C74.602 115.249 74.756 115.305 74.9147 115.352L76.1467 115.716C76.772 115.893 77.2527 116.173 77.5887 116.556C77.9247 116.929 78.0927 117.377 78.0927 117.9C78.0927 118.348 77.9714 118.745 77.7287 119.09C77.4954 119.426 77.1687 119.692 76.7487 119.888C76.3287 120.075 75.8387 120.168 75.2787 120.168ZM79.6427 120V112.426H81.1548V114.064L80.9588 113.812C81.1174 113.299 81.4068 112.911 81.8268 112.65C82.2468 112.389 82.7274 112.258 83.2688 112.258C83.8754 112.258 84.4121 112.421 84.8788 112.748C85.3548 113.065 85.6721 113.49 85.8308 114.022L85.3828 114.064C85.6068 113.457 85.9474 113.005 86.4048 112.706C86.8714 112.407 87.4034 112.258 88.0008 112.258C88.5234 112.258 88.9948 112.379 89.4148 112.622C89.8441 112.865 90.1848 113.201 90.4368 113.63C90.6888 114.059 90.8148 114.549 90.8148 115.1V120H89.2328V115.534C89.2328 115.151 89.1628 114.829 89.0228 114.568C88.8921 114.297 88.7054 114.092 88.4628 113.952C88.2294 113.803 87.9541 113.728 87.6368 113.728C87.3194 113.728 87.0394 113.803 86.7968 113.952C86.5541 114.092 86.3628 114.297 86.2228 114.568C86.0828 114.839 86.0128 115.161 86.0128 115.534V120H84.4448V115.534C84.4448 115.151 84.3748 114.829 84.2348 114.568C84.1041 114.297 83.9174 114.092 83.6748 113.952C83.4414 113.803 83.1614 113.728 82.8347 113.728C82.5174 113.728 82.2374 113.803 81.9948 113.952C81.7521 114.092 81.5608 114.297 81.4208 114.568C81.2901 114.839 81.2248 115.161 81.2248 115.534V120H79.6427ZM94.776 120.168C94.2627 120.168 93.81 120.079 93.418 119.902C93.0353 119.715 92.7367 119.463 92.522 119.146C92.3073 118.819 92.2 118.437 92.2 117.998C92.2 117.587 92.2887 117.219 92.466 116.892C92.6527 116.565 92.9373 116.29 93.32 116.066C93.7027 115.842 94.1833 115.683 94.762 115.59L97.394 115.156V116.402L95.07 116.808C94.65 116.883 94.342 117.018 94.146 117.214C93.95 117.401 93.852 117.643 93.852 117.942C93.852 118.231 93.9593 118.469 94.174 118.656C94.398 118.833 94.6827 118.922 95.028 118.922C95.4573 118.922 95.8307 118.829 96.148 118.642C96.4747 118.455 96.7267 118.208 96.904 117.9C97.0813 117.583 97.17 117.233 97.17 116.85V114.904C97.17 114.531 97.03 114.227 96.75 113.994C96.4793 113.751 96.1153 113.63 95.658 113.63C95.238 113.63 94.8693 113.742 94.552 113.966C94.244 114.181 94.0153 114.461 93.866 114.806L92.55 114.148C92.69 113.775 92.9187 113.448 93.236 113.168C93.5533 112.879 93.922 112.655 94.342 112.496C94.7713 112.337 95.224 112.258 95.7 112.258C96.2973 112.258 96.8247 112.37 97.282 112.594C97.7487 112.818 98.108 113.131 98.36 113.532C98.6213 113.924 98.752 114.381 98.752 114.904V120H97.24V118.628L97.562 118.67C97.3847 118.978 97.156 119.244 96.876 119.468C96.6053 119.692 96.2927 119.865 95.938 119.986C95.5927 120.107 95.2053 120.168 94.776 120.168Z" fill="white"/>
</svg>
