<svg width="80" height="80" viewBox="0 0 80 80" fill="none" xmlns="http://www.w3.org/2000/svg">
<path d="M72.6893 60.9493L45.176 2.52162C44.486 1.06096 43.046 0.0972895 41.414 0.00795612C39.7397 -0.0897105 38.2397 0.717956 37.3933 2.09229L7.55333 50.4236C6.629 51.9296 6.64733 53.7873 7.606 55.2753L22.1923 77.8706C23.0617 79.2193 24.568 80 26.1333 80C26.5773 80 27.0233 79.9373 27.4623 79.8076L69.802 67.285C71.099 66.9013 72.1593 65.9836 72.7143 64.7673C73.2693 63.551 73.2587 62.158 72.6893 60.9493ZM66.529 63.4556L30.6047 74.0806C29.5073 74.4056 28.4553 73.4563 28.686 72.3493L41.5197 10.8873C41.7597 9.73796 43.3483 9.55529 43.8497 10.6196L67.6123 61.0796C68.0603 62.0316 67.549 63.1543 66.529 63.4556Z" fill="#F9EEE7"/>
</svg>
