<svg width="80" height="80" viewBox="0 0 80 80" fill="none" xmlns="http://www.w3.org/2000/svg">
<path d="M72.31 10.54H11.1L0 21.6334V69.46H68.9033L80 58.3667V10.54H72.31ZM42.6167 61.3334L37.41 63.76L32.91 56.37C32.2567 56.56 31.2467 56.67 29.83 56.67C24.5667 56.67 20.8867 55.2534 18.8133 52.4167C16.74 49.5834 15.7067 45.0834 15.7067 38.9734C15.7067 32.84 16.77 28.2867 18.87 25.3134C20.97 22.34 24.6233 20.8434 29.83 20.8434C35.0367 20.8434 38.69 22.3134 40.7633 25.2867C42.8633 28.23 43.8967 32.7867 43.8967 38.9467C43.8967 43.01 43.4633 46.28 42.6167 48.7634C41.7467 51.27 40.3533 53.18 38.39 54.49L42.6167 61.3334ZM58.4033 56.0434C55.5433 56.0434 53.58 55.39 52.5167 54.0767C51.45 52.77 50.9067 50.29 50.9067 46.6367V34.8567H47.0333V30.17H50.9067V22.81H56.3867V30.1667H63.3667V34.8834H56.3867V46.0367C56.3867 48.11 56.5533 49.47 56.8533 50.1267C57.1533 50.8067 57.94 51.1367 59.17 51.1367L63.3133 50.97L63.5567 55.39C61.3233 55.8234 59.6033 56.0434 58.4033 56.0434ZM29.8033 25.7767C26.6367 25.7767 24.4567 26.8134 23.26 28.91C22.0867 31.01 21.4867 34.34 21.4867 38.9467C21.4867 43.5267 22.06 46.8267 23.2033 48.79C24.35 50.7534 26.5567 51.7634 29.8033 51.7634C33.0467 51.7634 35.23 50.78 36.3733 48.8434C37.49 46.91 38.0633 43.61 38.0633 39C38.0633 34.3667 37.49 31.0134 36.32 28.9134C35.1467 26.8134 32.9667 25.78 29.8033 25.78V25.7767Z" fill="#F9EEE7"/>
</svg>
