<svg width="150" height="150" viewBox="0 0 150 150" fill="none" xmlns="http://www.w3.org/2000/svg">
<path d="M75 0L139.952 37.5V112.5L75 150L10.0481 112.5V37.5L75 0Z" fill="#001C55"/>
<g clip-path="url(#clip0_244_365)">
<path d="M80.6251 35.45L82.8751 35.95L84.7001 36.6L86.1751 37.35L87.3001 38.15L88.1501 39L88.7751 39.85L89.1751 40.675L89.4251 41.425L89.5251 42.075L89.5751 42.575L89.5501 42.9V56.25L89.4251 57.825L89.1001 59.2L88.5751 60.35L87.9251 61.3L87.1751 62.075L86.3501 62.7L85.4751 63.175L84.6001 63.525L83.7751 63.775L83.0251 63.95L82.3751 64.05L81.8501 64.1H66.9251L65.2001 64.225L63.7251 64.575L62.4751 65.125L61.4501 65.8L60.6251 66.6L59.9501 67.475L59.4501 68.375L59.0751 69.3L58.8251 70.175L58.6501 70.975L58.5501 71.65L58.5001 72.175V79.825H52.9251L52.4001 79.75L51.7001 79.575L50.9001 79.275L50.0251 78.825L49.1251 78.175L48.2251 77.275L47.3501 76.125L46.5501 74.65L45.8501 72.825L45.3251 70.625L44.9751 68L44.8501 64.925L45.0001 61.875L45.4001 59.275L46.0001 57.1L46.8001 55.325L47.7001 53.9L48.7001 52.8L49.7501 51.975L50.8001 51.375L51.8001 50.975L52.7001 50.725L53.5001 50.6L54.1001 50.575H54.5001L54.6501 50.6H75.0501V48.525H60.4501L60.4251 41.65L60.3751 40.725L60.5001 39.875L60.7751 39.1L61.2001 38.4L61.8251 37.75L62.6001 37.175L63.5501 36.675L64.6501 36.225L65.9251 35.85L67.3751 35.55L68.9751 35.3L70.7501 35.15L72.6751 35.05L74.7751 35L77.9501 35.125L80.6251 35.45ZM64.8751 40.4L64.3001 41.225L64.1001 42.25L64.3001 43.275L64.8751 44.125L65.7001 44.675L66.7251 44.9L67.7501 44.675L68.5751 44.125L69.1501 43.275L69.3501 42.25L69.1501 41.225L68.5751 40.4L67.7501 39.85L66.7251 39.625L65.7001 39.85L64.8751 40.4ZM97.6001 50.275L98.3001 50.425L99.1001 50.725L99.9751 51.175L100.875 51.85L101.775 52.725L102.65 53.9L103.45 55.375L104.15 57.2L104.675 59.4L105.025 62L105.15 65.075L105 68.15L104.6 70.75L104 72.9L103.2 74.675L102.3 76.1L101.3 77.225L100.25 78.05L99.2001 78.65L98.2001 79.05L97.3001 79.275L96.5001 79.4L95.9001 79.45L95.5001 79.425H74.9501V81.475H89.5501L89.5751 88.375L89.6251 89.275L89.5001 90.125L89.2251 90.9L88.8001 91.625L88.1751 92.25L87.4001 92.85L86.4501 93.35L85.3501 93.775L84.0751 94.15L82.6251 94.475L81.0251 94.7L79.2501 94.875L77.3251 94.975L75.2251 95L72.0501 94.9L69.3751 94.55L67.1251 94.05L65.3001 93.425L63.8251 92.675L62.7001 91.85L61.8501 91L61.2251 90.15L60.8251 89.325L60.5751 88.575L60.4751 87.95L60.4251 87.45L60.4501 87.125V73.775L60.5751 72.175L60.9001 70.825L61.4251 69.675L62.0751 68.725L62.8251 67.925L63.6501 67.325L64.5251 66.825L65.4001 66.475L66.2251 66.225L66.9751 66.075L67.6251 65.975L68.1501 65.925L68.4751 65.9H83.0751L84.8001 65.775L86.2751 65.425L87.5251 64.9L88.5501 64.2L89.3751 63.4L90.0501 62.525L90.5501 61.625L90.9251 60.725L91.1751 59.85L91.3501 59.05L91.4501 58.35L91.5001 57.825V50.175H96.7251L97.0751 50.2L97.6001 50.275ZM81.4251 85.9L80.8501 86.725L80.6501 87.75L80.8501 88.775L81.4251 89.6L82.2501 90.175L83.2751 90.375L84.3001 90.175L85.1251 89.6L85.7001 88.775L85.9001 87.75L85.7001 86.725L85.1251 85.9L84.3001 85.325L83.2751 85.125L82.2501 85.325L81.4251 85.9Z" fill="#F9EEE7"/>
</g>
<path d="M52.078 119V108.57H55.872C56.572 108.57 57.188 108.701 57.72 108.962C58.2613 109.214 58.6813 109.587 58.98 110.082C59.2787 110.567 59.428 111.151 59.428 111.832C59.428 112.504 59.274 113.083 58.966 113.568C58.6673 114.053 58.252 114.427 57.72 114.688C57.188 114.949 56.572 115.08 55.872 115.08H53.73V119H52.078ZM53.73 113.61H55.914C56.2873 113.61 56.614 113.535 56.894 113.386C57.174 113.237 57.3933 113.031 57.552 112.77C57.7107 112.499 57.79 112.182 57.79 111.818C57.79 111.454 57.7107 111.141 57.552 110.88C57.3933 110.609 57.174 110.404 56.894 110.264C56.614 110.115 56.2873 110.04 55.914 110.04H53.73V113.61ZM61.6468 122.094C61.4601 122.094 61.2734 122.075 61.0868 122.038C60.9094 122.01 60.7461 121.963 60.5968 121.898V120.54C60.7088 120.568 60.8441 120.591 61.0028 120.61C61.1614 120.638 61.3154 120.652 61.4648 120.652C61.9034 120.652 62.2254 120.554 62.4308 120.358C62.6454 120.171 62.8368 119.877 63.0048 119.476L63.5088 118.328L63.4808 119.658L60.2048 111.426H61.8988L64.3208 117.74H63.7468L66.1548 111.426H67.8628L64.5168 119.826C64.3394 120.274 64.1154 120.666 63.8448 121.002C63.5834 121.347 63.2708 121.613 62.9068 121.8C62.5521 121.996 62.1321 122.094 61.6468 122.094ZM72.2215 119.084C71.4282 119.084 70.8122 118.86 70.3735 118.412C69.9348 117.964 69.7155 117.334 69.7155 116.522V112.854H68.3855V111.426H68.5955C68.9502 111.426 69.2255 111.323 69.4215 111.118C69.6175 110.913 69.7155 110.633 69.7155 110.278V109.69H71.2975V111.426H73.0195V112.854H71.2975V116.452C71.2975 116.713 71.3395 116.937 71.4235 117.124C71.5075 117.301 71.6428 117.441 71.8295 117.544C72.0162 117.637 72.2588 117.684 72.5575 117.684C72.6322 117.684 72.7162 117.679 72.8095 117.67C72.9028 117.661 72.9915 117.651 73.0755 117.642V119C72.9448 119.019 72.8002 119.037 72.6415 119.056C72.4828 119.075 72.3428 119.084 72.2215 119.084ZM74.6193 119V108.402H76.2013V112.91L75.9493 112.714C76.136 112.238 76.4346 111.879 76.8453 111.636C77.256 111.384 77.732 111.258 78.2733 111.258C78.8333 111.258 79.328 111.379 79.7573 111.622C80.1866 111.865 80.5226 112.201 80.7653 112.63C81.008 113.059 81.1293 113.549 81.1293 114.1V119H79.5613V114.534C79.5613 114.151 79.4866 113.829 79.3373 113.568C79.1973 113.297 79.0013 113.092 78.7493 112.952C78.4973 112.803 78.208 112.728 77.8813 112.728C77.564 112.728 77.2746 112.803 77.0133 112.952C76.7613 113.092 76.5606 113.297 76.4113 113.568C76.2713 113.839 76.2013 114.161 76.2013 114.534V119H74.6193ZM86.4764 119.168C85.7484 119.168 85.0811 118.995 84.4744 118.65C83.8771 118.305 83.4011 117.833 83.0464 117.236C82.6918 116.639 82.5144 115.962 82.5144 115.206C82.5144 114.441 82.6918 113.764 83.0464 113.176C83.4011 112.579 83.8771 112.112 84.4744 111.776C85.0718 111.431 85.7391 111.258 86.4764 111.258C87.2231 111.258 87.8904 111.431 88.4784 111.776C89.0758 112.112 89.5471 112.579 89.8924 113.176C90.2471 113.764 90.4244 114.441 90.4244 115.206C90.4244 115.971 90.2471 116.653 89.8924 117.25C89.5378 117.847 89.0618 118.319 88.4644 118.664C87.8671 119 87.2044 119.168 86.4764 119.168ZM86.4764 117.698C86.9244 117.698 87.3211 117.591 87.6664 117.376C88.0118 117.161 88.2824 116.867 88.4784 116.494C88.6838 116.111 88.7864 115.682 88.7864 115.206C88.7864 114.73 88.6838 114.305 88.4784 113.932C88.2824 113.559 88.0118 113.265 87.6664 113.05C87.3211 112.835 86.9244 112.728 86.4764 112.728C86.0378 112.728 85.6411 112.835 85.2864 113.05C84.9411 113.265 84.6658 113.559 84.4604 113.932C84.2644 114.305 84.1664 114.73 84.1664 115.206C84.1664 115.682 84.2644 116.111 84.4604 116.494C84.6658 116.867 84.9411 117.161 85.2864 117.376C85.6411 117.591 86.0378 117.698 86.4764 117.698ZM91.9689 119V111.426H93.4809V112.91L93.2989 112.714C93.4856 112.238 93.7843 111.879 94.1949 111.636C94.6056 111.384 95.0816 111.258 95.6229 111.258C96.1829 111.258 96.6776 111.379 97.1069 111.622C97.5363 111.865 97.8723 112.201 98.1149 112.63C98.3576 113.059 98.4789 113.554 98.4789 114.114V119H96.9109V114.534C96.9109 114.151 96.8409 113.829 96.7009 113.568C96.5609 113.297 96.3603 113.092 96.0989 112.952C95.8469 112.803 95.5576 112.728 95.2309 112.728C94.9043 112.728 94.6103 112.803 94.3489 112.952C94.0969 113.092 93.9009 113.297 93.7609 113.568C93.6209 113.839 93.5509 114.161 93.5509 114.534V119H91.9689Z" fill="white"/>
<path d="M52.078 119V108.57H55.872C56.572 108.57 57.188 108.701 57.72 108.962C58.2613 109.214 58.6813 109.587 58.98 110.082C59.2787 110.567 59.428 111.151 59.428 111.832C59.428 112.504 59.274 113.083 58.966 113.568C58.6673 114.053 58.252 114.427 57.72 114.688C57.188 114.949 56.572 115.08 55.872 115.08H53.73V119H52.078ZM53.73 113.61H55.914C56.2873 113.61 56.614 113.535 56.894 113.386C57.174 113.237 57.3933 113.031 57.552 112.77C57.7107 112.499 57.79 112.182 57.79 111.818C57.79 111.454 57.7107 111.141 57.552 110.88C57.3933 110.609 57.174 110.404 56.894 110.264C56.614 110.115 56.2873 110.04 55.914 110.04H53.73V113.61ZM61.6468 122.094C61.4601 122.094 61.2734 122.075 61.0868 122.038C60.9094 122.01 60.7461 121.963 60.5968 121.898V120.54C60.7088 120.568 60.8441 120.591 61.0028 120.61C61.1614 120.638 61.3154 120.652 61.4648 120.652C61.9034 120.652 62.2254 120.554 62.4308 120.358C62.6454 120.171 62.8368 119.877 63.0048 119.476L63.5088 118.328L63.4808 119.658L60.2048 111.426H61.8988L64.3208 117.74H63.7468L66.1548 111.426H67.8628L64.5168 119.826C64.3394 120.274 64.1154 120.666 63.8448 121.002C63.5834 121.347 63.2708 121.613 62.9068 121.8C62.5521 121.996 62.1321 122.094 61.6468 122.094ZM72.2215 119.084C71.4282 119.084 70.8122 118.86 70.3735 118.412C69.9348 117.964 69.7155 117.334 69.7155 116.522V112.854H68.3855V111.426H68.5955C68.9502 111.426 69.2255 111.323 69.4215 111.118C69.6175 110.913 69.7155 110.633 69.7155 110.278V109.69H71.2975V111.426H73.0195V112.854H71.2975V116.452C71.2975 116.713 71.3395 116.937 71.4235 117.124C71.5075 117.301 71.6428 117.441 71.8295 117.544C72.0162 117.637 72.2588 117.684 72.5575 117.684C72.6322 117.684 72.7162 117.679 72.8095 117.67C72.9028 117.661 72.9915 117.651 73.0755 117.642V119C72.9448 119.019 72.8002 119.037 72.6415 119.056C72.4828 119.075 72.3428 119.084 72.2215 119.084ZM74.6193 119V108.402H76.2013V112.91L75.9493 112.714C76.136 112.238 76.4346 111.879 76.8453 111.636C77.256 111.384 77.732 111.258 78.2733 111.258C78.8333 111.258 79.328 111.379 79.7573 111.622C80.1866 111.865 80.5226 112.201 80.7653 112.63C81.008 113.059 81.1293 113.549 81.1293 114.1V119H79.5613V114.534C79.5613 114.151 79.4866 113.829 79.3373 113.568C79.1973 113.297 79.0013 113.092 78.7493 112.952C78.4973 112.803 78.208 112.728 77.8813 112.728C77.564 112.728 77.2746 112.803 77.0133 112.952C76.7613 113.092 76.5606 113.297 76.4113 113.568C76.2713 113.839 76.2013 114.161 76.2013 114.534V119H74.6193ZM86.4764 119.168C85.7484 119.168 85.0811 118.995 84.4744 118.65C83.8771 118.305 83.4011 117.833 83.0464 117.236C82.6918 116.639 82.5144 115.962 82.5144 115.206C82.5144 114.441 82.6918 113.764 83.0464 113.176C83.4011 112.579 83.8771 112.112 84.4744 111.776C85.0718 111.431 85.7391 111.258 86.4764 111.258C87.2231 111.258 87.8904 111.431 88.4784 111.776C89.0758 112.112 89.5471 112.579 89.8924 113.176C90.2471 113.764 90.4244 114.441 90.4244 115.206C90.4244 115.971 90.2471 116.653 89.8924 117.25C89.5378 117.847 89.0618 118.319 88.4644 118.664C87.8671 119 87.2044 119.168 86.4764 119.168ZM86.4764 117.698C86.9244 117.698 87.3211 117.591 87.6664 117.376C88.0118 117.161 88.2824 116.867 88.4784 116.494C88.6838 116.111 88.7864 115.682 88.7864 115.206C88.7864 114.73 88.6838 114.305 88.4784 113.932C88.2824 113.559 88.0118 113.265 87.6664 113.05C87.3211 112.835 86.9244 112.728 86.4764 112.728C86.0378 112.728 85.6411 112.835 85.2864 113.05C84.9411 113.265 84.6658 113.559 84.4604 113.932C84.2644 114.305 84.1664 114.73 84.1664 115.206C84.1664 115.682 84.2644 116.111 84.4604 116.494C84.6658 116.867 84.9411 117.161 85.2864 117.376C85.6411 117.591 86.0378 117.698 86.4764 117.698ZM91.9689 119V111.426H93.4809V112.91L93.2989 112.714C93.4856 112.238 93.7843 111.879 94.1949 111.636C94.6056 111.384 95.0816 111.258 95.6229 111.258C96.1829 111.258 96.6776 111.379 97.1069 111.622C97.5363 111.865 97.8723 112.201 98.1149 112.63C98.3576 113.059 98.4789 113.554 98.4789 114.114V119H96.9109V114.534C96.9109 114.151 96.8409 113.829 96.7009 113.568C96.5609 113.297 96.3603 113.092 96.0989 112.952C95.8469 112.803 95.5576 112.728 95.2309 112.728C94.9043 112.728 94.6103 112.803 94.3489 112.952C94.0969 113.092 93.9009 113.297 93.7609 113.568C93.6209 113.839 93.5509 114.161 93.5509 114.534V119H91.9689Z" fill="white"/>
<defs>
<clipPath id="clip0_244_365">
<rect width="60" height="60" fill="white" transform="translate(45 35)"/>
</clipPath>
</defs>
</svg>
