<svg width="80" height="80" viewBox="0 0 80 80" fill="none" xmlns="http://www.w3.org/2000/svg">
<path d="M47.4333 40.0132C47.4333 41.9894 46.6485 43.8847 45.2515 45.2823C43.8544 46.68 41.9595 47.4657 39.9833 47.4665C38.0066 47.4665 36.1108 46.6813 34.713 45.2835C33.3153 43.8857 32.53 41.99 32.53 40.0132C32.53 38.037 33.3148 36.1418 34.7119 34.7441C36.1089 33.3464 38.0038 32.5608 39.98 32.5599C41.9567 32.5599 43.8525 33.3451 45.2503 34.7429C46.6481 36.1407 47.4333 38.0365 47.4333 40.0132ZM56.26 4.37988C51.7733 4.37988 45.9033 7.57988 39.9667 13.1199C34.0333 7.60988 28.16 4.44655 23.6767 4.44655C22.31 4.44655 21.0667 4.75655 19.99 5.37322C15.4067 8.01655 14.38 16.2532 16.7467 26.5899C6.6 29.7232 0 34.7332 0 40.0132C0 45.3132 6.63333 50.3365 16.81 53.4465C14.4633 63.8232 15.51 72.0732 20.1033 74.7132C21.17 75.3365 22.4033 75.6299 23.7767 75.6299C28.26 75.6299 34.1333 72.4299 40.07 66.8832C46.0033 72.3966 51.8767 75.5599 56.36 75.5599C57.7267 75.5599 58.97 75.2599 60.0467 74.6432C64.6267 72.0032 65.6567 63.7665 63.29 53.4265C73.4 50.3199 80 45.2999 80 40.0132C80 34.7132 73.3667 29.6899 63.19 26.5732C65.5367 16.2065 64.49 7.94988 59.8967 5.30655C58.8367 4.69322 57.6067 4.38322 56.26 4.37988ZM56.2433 8.01322V8.03322C56.9933 8.03322 57.5967 8.17988 58.1033 8.45655C60.3233 9.72988 61.2867 14.5732 60.5367 20.8032C60.3567 22.3365 60.0633 23.9532 59.7033 25.6032C56.5033 24.8165 53.0167 24.2132 49.3467 23.8232C47.1467 20.8065 44.8633 18.0665 42.5633 15.6665C47.87 10.7332 52.8533 8.02655 56.2467 8.01655L56.2433 8.01322ZM23.6767 8.07988C27.05 8.07988 32.0567 10.7732 37.3767 15.6799C35.09 18.0799 32.81 20.8032 30.6433 23.8199C26.9533 24.2099 23.4633 24.8132 20.2667 25.6132C19.8933 23.9799 19.6167 22.3999 19.42 20.8799C18.6533 14.6532 19.6 9.81322 21.8 8.52322C22.4333 8.22322 23.1333 8.09655 23.6767 8.07988ZM39.95 18.2465C41.4667 19.8065 42.9833 21.5532 44.4833 23.4599C43.0167 23.3932 41.5167 23.3465 40 23.3465C38.4667 23.3465 36.95 23.3799 35.4667 23.4599C36.9333 21.5532 38.45 19.8099 39.95 18.2465ZM40 26.9999C42.4667 26.9999 44.9233 27.1132 47.34 27.3099C48.6933 29.2499 50.0133 31.3199 51.2833 33.5099C52.5233 35.6432 53.65 37.8099 54.6767 39.9965C53.65 42.1799 52.5233 44.3632 51.3 46.4965C50.0333 48.6965 48.7233 50.7899 47.3667 52.7299C44.94 52.9399 42.48 53.0565 40 53.0565C37.5333 53.0565 35.0767 52.9399 32.66 52.7465C31.3067 50.8065 29.9867 48.7332 28.7167 46.5465C27.4767 44.4132 26.35 42.2465 25.3233 40.0599C26.3333 37.8699 27.4767 35.6832 28.7 33.5465C29.9667 31.3465 31.2767 29.2599 32.6333 27.3199C35.06 27.1065 37.52 26.9932 40 26.9932V26.9999ZM27.8833 27.8465C27.0833 29.1032 26.2833 30.3899 25.5367 31.7132C24.7867 33.0132 24.0867 34.3199 23.42 35.6265C22.5367 33.4399 21.7867 31.2599 21.1667 29.1365C23.3 28.6365 25.55 28.1899 27.8833 27.8465ZM52.0833 27.8465C54.4 28.1899 56.6333 28.6132 58.77 29.1365C58.17 31.2432 57.42 33.4099 56.57 35.5799C55.9033 34.2799 55.2033 32.9699 54.4367 31.6665C53.6867 30.3599 52.8867 29.0865 52.0867 27.8465H52.0833ZM62.2933 30.0965C63.9067 30.5965 65.44 31.1532 66.8767 31.7565C72.65 34.2232 76.3833 37.4499 76.3833 40.0099C76.3667 42.5699 72.6333 45.8099 66.86 48.2599C65.46 48.8599 63.9267 49.3999 62.3433 49.9032C61.41 46.7099 60.19 43.3832 58.6767 39.9699C60.1767 36.5799 61.3767 33.2699 62.2933 30.0899V30.0965ZM17.6433 30.1099C18.57 33.3099 19.7933 36.6332 21.31 40.0432C19.81 43.4332 18.6033 46.7432 17.69 49.9232C16.0767 49.4232 14.5433 48.8632 13.1233 48.2565C7.35 45.7999 3.61667 42.5699 3.61667 40.0099C3.61667 37.4499 7.35 34.2032 13.1233 31.7565C14.5233 31.1565 16.0567 30.6165 17.6433 30.1099ZM56.57 44.3765C57.4533 46.5665 58.2033 48.7499 58.8233 50.8699C56.69 51.3932 54.4367 51.8365 52.1033 52.1699C52.9033 50.9199 53.7033 49.6299 54.4533 48.3099C55.2033 47.0099 55.9 45.6832 56.57 44.3765ZM23.42 44.4432C24.0867 45.7499 24.7867 47.0532 25.5533 48.3599C26.32 49.6599 27.1033 50.9332 27.9033 52.1699C25.5867 51.8299 23.3533 51.4032 21.2167 50.8832C21.8167 48.7832 22.57 46.6099 23.4167 44.4399L23.42 44.4432ZM59.7333 54.3999C60.1067 56.0432 60.4 57.6266 60.58 59.1432C61.3467 65.3699 60.4 70.2099 58.2 71.5032C57.71 71.8032 57.0733 71.9299 56.3233 71.9299C52.95 71.9299 47.9433 69.2399 42.6233 64.3299C44.91 61.9299 47.19 59.2099 49.3567 56.1965C53.0467 55.8032 56.5367 55.1999 59.7333 54.3999ZM20.3 54.4332C23.5 55.2132 26.9867 55.8165 30.6567 56.2065C32.8567 59.2232 35.14 61.9632 37.44 64.3599C32.1233 69.3032 27.1333 72.0099 23.74 72.0099C23.0067 71.9932 22.3867 71.8432 21.8967 71.5699C19.6767 70.3032 18.7133 65.4565 19.4633 59.2265C19.6433 57.6932 19.94 56.0799 20.3 54.4332ZM35.5 56.5665C36.9667 56.6332 38.4667 56.6799 39.9833 56.6799C41.5167 56.6799 43.0333 56.6465 44.5167 56.5665C43.05 58.4732 41.5333 60.2166 40.0333 61.7832C38.5167 60.2166 37 58.4732 35.5 56.5665Z" fill="#F9EEE7"/>
</svg>
