<svg width="150" height="150" viewBox="0 0 150 150" fill="none" xmlns="http://www.w3.org/2000/svg">
<path d="M75 0L139.952 37.5V112.5L75 150L10.0481 112.5V37.5L75 0Z" fill="#001C55"/>
<path d="M85.5027 56.1292C79.9319 56.2313 73.8914 58.7834 69.0819 63.5959C60.536 72.1417 63.0064 88.4751 65.9085 91.3771C68.2564 93.7221 85.1439 96.7526 93.6927 88.2038C94.2881 87.6043 94.8564 86.9785 95.396 86.3284C95.5214 85.4767 95.9939 84.4034 96.8223 83.1026C96.3296 83.3529 95.8013 83.5261 95.256 83.6159C94.836 84.3888 94.1769 85.2201 93.2844 86.1096C92.2519 87.0867 91.5139 87.7255 91.0677 88.023C90.6962 88.2938 90.2525 88.4482 89.7931 88.4663C88.7723 88.4663 88.2939 87.568 88.3523 85.7713C87.7106 86.693 87.1127 87.3726 86.5673 87.813C86.0986 88.2205 85.5023 88.4516 84.8814 88.4663C84.3156 88.4663 83.8314 88.2038 83.4348 87.6701C83.1184 87.2363 82.924 86.7257 82.8719 86.1913C82.2343 86.8383 81.5237 87.4089 80.7544 87.8917C80.101 88.2767 79.3835 88.4663 78.596 88.4663C77.721 88.4663 77.0123 88.1863 76.4756 87.6263C76.076 87.205 75.8145 86.6718 75.726 86.098V86.1096C74.851 86.9146 74.081 87.5096 73.4219 87.8917C72.8531 88.248 72.1998 88.4463 71.5289 88.4663C71.2076 88.4747 70.8888 88.4063 70.5992 88.2668C70.3095 88.1273 70.0573 87.9207 69.8635 87.6642C69.4406 87.1305 69.2277 86.4101 69.2277 85.5088C69.2277 84.1555 69.5223 82.5338 70.1085 80.638C70.6948 78.7421 71.4064 76.9921 72.2464 75.3967L74.7023 74.4867C74.7584 74.4656 74.8174 74.4528 74.8773 74.4488C75.061 74.4488 75.2156 74.5859 75.3352 74.8571C75.4519 75.1342 75.5131 75.5017 75.5131 75.9655C75.5131 77.2809 75.2098 78.5555 74.6031 79.7863C73.9994 81.0171 73.0514 82.3326 71.7623 83.7296C71.7098 84.4005 71.6835 84.8613 71.6835 85.1121C71.6835 85.6751 71.7885 86.1184 71.9927 86.448C72.1998 86.7776 72.4739 86.9409 72.8152 86.9409C73.2154 86.9249 73.6025 86.7932 73.9294 86.5617C74.3144 86.3167 74.9006 85.8034 75.6852 85.0363C75.7669 83.8171 76.2306 82.7088 77.091 81.7055C78.036 80.5971 79.0889 80.0459 80.241 80.0459C80.8419 80.0459 81.3202 80.2034 81.6819 80.5126C81.8582 80.6612 81.9986 80.8478 82.0926 81.0585C82.1865 81.2691 82.2316 81.4983 82.2244 81.7288C82.2244 83.0646 80.8069 84.1467 77.9689 84.978C78.2256 86.2321 78.9023 86.8621 79.9902 86.8621C80.4191 86.8613 80.8397 86.7433 81.2064 86.5209C81.5827 86.2992 82.1427 85.8121 82.8835 85.0713C82.9769 84.3363 83.2277 83.6276 83.6389 82.948C84.1698 82.073 84.8523 81.3613 85.6835 80.8188C86.5148 80.2792 87.2498 80.008 87.8885 80.008C88.6935 80.008 89.2594 80.3784 89.5802 81.1192L91.5548 80.0284H92.0973L91.2456 82.8605C90.8081 84.2838 90.5864 85.2609 90.5864 85.7888C90.5864 86.343 90.7819 86.6201 91.1756 86.6201C91.4264 86.6201 91.7035 86.4888 92.0069 86.2205C92.3102 85.9521 92.736 85.5438 93.2814 84.9955V84.9984C93.6985 84.5463 94.0806 84.0651 94.4248 83.5576C93.8706 83.3126 93.5935 82.9451 93.5935 82.4638C93.5935 81.968 93.7627 81.4371 94.101 80.8742C94.4394 80.3084 94.9031 80.0284 95.4981 80.0284C95.9998 80.0284 96.2506 80.2851 96.2506 80.8013C96.2506 81.2067 96.1048 81.7871 95.816 82.5396C96.8864 82.423 97.8198 81.6063 98.6189 80.0838L99.2839 80.0546C102.373 72.9438 101.699 65.2526 96.8631 60.4196C93.891 57.4446 89.8398 56.0446 85.5027 56.1292ZM99.2839 80.0546C98.2921 82.3197 96.983 84.4321 95.396 86.3284C95.3747 86.4703 95.363 86.6136 95.361 86.7571C95.361 87.2471 95.4981 87.6584 95.7694 87.9909C96.0377 88.3205 96.3702 88.4867 96.761 88.4867C97.6244 88.4867 98.8435 87.7167 100.419 86.1913C100.416 86.308 100.41 86.4246 100.41 86.5442C100.41 86.9701 100.445 87.6176 100.515 88.4867L102.653 87.9851C102.653 87.4017 102.661 86.9438 102.682 86.6026C102.711 86.1446 102.778 85.6401 102.874 85.0946C102.933 84.7738 103.079 84.4646 103.318 84.1759L103.86 83.5459C104.207 83.1411 104.575 82.7546 104.963 82.388C105.144 82.2276 105.301 82.0992 105.435 82.0088C105.541 81.9341 105.665 81.8879 105.794 81.8746C105.954 81.8746 106.036 81.9767 106.036 82.1838C106.036 82.388 105.884 82.8721 105.581 83.6334C105.015 85.0509 104.729 86.1067 104.729 86.7951C104.729 87.3055 104.864 87.7109 105.126 88.0142C105.255 88.1631 105.416 88.281 105.597 88.3593C105.777 88.4376 105.973 88.4741 106.17 88.4663C107.235 88.4663 108.512 87.6817 110 86.1096V84.9984C108.947 86.2409 108.183 86.8651 107.713 86.8651C107.395 86.8651 107.238 86.6696 107.238 86.2817C107.238 85.9901 107.427 85.3601 107.806 84.3859C108.361 82.9684 108.638 81.9476 108.638 81.3292C108.65 80.989 108.533 80.6568 108.311 80.3988C108.21 80.2798 108.084 80.1848 107.942 80.1208C107.799 80.0567 107.645 80.0251 107.489 80.0284C107.007 80.0284 106.456 80.253 105.835 80.708C105.214 81.163 104.376 81.9796 103.318 83.158C103.472 82.3938 103.799 81.3438 104.295 80.008L101.935 80.463C101.456 81.4711 101.067 82.5193 100.771 83.5955C100.655 84.0505 100.567 84.5171 100.503 84.9955C100.047 85.454 99.5696 85.892 99.0739 86.308C98.8828 86.4566 98.6482 86.5386 98.406 86.5413C98.3084 86.5452 98.2113 86.5255 98.123 86.4839C98.0346 86.4423 97.9576 86.3799 97.8985 86.3021C97.7652 86.1135 97.6995 85.8853 97.7119 85.6546C97.7119 85.363 97.7673 85.0305 97.8752 84.6542C97.986 84.2751 98.2252 83.5663 98.6014 82.5221L99.4998 80.0459L99.2839 80.0546ZM49.0881 71.5176C46.571 71.4709 44.2173 72.2846 42.4935 74.0084C38.5502 77.9517 39.3727 85.1705 44.3339 90.1288C49.2923 95.0901 58.7714 93.658 60.4544 91.9721C61.8164 90.613 63.5752 80.8101 58.6139 75.8517C55.8227 73.0605 52.3227 71.5788 49.0881 71.5176ZM84.9194 72.5617H85.4035V73.1742H84.9164L84.9194 72.5617ZM86.1648 72.5617H86.6489V75.0846L87.9906 73.7576H88.5594L87.4977 74.8134L88.746 76.8084H88.1685L87.1273 75.1313L86.6489 75.6155V76.8113H86.1648V72.5617ZM89.1281 72.5617H89.6123V73.1742H89.1281V72.5617ZM90.531 72.9176H91.0152V73.7576H91.5169V74.1513H91.0152V76.2426C91.0152 76.3505 91.0327 76.4234 91.0735 76.4613C91.1085 76.4992 91.1814 76.5196 91.2894 76.5196C91.3663 76.523 91.4433 76.5132 91.5169 76.4905V76.9017C91.386 76.9266 91.2533 76.9403 91.1202 76.9426C90.9642 76.953 90.8095 76.9086 90.6827 76.8171C90.6314 76.7731 90.5911 76.7178 90.5647 76.6556C90.5384 76.5933 90.5269 76.5258 90.531 76.4584V74.1542H90.1198V73.7576H90.531V72.9176ZM80.1419 73.6701C80.3781 73.6701 80.5794 73.7051 80.7456 73.7809C80.9119 73.8509 81.0373 73.9588 81.1248 74.1017C81.2123 74.2446 81.256 74.4109 81.256 74.6063H80.7427C80.7252 74.2826 80.5239 74.1192 80.136 74.1192C79.9682 74.1098 79.8014 74.1515 79.6577 74.2388C79.6017 74.2759 79.5561 74.3267 79.5255 74.3865C79.4948 74.4463 79.4801 74.5129 79.4827 74.5801C79.4827 74.6821 79.5264 74.7696 79.6139 74.8367C79.7014 74.9067 79.8473 74.9651 80.0514 75.0117L80.5181 75.1255C80.7593 75.1674 80.9849 75.2731 81.1714 75.4317C81.3085 75.5659 81.3756 75.7467 81.3756 75.9742C81.3793 76.156 81.3263 76.3344 81.2239 76.4846C81.1132 76.6391 80.9588 76.7569 80.7806 76.823C80.571 76.906 80.3469 76.9466 80.1214 76.9426C79.7248 76.9426 79.4214 76.8551 79.2202 76.6859C79.0189 76.5138 78.9139 76.2513 78.9023 75.9013H79.4156C79.4273 76.0092 79.4448 76.0909 79.4652 76.1463C79.4878 76.2047 79.5214 76.2582 79.5644 76.3038C79.6927 76.4292 79.891 76.4934 80.1594 76.4934C80.3407 76.5025 80.5206 76.4567 80.6756 76.3621C80.7353 76.326 80.7847 76.2751 80.8189 76.2142C80.8531 76.1534 80.8711 76.0848 80.871 76.0151C80.8728 75.9659 80.8637 75.9169 80.8446 75.8716C80.8255 75.8262 80.7967 75.7856 80.7602 75.7526C80.6542 75.671 80.5302 75.6159 80.3985 75.5921L79.9435 75.4813C79.7859 75.4431 79.6309 75.3944 79.4798 75.3355C79.3755 75.292 79.279 75.2319 79.1939 75.1576C79.1195 75.0911 79.0616 75.0082 79.0248 74.9155C78.9913 74.8139 78.9755 74.7074 78.9781 74.6005C78.9781 74.3205 79.0831 74.093 79.296 73.9238C79.5402 73.7441 79.8391 73.6544 80.1419 73.6701ZM83.1606 73.6701C83.364 73.6667 83.5654 73.7095 83.7498 73.7955C83.8786 73.8551 83.9936 73.9409 84.0875 74.0473C84.1814 74.1537 84.2521 74.2786 84.2952 74.4138C84.3311 74.5334 84.3536 74.6567 84.3623 74.7813H83.8723C83.8603 74.5953 83.7791 74.4205 83.6448 74.2913C83.5082 74.1713 83.3306 74.1086 83.1489 74.1163C82.9861 74.1126 82.8268 74.164 82.6969 74.2621C82.5608 74.3707 82.4594 74.5167 82.4052 74.6821C82.3348 74.8926 82.3013 75.1136 82.306 75.3355C82.3005 75.5481 82.3352 75.7599 82.4081 75.9596C82.4665 76.1164 82.5688 76.2531 82.7027 76.3534C82.8363 76.4481 82.9969 76.4972 83.1606 76.4934C83.5748 76.4934 83.8227 76.2484 83.9073 75.7584H84.3944C84.3798 75.9837 84.315 76.203 84.2048 76.4001C84.1052 76.5729 83.9572 76.7129 83.7789 76.8026C83.5833 76.8993 83.3672 76.9474 83.1489 76.9426C82.8962 76.9492 82.647 76.8823 82.4314 76.7501C82.2241 76.6127 82.061 76.4182 81.9619 76.1901C81.8459 75.9204 81.7892 75.6289 81.7956 75.3355C81.7956 75.0876 81.8248 74.8601 81.889 74.6559C81.9453 74.4623 82.0394 74.2819 82.166 74.1251C82.2825 73.978 82.4326 73.861 82.6035 73.7838C82.7785 73.7049 82.9687 73.668 83.1606 73.6701ZM84.9194 73.7576H85.4035V76.8084H84.9164L84.9194 73.7576ZM89.1281 73.7576H89.6123V76.8084H89.1281V73.7576ZM74.3989 75.5601C74.1656 75.5601 73.8156 76.1551 73.3606 77.3421C72.9085 78.5292 72.4623 80.1917 72.0219 82.3296C72.8414 81.4196 73.5064 80.3988 74.0139 79.2671C74.5244 78.1384 74.7781 77.1671 74.7781 76.3534C74.7862 76.1564 74.7504 75.9602 74.6731 75.7788C74.6002 75.633 74.5098 75.5601 74.4019 75.5601H74.3989ZM87.9964 80.8013C87.3519 80.8013 86.7394 81.3496 86.1619 82.4434C85.5873 83.5401 85.2985 84.5492 85.2985 85.4709C85.2985 85.8209 85.3831 86.1009 85.5552 86.3167C85.6302 86.4184 85.7282 86.5008 85.8413 86.5571C85.9544 86.6134 86.0793 86.642 86.2056 86.6405C86.8502 86.6405 87.4598 86.0921 88.0285 84.9926C88.6002 83.893 88.886 82.878 88.886 81.9505C88.9034 81.6493 88.818 81.3511 88.6439 81.1046C88.5678 81.0064 88.4693 80.9277 88.3568 80.8749C88.2442 80.8222 88.1207 80.797 87.9964 80.8013ZM79.6898 80.8217C79.2639 80.8217 78.8585 81.1426 78.4735 81.793C78.0856 82.4405 77.8902 83.2805 77.8902 84.3188C79.541 83.8551 80.3664 83.0005 80.3664 81.7492C80.3664 81.1309 80.1419 80.8217 79.6898 80.8217Z" fill="#F9EEE7"/>
<path d="M44.732 116.168C44.0787 116.168 43.472 116.047 42.912 115.804C42.352 115.552 41.876 115.211 41.484 114.782C41.092 114.353 40.8027 113.858 40.616 113.298L42.016 112.71C42.268 113.354 42.6367 113.849 43.122 114.194C43.6073 114.539 44.1673 114.712 44.802 114.712C45.1753 114.712 45.502 114.656 45.782 114.544C46.062 114.423 46.2767 114.255 46.426 114.04C46.5847 113.825 46.664 113.578 46.664 113.298C46.664 112.915 46.5567 112.612 46.342 112.388C46.1273 112.164 45.81 111.987 45.39 111.856L43.43 111.24C42.646 110.997 42.0487 110.629 41.638 110.134C41.2273 109.63 41.022 109.042 41.022 108.37C41.022 107.782 41.1667 107.269 41.456 106.83C41.7453 106.382 42.142 106.032 42.646 105.78C43.1593 105.528 43.7427 105.402 44.396 105.402C45.0213 105.402 45.5907 105.514 46.104 105.738C46.6173 105.953 47.056 106.251 47.42 106.634C47.7933 107.017 48.064 107.46 48.232 107.964L46.86 108.566C46.6547 108.015 46.3327 107.591 45.894 107.292C45.4647 106.993 44.9653 106.844 44.396 106.844C44.0507 106.844 43.7473 106.905 43.486 107.026C43.2247 107.138 43.0193 107.306 42.87 107.53C42.73 107.745 42.66 107.997 42.66 108.286C42.66 108.622 42.7673 108.921 42.982 109.182C43.1967 109.443 43.5233 109.639 43.962 109.77L45.782 110.344C46.6127 110.596 47.238 110.96 47.658 111.436C48.078 111.903 48.288 112.486 48.288 113.186C48.288 113.765 48.134 114.278 47.826 114.726C47.5273 115.174 47.112 115.529 46.58 115.79C46.048 116.042 45.432 116.168 44.732 116.168ZM53.5865 116.168C52.8305 116.168 52.1585 115.995 51.5705 115.65C50.9918 115.295 50.5298 114.819 50.1845 114.222C49.8485 113.625 49.6805 112.948 49.6805 112.192C49.6805 111.445 49.8485 110.773 50.1845 110.176C50.5205 109.579 50.9825 109.112 51.5705 108.776C52.1585 108.431 52.8305 108.258 53.5865 108.258C54.0998 108.258 54.5805 108.351 55.0285 108.538C55.4765 108.715 55.8638 108.963 56.1905 109.28C56.5265 109.597 56.7738 109.966 56.9325 110.386L55.5465 111.03C55.3878 110.638 55.1311 110.325 54.7765 110.092C54.4311 109.849 54.0345 109.728 53.5865 109.728C53.1571 109.728 52.7698 109.835 52.4245 110.05C52.0885 110.255 51.8225 110.549 51.6265 110.932C51.4305 111.305 51.3325 111.73 51.3325 112.206C51.3325 112.682 51.4305 113.111 51.6265 113.494C51.8225 113.867 52.0885 114.161 52.4245 114.376C52.7698 114.591 53.1571 114.698 53.5865 114.698C54.0438 114.698 54.4405 114.581 54.7765 114.348C55.1218 114.105 55.3785 113.783 55.5465 113.382L56.9325 114.04C56.7831 114.441 56.5405 114.805 56.2045 115.132C55.8778 115.449 55.4905 115.701 55.0425 115.888C54.5945 116.075 54.1091 116.168 53.5865 116.168ZM58.4787 116V108.426H60.0607V116H58.4787ZM58.4787 107.39V105.57H60.0607V107.39H58.4787ZM61.9103 116V105.402H63.4923V112.5L62.8763 112.346L66.6703 108.426H68.6443L65.7883 111.464L68.7703 116H66.9503L64.2903 111.982L65.2283 111.856L62.9883 114.236L63.4923 113.186V116H61.9103ZM69.8537 116V108.426H71.4357V116H69.8537ZM69.8537 107.39V105.57H71.4357V107.39H69.8537ZM76.5613 116.084C75.768 116.084 75.152 115.86 74.7133 115.412C74.2747 114.964 74.0553 114.334 74.0553 113.522V109.854H72.7253V108.426H72.9353C73.29 108.426 73.5653 108.323 73.7613 108.118C73.9573 107.913 74.0553 107.633 74.0553 107.278V106.69H75.6373V108.426H77.3593V109.854H75.6373V113.452C75.6373 113.713 75.6793 113.937 75.7633 114.124C75.8473 114.301 75.9827 114.441 76.1693 114.544C76.356 114.637 76.5987 114.684 76.8973 114.684C76.972 114.684 77.056 114.679 77.1493 114.67C77.2427 114.661 77.3313 114.651 77.4153 114.642V116C77.2847 116.019 77.14 116.037 76.9813 116.056C76.8227 116.075 76.6827 116.084 76.5613 116.084ZM81.5604 116V105.57H83.2124V114.53H87.7204V116H81.5604ZM92.5093 116.168C91.7533 116.168 91.0813 115.995 90.4933 115.65C89.9146 115.295 89.462 114.819 89.1353 114.222C88.8086 113.615 88.6453 112.939 88.6453 112.192C88.6453 111.427 88.8086 110.75 89.1353 110.162C89.4713 109.574 89.9193 109.112 90.4793 108.776C91.0393 108.431 91.674 108.258 92.3833 108.258C92.9526 108.258 93.4613 108.356 93.9093 108.552C94.3573 108.748 94.7353 109.019 95.0433 109.364C95.3513 109.7 95.5846 110.087 95.7433 110.526C95.9113 110.965 95.9953 111.431 95.9953 111.926C95.9953 112.047 95.9906 112.173 95.9813 112.304C95.972 112.435 95.9533 112.556 95.9253 112.668H89.8913V111.408H95.0293L94.2733 111.982C94.3666 111.525 94.334 111.119 94.1753 110.764C94.026 110.4 93.7926 110.115 93.4753 109.91C93.1673 109.695 92.8033 109.588 92.3833 109.588C91.9633 109.588 91.59 109.695 91.2633 109.91C90.9366 110.115 90.6846 110.414 90.5073 110.806C90.33 111.189 90.26 111.655 90.2973 112.206C90.2506 112.719 90.3206 113.167 90.5073 113.55C90.7033 113.933 90.974 114.231 91.3193 114.446C91.674 114.661 92.0753 114.768 92.5233 114.768C92.9806 114.768 93.368 114.665 93.6853 114.46C94.012 114.255 94.2686 113.989 94.4553 113.662L95.7433 114.292C95.594 114.647 95.3606 114.969 95.0433 115.258C94.7353 115.538 94.362 115.762 93.9233 115.93C93.494 116.089 93.0226 116.168 92.5093 116.168ZM99.7389 116.168C99.2255 116.168 98.7729 116.079 98.3809 115.902C97.9982 115.715 97.6995 115.463 97.4849 115.146C97.2702 114.819 97.1629 114.437 97.1629 113.998C97.1629 113.587 97.2515 113.219 97.4289 112.892C97.6155 112.565 97.9002 112.29 98.2829 112.066C98.6655 111.842 99.1462 111.683 99.7249 111.59L102.357 111.156V112.402L100.033 112.808C99.6129 112.883 99.3049 113.018 99.1089 113.214C98.9129 113.401 98.8149 113.643 98.8149 113.942C98.8149 114.231 98.9222 114.469 99.1369 114.656C99.3609 114.833 99.6455 114.922 99.9909 114.922C100.42 114.922 100.794 114.829 101.111 114.642C101.438 114.455 101.69 114.208 101.867 113.9C102.044 113.583 102.133 113.233 102.133 112.85V110.904C102.133 110.531 101.993 110.227 101.713 109.994C101.442 109.751 101.078 109.63 100.621 109.63C100.201 109.63 99.8322 109.742 99.5149 109.966C99.2069 110.181 98.9782 110.461 98.8289 110.806L97.5129 110.148C97.6529 109.775 97.8815 109.448 98.1989 109.168C98.5162 108.879 98.8849 108.655 99.3049 108.496C99.7342 108.337 100.187 108.258 100.663 108.258C101.26 108.258 101.788 108.37 102.245 108.594C102.712 108.818 103.071 109.131 103.323 109.532C103.584 109.924 103.715 110.381 103.715 110.904V116H102.203V114.628L102.525 114.67C102.348 114.978 102.119 115.244 101.839 115.468C101.568 115.692 101.256 115.865 100.901 115.986C100.556 116.107 100.168 116.168 99.7389 116.168ZM105.565 116V108.426H107.077V109.952L106.937 109.728C107.105 109.233 107.375 108.879 107.749 108.664C108.122 108.44 108.57 108.328 109.093 108.328H109.555V109.77H108.897C108.374 109.77 107.949 109.933 107.623 110.26C107.305 110.577 107.147 111.035 107.147 111.632V116H105.565ZM110.637 116V108.426H112.149V109.91L111.967 109.714C112.154 109.238 112.452 108.879 112.863 108.636C113.274 108.384 113.75 108.258 114.291 108.258C114.851 108.258 115.346 108.379 115.775 108.622C116.204 108.865 116.54 109.201 116.783 109.63C117.026 110.059 117.147 110.554 117.147 111.114V116H115.579V111.534C115.579 111.151 115.509 110.829 115.369 110.568C115.229 110.297 115.028 110.092 114.767 109.952C114.515 109.803 114.226 109.728 113.899 109.728C113.572 109.728 113.278 109.803 113.017 109.952C112.765 110.092 112.569 110.297 112.429 110.568C112.289 110.839 112.219 111.161 112.219 111.534V116H110.637Z" fill="white"/>
</svg>
