<svg width="80" height="80" viewBox="0 0 80 80" fill="none" xmlns="http://www.w3.org/2000/svg">
<path d="M52.0031 18.4333C45.6364 18.55 38.7331 21.4667 33.2364 26.9667C23.4697 36.7333 26.2931 55.4 29.6097 58.7167C32.2931 61.3967 51.5931 64.86 61.3631 55.09C62.0435 54.4049 62.693 53.6897 63.3097 52.9467C63.4531 51.9733 63.9931 50.7467 64.9397 49.26C64.3767 49.5462 63.7729 49.744 63.1497 49.8467C62.6697 50.73 61.9164 51.68 60.8964 52.6967C59.7164 53.8133 58.8731 54.5433 58.3631 54.8833C57.9385 55.1929 57.4314 55.3693 56.9064 55.39C55.7397 55.39 55.1931 54.3633 55.2597 52.31C54.5264 53.3633 53.8431 54.14 53.2197 54.6433C52.6841 55.109 52.0027 55.3731 51.2931 55.39C50.6464 55.39 50.0931 55.09 49.6397 54.48C49.2781 53.9843 49.056 53.4007 48.9964 52.79C48.2678 53.5294 47.4557 54.1816 46.5764 54.7333C45.8297 55.1733 45.0097 55.39 44.1097 55.39C43.1097 55.39 42.2997 55.07 41.6864 54.43C41.2297 53.9485 40.9309 53.3392 40.8297 52.6833V52.6967C39.8297 53.6167 38.9497 54.2967 38.1964 54.7333C37.5464 55.1405 36.7997 55.3672 36.0331 55.39C35.6658 55.3996 35.3015 55.3214 34.9705 55.162C34.6394 55.0026 34.3512 54.7665 34.1297 54.4733C33.6464 53.8633 33.4031 53.04 33.4031 52.01C33.4031 50.4633 33.7397 48.61 34.4097 46.4433C35.0797 44.2767 35.8931 42.2767 36.8531 40.4533L39.6597 39.4133C39.7239 39.3892 39.7913 39.3746 39.8597 39.37C40.0697 39.37 40.2464 39.5267 40.3831 39.8367C40.5164 40.1533 40.5864 40.5733 40.5864 41.1033C40.5864 42.6067 40.2397 44.0633 39.5464 45.47C38.8564 46.8767 37.7731 48.38 36.2997 49.9767C36.2397 50.7433 36.2097 51.27 36.2097 51.5567C36.2097 52.2 36.3297 52.7067 36.5631 53.0833C36.7997 53.46 37.1131 53.6467 37.5031 53.6467C37.9605 53.6284 38.4028 53.4779 38.7764 53.2133C39.2164 52.9333 39.8864 52.3467 40.7831 51.47C40.8764 50.0767 41.4064 48.81 42.3897 47.6633C43.4697 46.3967 44.6731 45.7667 45.9897 45.7667C46.6764 45.7667 47.2231 45.9467 47.6364 46.3C47.8379 46.4699 47.9984 46.6832 48.1058 46.9239C48.2131 47.1646 48.2646 47.4265 48.2564 47.69C48.2564 49.2167 46.6364 50.4533 43.3931 51.4033C43.6864 52.8367 44.4597 53.5567 45.7031 53.5567C46.1933 53.5557 46.6739 53.4209 47.0931 53.1667C47.5231 52.9133 48.1631 52.3567 49.0097 51.51C49.1164 50.67 49.4031 49.86 49.8731 49.0833C50.4797 48.0833 51.2597 47.27 52.2097 46.65C53.1597 46.0333 53.9997 45.7233 54.7297 45.7233C55.6497 45.7233 56.2964 46.1467 56.6631 46.9933L58.9197 45.7467H59.5397L58.5664 48.9833C58.0664 50.61 57.8131 51.7267 57.8131 52.33C57.8131 52.9633 58.0364 53.28 58.4864 53.28C58.7731 53.28 59.0897 53.13 59.4364 52.8233C59.7831 52.5167 60.2697 52.05 60.8931 51.4233V51.4267C61.3697 50.91 61.8064 50.36 62.1997 49.78C61.5664 49.5 61.2497 49.08 61.2497 48.53C61.2497 47.9633 61.4431 47.3567 61.8297 46.7133C62.2164 46.0667 62.7464 45.7467 63.4264 45.7467C63.9997 45.7467 64.2864 46.04 64.2864 46.63C64.2864 47.0933 64.1197 47.7567 63.7897 48.6167C65.0131 48.4833 66.0797 47.55 66.9931 45.81L67.7531 45.7767C71.2831 37.65 70.5131 28.86 64.9864 23.3367C61.5897 19.9367 56.9597 18.3367 52.0031 18.4333ZM67.7531 45.7767C66.6195 48.3653 65.1234 50.7795 63.3097 52.9467C63.2853 53.1089 63.272 53.2726 63.2697 53.4367C63.2697 53.9967 63.4264 54.4667 63.7364 54.8467C64.0431 55.2233 64.4231 55.4133 64.8697 55.4133C65.8564 55.4133 67.2497 54.5333 69.0497 52.79C69.0464 52.9233 69.0397 53.0567 69.0397 53.1933C69.0397 53.68 69.0797 54.42 69.1597 55.4133L71.6031 54.84C71.6031 54.1733 71.6131 53.65 71.6364 53.26C71.6697 52.7367 71.7464 52.16 71.8564 51.5367C71.9231 51.17 72.0897 50.8167 72.3631 50.4867L72.9831 49.7667C73.3798 49.304 73.8004 48.8623 74.2431 48.4433C74.4497 48.26 74.6297 48.1133 74.7831 48.01C74.9044 47.9246 75.0455 47.8718 75.1931 47.8567C75.3764 47.8567 75.4697 47.9733 75.4697 48.21C75.4697 48.4433 75.2964 48.9967 74.9497 49.8667C74.3031 51.4867 73.9764 52.6933 73.9764 53.48C73.9764 54.0633 74.1297 54.5267 74.4297 54.8733C74.5771 55.0435 74.7609 55.1783 74.9675 55.2677C75.1741 55.3571 75.3981 55.3989 75.6231 55.39C76.8397 55.39 78.2997 54.4933 79.9997 52.6967V51.4267C78.7964 52.8467 77.9231 53.56 77.3864 53.56C77.0231 53.56 76.8431 53.3367 76.8431 52.8933C76.8431 52.56 77.0597 51.84 77.4931 50.7267C78.1264 49.1067 78.4431 47.94 78.4431 47.2333C78.4568 46.8445 78.3235 46.4649 78.0697 46.17C77.9543 46.034 77.8101 45.9255 77.6475 45.8522C77.4849 45.779 77.308 45.7429 77.1297 45.7467C76.5797 45.7467 75.9497 46.0033 75.2397 46.5233C74.5297 47.0433 73.5731 47.9767 72.3631 49.3233C72.5397 48.45 72.9131 47.25 73.4797 45.7233L70.7831 46.2433C70.2359 47.3955 69.7908 48.5934 69.4531 49.8233C69.3197 50.3433 69.2197 50.8767 69.1464 51.4233C68.6246 51.9474 68.0796 52.4479 67.5131 52.9233C67.2946 53.0932 67.0265 53.1869 66.7497 53.19C66.6382 53.1945 66.5272 53.172 66.4262 53.1244C66.3253 53.0768 66.2373 53.0055 66.1697 52.9167C66.0174 52.701 65.9422 52.4403 65.9564 52.1767C65.9564 51.8433 66.0197 51.4633 66.1431 51.0333C66.2697 50.6 66.5431 49.79 66.9731 48.5967L67.9997 45.7667L67.7531 45.7767ZM10.3864 36.02C7.50973 35.9667 4.81973 36.8967 2.84973 38.8667C-1.65694 43.3733 -0.716936 51.6233 4.95306 57.29C10.6197 62.96 21.4531 61.3233 23.3764 59.3967C24.9331 57.8433 26.9431 46.64 21.2731 40.9733C18.0831 37.7833 14.0831 36.09 10.3864 36.02ZM51.3364 37.2133H51.8897V37.9133H51.3331L51.3364 37.2133ZM52.7597 37.2133H53.3131V40.0967L54.8464 38.58H55.4964L54.2831 39.7867L55.7097 42.0667H55.0497L53.8597 40.15L53.3131 40.7033V42.07H52.7597V37.2133ZM56.1464 37.2133H56.6997V37.9133H56.1464V37.2133ZM57.7497 37.62H58.3031V38.58H58.8764V39.03H58.3031V41.42C58.3031 41.5433 58.3231 41.6267 58.3697 41.67C58.4097 41.7133 58.4931 41.7367 58.6164 41.7367C58.7043 41.7406 58.7923 41.7293 58.8764 41.7033V42.1733C58.7269 42.2018 58.5752 42.2174 58.4231 42.22C58.2448 42.2319 58.0679 42.1812 57.9231 42.0767C57.8645 42.0263 57.8183 41.9631 57.7883 41.892C57.7582 41.8209 57.745 41.7437 57.7497 41.6667V39.0333H57.2797V38.58H57.7497V37.62ZM45.8764 38.48C46.1464 38.48 46.3764 38.52 46.5664 38.6067C46.7564 38.6867 46.8997 38.81 46.9997 38.9733C47.0997 39.1367 47.1497 39.3267 47.1497 39.55H46.5631C46.5431 39.18 46.3131 38.9933 45.8697 38.9933C45.6779 38.9825 45.4873 39.0302 45.3231 39.13C45.259 39.1723 45.207 39.2305 45.1719 39.2988C45.1369 39.3671 45.1201 39.4433 45.1231 39.52C45.1231 39.6367 45.1731 39.7367 45.2731 39.8133C45.3731 39.8933 45.5397 39.96 45.7731 40.0133L46.3064 40.1433C46.5821 40.1912 46.8399 40.3121 47.0531 40.4933C47.2097 40.6467 47.2864 40.8533 47.2864 41.1133C47.2906 41.3211 47.23 41.5249 47.1131 41.6967C46.9865 41.8731 46.81 42.0078 46.6064 42.0833C46.3668 42.1782 46.1107 42.2247 45.8531 42.22C45.3997 42.22 45.0531 42.12 44.8231 41.9267C44.5931 41.73 44.4731 41.43 44.4597 41.03H45.0464C45.0597 41.1533 45.0797 41.2467 45.1031 41.31C45.1288 41.3768 45.1673 41.4379 45.2164 41.49C45.3631 41.6333 45.5897 41.7067 45.8964 41.7067C46.1037 41.717 46.3093 41.6648 46.4864 41.5567C46.5546 41.5154 46.611 41.4571 46.6501 41.3876C46.6893 41.3182 46.7098 41.2397 46.7097 41.16C46.7117 41.1038 46.7014 41.0478 46.6795 40.996C46.6576 40.9442 46.6247 40.8978 46.5831 40.86C46.4619 40.7667 46.3202 40.7039 46.1697 40.6767L45.6497 40.55C45.4695 40.5063 45.2925 40.4506 45.1197 40.3833C45.0006 40.3336 44.8903 40.2649 44.7931 40.18C44.708 40.1041 44.6418 40.0093 44.5997 39.9033C44.5615 39.7873 44.5434 39.6655 44.5464 39.5433C44.5464 39.2233 44.6664 38.9633 44.9097 38.77C45.1888 38.5646 45.5303 38.4621 45.8764 38.48ZM49.3264 38.48C49.5588 38.4761 49.7891 38.5251 49.9997 38.6233C50.1469 38.6915 50.2784 38.7895 50.3857 38.9111C50.493 39.0328 50.5738 39.1754 50.6231 39.33C50.6641 39.4667 50.6898 39.6076 50.6997 39.75H50.1397C50.126 39.5374 50.0333 39.3377 49.8797 39.19C49.7236 39.0528 49.5207 38.9812 49.3131 38.99C49.127 38.9858 48.9449 39.0445 48.7964 39.1567C48.6408 39.2807 48.525 39.4476 48.4631 39.6367C48.3827 39.8772 48.3443 40.1298 48.3497 40.3833C48.3434 40.6263 48.383 40.8683 48.4664 41.0967C48.5331 41.2759 48.65 41.4321 48.8031 41.5467C48.9558 41.6549 49.1393 41.711 49.3264 41.7067C49.7997 41.7067 50.0831 41.4267 50.1797 40.8667H50.7364C50.7198 41.1242 50.6457 41.3748 50.5197 41.6C50.4059 41.7976 50.2368 41.9575 50.0331 42.06C49.8095 42.1706 49.5625 42.2255 49.3131 42.22C49.0242 42.2275 48.7394 42.1511 48.4931 42C48.2561 41.843 48.0696 41.6207 47.9564 41.36C47.8239 41.0518 47.7591 40.7187 47.7664 40.3833C47.7664 40.1 47.7997 39.84 47.8731 39.6067C47.9374 39.3855 48.0451 39.1793 48.1897 39C48.3229 38.832 48.4943 38.6982 48.6897 38.61C48.8897 38.5198 49.107 38.4777 49.3264 38.48ZM51.3364 38.58H51.8897V42.0667H51.3331L51.3364 38.58ZM56.1464 38.58H56.6997V42.0667H56.1464V38.58ZM39.3131 40.64C39.0464 40.64 38.6464 41.32 38.1264 42.6767C37.6097 44.0333 37.0997 45.9333 36.5964 48.3767C37.5331 47.3367 38.2931 46.17 38.8731 44.8767C39.4564 43.5867 39.7464 42.4767 39.7464 41.5467C39.7557 41.3216 39.7147 41.0973 39.6264 40.89C39.5431 40.7233 39.4397 40.64 39.3164 40.64H39.3131ZM54.8531 46.63C54.1164 46.63 53.4164 47.2567 52.7564 48.5067C52.0997 49.76 51.7697 50.9133 51.7697 51.9667C51.7697 52.3667 51.8664 52.6867 52.0631 52.9333C52.1487 53.0495 52.2608 53.1437 52.3901 53.208C52.5193 53.2724 52.662 53.305 52.8064 53.3033C53.5431 53.3033 54.2397 52.6767 54.8897 51.42C55.5431 50.1633 55.8697 49.0033 55.8697 47.9433C55.8896 47.5991 55.792 47.2583 55.5931 46.9767C55.506 46.8644 55.3935 46.7744 55.2648 46.7141C55.1362 46.6539 54.995 46.625 54.8531 46.63ZM45.3597 46.6533C44.8731 46.6533 44.4097 47.02 43.9697 47.7633C43.5264 48.5033 43.3031 49.4633 43.3031 50.65C45.1897 50.12 46.1331 49.1433 46.1331 47.7133C46.1331 47.0067 45.8764 46.6533 45.3597 46.6533Z" fill="#F9EEE7"/>
</svg>
