<svg width="80" height="80" viewBox="0 0 80 80" fill="none" xmlns="http://www.w3.org/2000/svg">
<g clip-path="url(#clip0_232_80)">
<path d="M40.0033 16C29.3366 16 22.67 21.3333 20.0033 32C24.0033 26.6667 28.67 24.6667 34.0033 26C37.0466 26.76 39.22 28.9667 41.63 31.4133C45.5533 35.3933 50.09 40 60.0033 40C70.67 40 77.3366 34.6667 80.0033 24C76.0033 29.3333 71.3366 31.3333 66.0033 30C62.96 29.24 60.7866 27.0333 58.3766 24.5867C54.4566 20.6067 49.92 16 40.0033 16ZM20.0033 40C9.33663 40 2.66996 45.3333 0.0032959 56C4.0033 50.6667 8.66996 48.6667 14.0033 50C17.0466 50.76 19.22 52.9667 21.63 55.4133C25.5533 59.3933 30.09 64 40.0033 64C50.67 64 57.3366 58.6667 60.0033 48C56.0033 53.3333 51.3366 55.3333 46.0033 54C42.96 53.24 40.7866 51.0333 38.3766 48.5867C34.4566 44.6067 29.92 40 20.0033 40Z" fill="#F9EEE7"/>
</g>
<defs>
<clipPath id="clip0_232_80">
<rect width="80" height="80" fill="white"/>
</clipPath>
</defs>
</svg>
