<svg width="150" height="150" viewBox="0 0 150 150" fill="none" xmlns="http://www.w3.org/2000/svg">
<path d="M75 0L139.952 37.5V112.5L75 150L10.0481 112.5V37.5L75 0Z" fill="#001C55"/>
<g clip-path="url(#clip0_244_373)">
<path d="M47.8125 39C46.255 39 45 40.255 45 41.8125V96.1875C45 97.745 46.255 99 47.8125 99H102.188C103.745 99 105 97.745 105 96.1875V41.8125C105 40.255 103.745 39 102.188 39H47.8125ZM91.22 63.375C92.75 63.375 94.105 63.4675 95.2875 63.6525C96.4028 63.8196 97.4973 64.1045 98.5525 64.5025V70.6475C98.046 70.2972 97.5078 69.9951 96.945 69.745C96.3646 69.4838 95.7654 69.2666 95.1525 69.095C93.9915 68.7715 92.7927 68.6033 91.5875 68.595C90.8375 68.595 90.155 68.665 89.54 68.81C88.9919 68.9272 88.466 69.1315 87.9825 69.415C87.5575 69.675 87.2325 69.9875 87 70.35C86.7662 70.7154 86.6445 71.1412 86.65 71.575C86.65 72.065 86.7825 72.5075 87.04 72.8975C87.3 73.2875 87.67 73.6575 88.1475 74.0075C88.625 74.3575 89.205 74.6975 89.8875 75.0325C90.57 75.37 91.3425 75.7175 92.2025 76.0725C93.3775 76.565 94.4325 77.09 95.3675 77.6425C96.3025 78.1975 97.105 78.825 97.775 79.525C98.445 80.2225 98.955 81.02 99.31 81.9175C99.665 82.815 99.845 83.8575 99.845 85.05C99.845 86.6925 99.5325 88.075 98.9125 89.19C98.3067 90.2897 97.4374 91.2217 96.3825 91.9025C95.2455 92.6235 93.9852 93.1286 92.665 93.3925C91.25 93.6925 89.7575 93.8425 88.19 93.8425C86.6472 93.8493 85.1072 93.712 83.59 93.4325C82.2773 93.2055 81.0042 92.7904 79.81 92.2V85.625C82.0695 87.5478 84.9357 88.6104 87.9025 88.625C88.735 88.625 89.4625 88.55 90.0825 88.4C90.705 88.25 91.2225 88.04 91.64 87.775C92.055 87.505 92.365 87.19 92.5725 86.825C92.8018 86.4 92.9062 85.9188 92.8734 85.437C92.8407 84.9552 92.6722 84.4925 92.3875 84.1025C92.0161 83.611 91.5617 83.188 91.045 82.8525C90.4041 82.4277 89.7294 82.0564 89.0275 81.7425C88.1956 81.3626 87.3563 80.9992 86.51 80.6525C84.215 79.695 82.505 78.5225 81.3775 77.14C80.2525 75.7575 79.6875 74.085 79.6875 72.1275C79.6875 70.5925 79.995 69.275 80.61 68.1725C81.225 67.07 82.06 66.1625 83.12 65.45C84.2412 64.7104 85.4859 64.1778 86.795 63.8775C88.2449 63.5356 89.7303 63.367 91.22 63.375ZM53.4375 63.845H77.345V69.26H68.765V93.375H61.9725V69.26H53.4375V63.845Z" fill="#F9EEE7"/>
</g>
<path d="M40.926 123V114.04H38.154V112.57H45.294V114.04H42.564V123H40.926ZM46.4866 126.094C46.3 126.094 46.1133 126.075 45.9266 126.038C45.7493 126.01 45.586 125.963 45.4366 125.898V124.54C45.5486 124.568 45.684 124.591 45.8426 124.61C46.0013 124.638 46.1553 124.652 46.3046 124.652C46.7433 124.652 47.0653 124.554 47.2706 124.358C47.4853 124.171 47.6766 123.877 47.8446 123.476L48.3486 122.328L48.3206 123.658L45.0446 115.426H46.7386L49.1606 121.74H48.5866L50.9946 115.426H52.7026L49.3566 123.826C49.1793 124.274 48.9553 124.666 48.6846 125.002C48.4233 125.347 48.1106 125.613 47.7466 125.8C47.392 125.996 46.972 126.094 46.4866 126.094ZM53.7853 125.8V115.426H55.2973V116.994L55.1153 116.63C55.3953 116.201 55.7687 115.865 56.2353 115.622C56.702 115.379 57.234 115.258 57.8313 115.258C58.55 115.258 59.194 115.431 59.7633 115.776C60.342 116.121 60.7947 116.593 61.1213 117.19C61.4573 117.787 61.6253 118.459 61.6253 119.206C61.6253 119.953 61.4573 120.625 61.1213 121.222C60.7947 121.819 60.3467 122.295 59.7773 122.65C59.208 122.995 58.5593 123.168 57.8313 123.168C57.2433 123.168 56.7067 123.047 56.2213 122.804C55.7453 122.561 55.3767 122.211 55.1153 121.754L55.3673 121.46V125.8H53.7853ZM57.6773 121.698C58.1253 121.698 58.522 121.591 58.8673 121.376C59.2127 121.161 59.4833 120.867 59.6793 120.494C59.8847 120.111 59.9873 119.682 59.9873 119.206C59.9873 118.73 59.8847 118.305 59.6793 117.932C59.4833 117.559 59.2127 117.265 58.8673 117.05C58.522 116.835 58.1253 116.728 57.6773 116.728C57.2387 116.728 56.842 116.835 56.4873 117.05C56.142 117.265 55.8667 117.559 55.6613 117.932C55.4653 118.305 55.3673 118.73 55.3673 119.206C55.3673 119.682 55.4653 120.111 55.6613 120.494C55.8667 120.867 56.142 121.161 56.4873 121.376C56.842 121.591 57.2387 121.698 57.6773 121.698ZM66.7202 123.168C65.9642 123.168 65.2922 122.995 64.7042 122.65C64.1256 122.295 63.6729 121.819 63.3462 121.222C63.0196 120.615 62.8562 119.939 62.8562 119.192C62.8562 118.427 63.0196 117.75 63.3462 117.162C63.6822 116.574 64.1302 116.112 64.6902 115.776C65.2502 115.431 65.8849 115.258 66.5942 115.258C67.1636 115.258 67.6722 115.356 68.1202 115.552C68.5682 115.748 68.9462 116.019 69.2542 116.364C69.5622 116.7 69.7956 117.087 69.9542 117.526C70.1222 117.965 70.2062 118.431 70.2062 118.926C70.2062 119.047 70.2016 119.173 70.1922 119.304C70.1829 119.435 70.1642 119.556 70.1362 119.668H64.1022V118.408H69.2402L68.4842 118.982C68.5776 118.525 68.5449 118.119 68.3862 117.764C68.2369 117.4 68.0036 117.115 67.6862 116.91C67.3782 116.695 67.0142 116.588 66.5942 116.588C66.1742 116.588 65.8009 116.695 65.4742 116.91C65.1476 117.115 64.8956 117.414 64.7182 117.806C64.5409 118.189 64.4709 118.655 64.5082 119.206C64.4616 119.719 64.5316 120.167 64.7182 120.55C64.9142 120.933 65.1849 121.231 65.5302 121.446C65.8849 121.661 66.2862 121.768 66.7342 121.768C67.1916 121.768 67.5789 121.665 67.8962 121.46C68.2229 121.255 68.4796 120.989 68.6662 120.662L69.9542 121.292C69.8049 121.647 69.5716 121.969 69.2542 122.258C68.9462 122.538 68.5729 122.762 68.1342 122.93C67.7049 123.089 67.2336 123.168 66.7202 123.168ZM75.5582 123.168C74.9048 123.168 74.2982 123.047 73.7382 122.804C73.1782 122.552 72.7022 122.211 72.3102 121.782C71.9182 121.353 71.6288 120.858 71.4422 120.298L72.8422 119.71C73.0942 120.354 73.4628 120.849 73.9482 121.194C74.4335 121.539 74.9935 121.712 75.6282 121.712C76.0015 121.712 76.3282 121.656 76.6082 121.544C76.8882 121.423 77.1028 121.255 77.2522 121.04C77.4108 120.825 77.4902 120.578 77.4902 120.298C77.4902 119.915 77.3828 119.612 77.1682 119.388C76.9535 119.164 76.6362 118.987 76.2162 118.856L74.2562 118.24C73.4722 117.997 72.8748 117.629 72.4642 117.134C72.0535 116.63 71.8482 116.042 71.8482 115.37C71.8482 114.782 71.9928 114.269 72.2822 113.83C72.5715 113.382 72.9682 113.032 73.4722 112.78C73.9855 112.528 74.5688 112.402 75.2222 112.402C75.8475 112.402 76.4168 112.514 76.9302 112.738C77.4435 112.953 77.8822 113.251 78.2462 113.634C78.6195 114.017 78.8902 114.46 79.0582 114.964L77.6862 115.566C77.4808 115.015 77.1588 114.591 76.7202 114.292C76.2908 113.993 75.7915 113.844 75.2222 113.844C74.8768 113.844 74.5735 113.905 74.3122 114.026C74.0508 114.138 73.8455 114.306 73.6962 114.53C73.5562 114.745 73.4862 114.997 73.4862 115.286C73.4862 115.622 73.5935 115.921 73.8082 116.182C74.0228 116.443 74.3495 116.639 74.7882 116.77L76.6082 117.344C77.4388 117.596 78.0642 117.96 78.4842 118.436C78.9042 118.903 79.1142 119.486 79.1142 120.186C79.1142 120.765 78.9602 121.278 78.6522 121.726C78.3535 122.174 77.9382 122.529 77.4062 122.79C76.8742 123.042 76.2582 123.168 75.5582 123.168ZM84.4126 123.168C83.6566 123.168 82.9846 122.995 82.3966 122.65C81.818 122.295 81.356 121.819 81.0106 121.222C80.6746 120.625 80.5066 119.948 80.5066 119.192C80.5066 118.445 80.6746 117.773 81.0106 117.176C81.3466 116.579 81.8086 116.112 82.3966 115.776C82.9846 115.431 83.6566 115.258 84.4126 115.258C84.926 115.258 85.4066 115.351 85.8546 115.538C86.3026 115.715 86.69 115.963 87.0166 116.28C87.3526 116.597 87.6 116.966 87.7586 117.386L86.3726 118.03C86.214 117.638 85.9573 117.325 85.6026 117.092C85.2573 116.849 84.8606 116.728 84.4126 116.728C83.9833 116.728 83.596 116.835 83.2506 117.05C82.9146 117.255 82.6486 117.549 82.4526 117.932C82.2566 118.305 82.1586 118.73 82.1586 119.206C82.1586 119.682 82.2566 120.111 82.4526 120.494C82.6486 120.867 82.9146 121.161 83.2506 121.376C83.596 121.591 83.9833 121.698 84.4126 121.698C84.87 121.698 85.2666 121.581 85.6026 121.348C85.948 121.105 86.2046 120.783 86.3726 120.382L87.7586 121.04C87.6093 121.441 87.3666 121.805 87.0306 122.132C86.704 122.449 86.3166 122.701 85.8686 122.888C85.4206 123.075 84.9353 123.168 84.4126 123.168ZM89.3049 123V115.426H90.8169V116.952L90.6769 116.728C90.8449 116.233 91.1155 115.879 91.4889 115.664C91.8622 115.44 92.3102 115.328 92.8329 115.328H93.2949V116.77H92.6369C92.1142 116.77 91.6895 116.933 91.3629 117.26C91.0455 117.577 90.8869 118.035 90.8869 118.632V123H89.3049ZM94.3771 123V115.426H95.9591V123H94.3771ZM94.3771 114.39V112.57H95.9591V114.39H94.3771ZM97.8088 125.8V115.426H99.3208V116.994L99.1388 116.63C99.4188 116.201 99.7921 115.865 100.259 115.622C100.725 115.379 101.257 115.258 101.855 115.258C102.573 115.258 103.217 115.431 103.787 115.776C104.365 116.121 104.818 116.593 105.145 117.19C105.481 117.787 105.649 118.459 105.649 119.206C105.649 119.953 105.481 120.625 105.145 121.222C104.818 121.819 104.37 122.295 103.801 122.65C103.231 122.995 102.583 123.168 101.855 123.168C101.267 123.168 100.73 123.047 100.245 122.804C99.7688 122.561 99.4001 122.211 99.1388 121.754L99.3908 121.46V125.8H97.8088ZM101.701 121.698C102.149 121.698 102.545 121.591 102.891 121.376C103.236 121.161 103.507 120.867 103.703 120.494C103.908 120.111 104.011 119.682 104.011 119.206C104.011 118.73 103.908 118.305 103.703 117.932C103.507 117.559 103.236 117.265 102.891 117.05C102.545 116.835 102.149 116.728 101.701 116.728C101.262 116.728 100.865 116.835 100.511 117.05C100.165 117.265 99.8901 117.559 99.6848 117.932C99.4888 118.305 99.3908 118.73 99.3908 119.206C99.3908 119.682 99.4888 120.111 99.6848 120.494C99.8901 120.867 100.165 121.161 100.511 121.376C100.865 121.591 101.262 121.698 101.701 121.698ZM110.327 123.084C109.534 123.084 108.918 122.86 108.479 122.412C108.04 121.964 107.821 121.334 107.821 120.522V116.854H106.491V115.426H106.701C107.056 115.426 107.331 115.323 107.527 115.118C107.723 114.913 107.821 114.633 107.821 114.278V113.69H109.403V115.426H111.125V116.854H109.403V120.452C109.403 120.713 109.445 120.937 109.529 121.124C109.613 121.301 109.748 121.441 109.935 121.544C110.122 121.637 110.364 121.684 110.663 121.684C110.738 121.684 110.822 121.679 110.915 121.67C111.008 121.661 111.097 121.651 111.181 121.642V123C111.05 123.019 110.906 123.037 110.747 123.056C110.588 123.075 110.448 123.084 110.327 123.084Z" fill="white"/>
<defs>
<clipPath id="clip0_244_373">
<rect width="60" height="60" fill="white" transform="translate(45 39)"/>
</clipPath>
</defs>
</svg>
