<svg width="80" height="80" viewBox="0 0 80 80" fill="none" xmlns="http://www.w3.org/2000/svg">
<g clip-path="url(#clip0_232_69)">
<path d="M3.75 0C1.67333 0 0 1.67333 0 3.75V76.25C0 78.3267 1.67333 80 3.75 80H76.25C78.3267 80 80 78.3267 80 76.25V3.75C80 1.67333 78.3267 0 76.25 0H3.75ZM61.6267 32.5C63.6667 32.5 65.4733 32.6233 67.05 32.87C68.5371 33.0928 69.9964 33.4727 71.4033 34.0033V42.1967C70.728 41.7296 70.0104 41.3267 69.26 40.9933C68.4861 40.6451 67.6872 40.3554 66.87 40.1267C65.322 39.6953 63.7236 39.4711 62.1167 39.46C61.1167 39.46 60.2067 39.5533 59.3867 39.7467C58.6558 39.903 57.9547 40.1753 57.31 40.5533C56.7433 40.9 56.31 41.3167 56 41.8C55.6882 42.2872 55.526 42.855 55.5333 43.4333C55.5333 44.0867 55.71 44.6767 56.0533 45.1967C56.4 45.7167 56.8933 46.21 57.53 46.6767C58.1667 47.1433 58.94 47.5967 59.85 48.0433C60.76 48.4933 61.79 48.9567 62.9367 49.43C64.5033 50.0867 65.91 50.7867 67.1567 51.5233C68.4033 52.2633 69.4733 53.1 70.3667 54.0333C71.26 54.9633 71.94 56.0267 72.4133 57.2233C72.8867 58.42 73.1267 59.81 73.1267 61.4C73.1267 63.59 72.71 65.4333 71.8833 66.92C71.0756 68.3862 69.9165 69.629 68.51 70.5367C66.994 71.498 65.3136 72.1715 63.5533 72.5233C61.6667 72.9233 59.6767 73.1233 57.5867 73.1233C55.5297 73.1324 53.4763 72.9493 51.4533 72.5767C49.7031 72.2739 48.0056 71.7205 46.4133 70.9333V62.1667C49.4259 64.7304 53.2476 66.1471 57.2033 66.1667C58.3133 66.1667 59.2833 66.0667 60.11 65.8667C60.94 65.6667 61.63 65.3867 62.1867 65.0333C62.74 64.6733 63.1533 64.2533 63.43 63.7667C63.7358 63.2 63.8749 62.5584 63.8312 61.916C63.7876 61.2736 63.563 60.6567 63.1833 60.1367C62.6881 59.4813 62.0823 58.9173 61.3933 58.47C60.5388 57.9036 59.6391 57.4086 58.7033 56.99C57.5941 56.4835 56.475 55.9989 55.3467 55.5367C52.2867 54.26 50.0067 52.6967 48.5033 50.8533C47.0033 49.01 46.25 46.78 46.25 44.17C46.25 42.1233 46.66 40.3667 47.48 38.8967C48.3 37.4267 49.4133 36.2167 50.8267 35.2667C52.3215 34.2805 53.9811 33.5704 55.7267 33.17C57.6599 32.7142 59.6404 32.4893 61.6267 32.5ZM11.25 33.1267H43.1267V40.3467H31.6867V72.5H22.63V40.3467H11.25V33.1267Z" fill="#F9EEE7"/>
</g>
<defs>
<clipPath id="clip0_232_69">
<rect width="80" height="80" fill="white"/>
</clipPath>
</defs>
</svg>
