<svg width="80" height="88" viewBox="0 0 80 88" fill="none" xmlns="http://www.w3.org/2000/svg">
<path d="M76.8562 9.3047L60.4634 0.550022C58.5559 -0.472786 56.2874 -0.0415482 54.7958 1.61429L23.3973 33.4181L9.71383 21.8991C8.44385 20.8182 6.65342 20.9067 5.47308 22.1009L1.09039 26.5349C-0.36138 27.9889 -0.36138 30.5238 1.07794 31.9779L12.9461 44L1.07794 56.0221C-0.36138 57.4762 -0.36138 60.0111 1.09039 61.4651L5.47308 65.8991C6.66587 67.0933 8.44385 67.1818 9.71383 66.1009L23.3973 54.5681L54.8107 86.3857C56.2899 88.0416 58.5584 88.4728 60.4659 87.45L76.8736 78.6815C78.5993 77.761 79.6875 75.8314 79.6875 73.7001V14.2805C79.6875 12.163 78.5844 10.2197 76.8612 9.29918L76.8562 9.3047ZM59.7736 64.0885L35.9353 44.0028L59.7736 23.917V64.0885Z" fill="#F9EEE7"/>
</svg>
